Bit02n.sfdir
StartChar: exclam
Encoding: 33 33 20
Width: 400
Flags: W
HStem: 0 100<100 200> 680 20G<100 200>
VStem: 100 100<0 100 200 700>
LayerCount: 2
Fore
SplineSet
100 200 m 1
 100 700 l 1
 200 700 l 1
 200 200 l 1
 100 200 l 1
100 0 m 1
 100 100 l 1
 200 100 l 1
 200 0 l 1
 100 0 l 1
EndSplineSet
Validated: 1
EndChar
StartChar: quotedbl
Encoding: 34 34 21
Width: 400
Flags: W
HStem: 500 300<0 100 200 300>
VStem: 0 100<500 800> 200 100<500 800>
LayerCount: 2
Fore
SplineSet
0 500 m 1
 0 800 l 1
 100 800 l 1
 100 500 l 1
 0 500 l 1
200 500 m 1
 200 800 l 1
 300 800 l 1
 300 500 l 1
 200 500 l 1
EndSplineSet
Validated: 1
EndChar
StartChar: numbersign
Encoding: 35 35 91
Width: 600
Flags: W
HStem: 200 100<0 100 200 300 400 500> 400 100<0 100 200 300 400 500> 680 20G<100 200 300 400>
VStem: 100 100<0 200 300 400 500 700> 300 100<0 200 300 400 500 700>
LayerCount: 2
Fore
SplineSet
0 200 m 1
 0 300 l 1
 100 300 l 1
 100 400 l 1
 0 400 l 1
 0 500 l 1
 100 500 l 1
 100 700 l 1
 200 700 l 1
 200 500 l 1
 300 500 l 1
 300 700 l 1
 400 700 l 1
 400 500 l 1
 500 500 l 1
 500 400 l 1
 400 400 l 1
 400 300 l 1
 500 300 l 1
 500 200 l 1
 400 200 l 1
 400 0 l 1
 300 0 l 1
 300 200 l 1
 200 200 l 1
 200 0 l 1
 100 0 l 1
 100 200 l 1
 0 200 l 1
200 300 m 1
 300 300 l 1
 300 400 l 1
 200 400 l 1
 200 300 l 1
EndSplineSet
Validated: 1
EndChar
StartChar: dollar
Encoding: 36 36 92
Width: 600
Flags: W
HStem: -100 21G<200 300> 0 100<100 200 300 400> 300 100<100 200 300 400> 600 100<100 200 300 400>
VStem: 0 100<400 600> 100 300<0 100 300 400 600 700> 200 100<-100 0 100 300 400 600 700 800> 400 100<100 300>
LayerCount: 2
Fore
SplineSet
0 400 m 1xf8
 0 600 l 1
 100 600 l 1xf8
 100 700 l 1xf4
 200 700 l 1
 200 800 l 1
 300 800 l 1
 300 700 l 1xf2
 400 700 l 1
 400 600 l 1xf4
 300 600 l 1
 300 400 l 1xf2
 400 400 l 1
 400 300 l 1xf4
 300 300 l 1
 300 100 l 1xf2
 400 100 l 1
 400 300 l 1xf4
 500 300 l 1
 500 100 l 1xf1
 400 100 l 1
 400 0 l 1xf4
 300 0 l 1
 300 -100 l 1
 200 -100 l 1
 200 0 l 1xf2
 100 0 l 1
 100 100 l 1xf4
 200 100 l 1
 200 300 l 1xf2
 100 300 l 1xf4
 100 400 l 1
 0 400 l 1xf8
100 600 m 1
 100 400 l 1
 200 400 l 1
 200 600 l 1xfa
 100 600 l 1
EndSplineSet
Validated: 5
EndChar
StartChar: ampersand
Encoding: 38 38 94
Width: 900
Flags: W
HStem: -100 100<200 600> 300 100<200 500 700 800> 600 100<200 400>
VStem: 100 100<0 300 400 600> 600 100<0 300>
LayerCount: 2
Fore
SplineSet
200 300 m 1
 200 400 l 1
 500 400 l 25
 500 300 l 25
 200 300 l 1
100 400 m 1
 100 600 l 1
 200 600 l 1
 200 700 l 1
 400 700 l 1
 400 600 l 1
 200 600 l 1
 200 400 l 1
 100 400 l 1
200 0 m 17
 600 0 l 1
 600 400 l 1
 800 400 l 1
 800 300 l 1
 700 300 l 1
 700 0 l 1
 600 0 l 1
 600 -100 l 1
 200 -100 l 1
 200 0 l 1
 100 0 l 1
 100 300 l 1
 200 300 l 1
 200 0 l 17
EndSplineSet
Validated: 5
EndChar
StartChar: quotesingle
Encoding: 39 39 19
Width: 200
Flags: W
HStem: 500 300<0 100>
VStem: 0 100<500 800>
LayerCount: 2
Fore
SplineSet
0 500 m 1
 0 800 l 1
 100 800 l 1
 100 500 l 1
 0 500 l 1
EndSplineSet
Validated: 1
EndChar
StartChar: parenleft
Encoding: 40 40 17
Width: 400
Flags: W
HStem: -100 100<200 300> 0 100<100 200> 480 20G<0 100> 500 100<100 200> 600 100<200 300>
VStem: 0 100<100 500> 100 100<0 100 500 600> 200 100<-100 0 600 700>
LayerCount: 2
Fore
SplineSet
100 500 m 1x64
 100 100 l 1
 0 100 l 1
 0 500 l 1
 100 500 l 1x64
100 500 m 1
 100 600 l 1
 200 600 l 1
 200 500 l 1x12
 100 500 l 1
200 600 m 1
 200 700 l 1
 300 700 l 1
 300 600 l 1x09
 200 600 l 1
100 100 m 1x44
 200 100 l 1x42
 200 0 l 1x82
 100 0 l 1x42
 100 100 l 1x44
200 0 m 1x82
 300 0 l 1
 300 -100 l 1
 200 -100 l 1x81
 200 0 l 1x82
EndSplineSet
Validated: 5
EndChar
StartChar: parenright
Encoding: 41 41 18
Width: 400
Flags: W
HStem: -100 100<0 100> 0 100<100 200> 500 100<100 200> 600 100<0 100>
VStem: 0 100<-100 0 600 700> 100 100<0 100 500 600> 200 100<100 500>
LayerCount: 2
Fore
SplineSet
0 600 m 1x18
 0 700 l 1
 100 700 l 1x18
 100 600 l 1x28
 0 600 l 1x18
0 -100 m 1x88
 0 0 l 1
 100 0 l 1x88
 100 100 l 1
 200 100 l 1
 200 500 l 1
 100 500 l 1x64
 100 600 l 1x68
 200 600 l 1
 200 500 l 1x64
 300 500 l 1
 300 100 l 1x62
 200 100 l 1
 200 0 l 1x64
 100 0 l 1
 100 -100 l 1
 0 -100 l 1x88
EndSplineSet
Validated: 5
EndChar
StartChar: asterisk
Encoding: 42 42 16
Width: 400
Flags: W
HStem: 400 100<0 100 200 300> 600 100<0 100 200 300>
VStem: 0 300<400 500 600 700>
LayerCount: 2
Fore
SplineSet
0 700 m 1
 300 700 l 1
 300 600 l 1
 200 600 l 1
 200 500 l 1
 300 500 l 1
 300 400 l 1
 0 400 l 1
 0 500 l 1
 100 500 l 1
 100 600 l 1
 0 600 l 1
 0 700 l 1
EndSplineSet
Validated: 1
EndChar
StartChar: plus
Encoding: 43 43 15
Width: 600
Flags: W
HStem: 300 100<0 200 300 500>
VStem: 200 100<100 300 400 600>
LayerCount: 2
Fore
SplineSet
0 300 m 1
 0 400 l 1
 200 400 l 1
 200 600 l 1
 300 600 l 1
 300 400 l 1
 500 400 l 1
 500 300 l 1
 300 300 l 1
 300 100 l 1
 200 100 l 1
 200 300 l 1
 0 300 l 1
EndSplineSet
Validated: 1
EndChar
StartChar: comma
Encoding: 44 44 14
Width: 300
Flags: W
HStem: -100 100<0 100>
VStem: 0 100<-100 0> 100 100<0 200>
LayerCount: 2
Fore
SplineSet
0 -100 m 1xc0
 0 0 l 1
 100 0 l 1
 100 -100 l 1
 0 -100 l 1xc0
100 0 m 1
 100 200 l 1
 200 200 l 1
 200 0 l 1xa0
 100 0 l 1
EndSplineSet
Validated: 5
EndChar
StartChar: hyphen
Encoding: 45 45 13
Width: 400
Flags: W
HStem: 200 100<0 300>
VStem: 0 300<200 300>
LayerCount: 2
Fore
SplineSet
0 200 m 1
 0 300 l 1
 300 300 l 1
 300 200 l 1
 0 200 l 1
EndSplineSet
EndChar
StartChar: period
Encoding: 46 46 12
Width: 400
Flags: W
HStem: 0 200<100 300>
VStem: 100 200<0 200>
LayerCount: 2
Fore
SplineSet
100 0 m 1
 100 200 l 1
 300 200 l 1
 300 0 l 1
 100 0 l 1
EndSplineSet
Validated: 1
EndChar
StartChar: slash
Encoding: 47 47 1
Width: 600
Flags: W
HStem: -200 21G<0 100>
VStem: 0 100<-200 0> 100 100<0 200> 200 100<200 400> 300 100<400 600> 400 100<600 800>
LayerCount: 2
Fore
SplineSet
100 0 m 1xc0
 100 -200 l 1
 0 -200 l 1
 0 0 l 1
 100 0 l 1xc0
100 0 m 1
 100 200 l 1
 200 200 l 1
 200 0 l 1xa0
 100 0 l 1
200 200 m 1
 200 400 l 1
 300 400 l 1
 300 200 l 1x90
 200 200 l 1
300 400 m 1
 300 600 l 1
 400 600 l 1
 400 400 l 1x88
 300 400 l 1
400 600 m 1
 400 800 l 1
 500 800 l 1
 500 600 l 1x84
 400 600 l 1
EndSplineSet
Validated: 5
EndChar
StartChar: zero
Encoding: 48 48 2
Width: 600
Flags: W
HStem: 0 100<100 400> 600 100<100 400>
VStem: 0 100<100 600> 100 300<0 100 600 700>
LayerCount: 2
Fore
SplineSet
100 600 m 1xe0
 100 100 l 1
 0 100 l 1
 0 600 l 1
 100 600 l 1xe0
100 600 m 1
 100 700 l 1
 400 700 l 1
 400 600 l 1xd0
 100 600 l 1
400 600 m 1
 400 100 l 1
 500 100 l 1
 500 600 l 1
 400 600 l 1
400 100 m 1
 400 0 l 1
 100 0 l 1xd0
 100 100 l 1xe0
 400 100 l 1
EndSplineSet
Validated: 5
EndChar
StartChar: one
Encoding: 49 49 3
Width: 400
Flags: W
HStem: 400 100<0 100> 680 20G<200 300>
VStem: 0 100<400 500> 200 100<0 500 600 700>
LayerCount: 2
Fore
SplineSet
0 400 m 25
 0 500 l 25
 100 500 l 25
 100 400 l 25
 0 400 l 25
200 700 m 1
 300 700 l 1
 300 0 l 1
 200 0 l 1
 200 500 l 1
 100 500 l 1
 100 600 l 1
 200 600 l 1
 200 700 l 1
EndSplineSet
Validated: 5
EndChar
StartChar: two
Encoding: 50 50 4
Width: 600
Flags: W
HStem: 0 100<0 100 200 500> 200 100<200 300> 300 100<300 400> 600 100<100 400>
VStem: 100 100<100 200> 200 100<200 300> 300 100<300 400>
LayerCount: 2
Fore
SplineSet
100 700 m 1x9a
 400 700 l 1
 400 600 l 1
 100 600 l 1
 100 700 l 1x9a
0 0 m 1
 0 100 l 1
 100 100 l 1
 100 200 l 1
 200 200 l 1xd8
 200 300 l 1
 300 300 l 1xd4
 300 400 l 1
 400 400 l 1
 400 300 l 1xb2
 300 300 l 1
 300 200 l 1xd4
 200 200 l 1xd8
 200 100 l 1
 500 100 l 1
 500 0 l 1
 0 0 l 1
400 600 m 1xb2
 400 400 l 1
 500 400 l 1
 500 600 l 1
 400 600 l 1xb2
EndSplineSet
Validated: 5
EndChar
StartChar: three
Encoding: 51 51 5
Width: 500
Flags: W
HStem: 0 100<0 300> 300 100<100 300> 600 100<0 300>
VStem: 0 300<0 100 600 700> 300 100<100 300 400 600>
CounterMasks: 1 e0
LayerCount: 2
Fore
SplineSet
0 600 m 1xf0
 0 700 l 1
 300 700 l 1
 300 600 l 1
 0 600 l 1xf0
100 300 m 1
 100 400 l 1
 300 400 l 1xe8
 300 600 l 1xf0
 400 600 l 1
 400 400 l 1
 300 400 l 1
 300 300 l 1xe8
 100 300 l 1
0 0 m 1xf0
 0 100 l 1
 300 100 l 1xf0
 300 300 l 1
 400 300 l 1
 400 100 l 1xe8
 300 100 l 1
 300 0 l 1
 0 0 l 1xf0
EndSplineSet
Validated: 5
EndChar
StartChar: four
Encoding: 52 52 6
Width: 600
Flags: W
HStem: 200 100<100 300 400 500> 400 100<100 200> 680 20G<300 400>
VStem: 0 100<300 400> 100 100<400 500> 300 100<0 200 300 500 600 700>
LayerCount: 2
Fore
SplineSet
300 500 m 1xf4
 200 500 l 1
 200 600 l 1xec
 300 600 l 1
 300 700 l 1
 400 700 l 1
 400 300 l 1
 500 300 l 1
 500 200 l 1
 400 200 l 1
 400 0 l 1
 300 0 l 1
 300 200 l 1
 0 200 l 1
 0 300 l 1
 0 400 l 1
 100 400 l 1xf4
 100 500 l 1
 200 500 l 1
 200 400 l 1xec
 100 400 l 1
 100 300 l 1
 300 300 l 1
 300 500 l 1xf4
EndSplineSet
Validated: 5
EndChar
StartChar: five
Encoding: 53 53 7
Width: 500
Flags: W
HStem: 0 100<0 300> 400 100<100 300> 600 100<100 400>
VStem: 0 300<0 100 400 500> 0 100<500 600> 300 100<100 400>
LayerCount: 2
Fore
SplineSet
0 0 m 1xf0
 0 100 l 1
 300 100 l 1
 300 0 l 1
 0 0 l 1xf0
300 100 m 1
 300 400 l 1xf0
 400 400 l 1
 400 100 l 1xe4
 300 100 l 1
300 400 m 1
 0 400 l 1
 0 500 l 1xf0
 0 600 l 1
 100 600 l 1
 100 500 l 1xe8
 300 500 l 1
 300 400 l 1
100 600 m 1xec
 100 700 l 1
 400 700 l 1
 400 600 l 1
 100 600 l 1xec
EndSplineSet
Validated: 5
EndChar
StartChar: six
Encoding: 54 54 8
Width: 600
Flags: W
HStem: 0 100<100 400> 400 100<100 400> 600 100<100 400>
VStem: 0 100<100 400 500 600> 100 300<0 100 600 700> 400 100<100 400>
LayerCount: 2
Fore
SplineSet
0 100 m 1xf4
 0 600 l 1
 100 600 l 1
 100 500 l 1
 400 500 l 1
 400 400 l 1
 500 400 l 1
 500 100 l 1xf4
 400 100 l 1
 400 0 l 1
 100 0 l 1xe8
 100 100 l 1xf0
 400 100 l 1xe8
 400 400 l 1
 100 400 l 1
 100 100 l 1
 0 100 l 1xf4
100 600 m 1
 100 700 l 1
 400 700 l 1
 400 600 l 1xe8
 100 600 l 1
EndSplineSet
Validated: 5
EndChar
StartChar: seven
Encoding: 55 55 9
Width: 500
Flags: W
HStem: 480 20G<200 300> 500 21G<300 400> 600 100<0 300>
VStem: 100 100<0 300> 200 100<300 500> 300 100<500 600>
LayerCount: 2
Fore
SplineSet
0 600 m 1xa4
 0 700 l 1
 400 700 l 1
 400 600 l 1
 400 500 l 1x64
 300 500 l 1xa8
 300 600 l 1
 0 600 l 1xa4
100 0 m 1xb0
 100 300 l 1
 200 300 l 1xb0
 200 500 l 1
 300 500 l 1
 300 300 l 1xa8
 200 300 l 1
 200 0 l 1
 100 0 l 1xb0
EndSplineSet
Validated: 5
EndChar
StartChar: eight
Encoding: 56 56 10
Width: 600
Flags: W
HStem: 0 100<100 400> 100 200<0 100 400 500> 300 100<100 400> 400 200<0 100 400 500> 600 100<100 400>
VStem: 0 100<100 300 400 600> 100 300<0 100 300 400 600 700> 400 100<100 300 400 600>
LayerCount: 2
Fore
SplineSet
0 400 m 1x14
 0 600 l 1
 100 600 l 1x14
 100 400 l 1x24
 0 400 l 1x14
0 100 m 1x44
 0 300 l 1
 100 300 l 1x44
 100 400 l 1x24
 400 400 l 1x22
 400 600 l 1x12
 100 600 l 1x14
 100 700 l 1
 400 700 l 1x0a
 400 600 l 1x12
 500 600 l 1
 500 400 l 1x11
 400 400 l 1x22
 400 300 l 1x42
 100 300 l 1x44
 100 100 l 1x84
 0 100 l 1x44
400 300 m 1x42
 500 300 l 1
 500 100 l 1x41
 400 100 l 1x82
 400 300 l 1x42
400 100 m 1x82
 400 0 l 1
 100 0 l 1x82
 100 100 l 1x84
 400 100 l 1x82
EndSplineSet
Validated: 5
EndChar
StartChar: nine
Encoding: 57 57 11
Width: 600
Flags: W
HStem: 0 100<100 300> 100 100<300 400> 300 100<100 400> 600 100<100 400>
VStem: 0 100<400 600> 300 100<100 200> 400 100<200 300 400 600>
LayerCount: 2
Fore
SplineSet
0 400 m 1x38
 0 600 l 1
 100 600 l 1
 100 400 l 1
 0 400 l 1x38
100 0 m 1xbc
 100 100 l 1
 300 100 l 1xbc
 300 200 l 1
 400 200 l 1x7c
 400 300 l 1
 100 300 l 1
 100 400 l 1
 400 400 l 1
 400 600 l 1
 100 600 l 1
 100 700 l 1
 400 700 l 1
 400 600 l 1
 500 600 l 1
 500 200 l 1x7a
 400 200 l 1
 400 100 l 1x7c
 300 100 l 1
 300 0 l 1
 100 0 l 1xbc
EndSplineSet
Validated: 5
EndChar
StartChar: colon
Encoding: 58 58 22
Width: 400
InSpiro: 1
Flags: W
HStem: 480 20G<100 200>
VStem: 100 100<0 200 300 500>
LayerCount: 2
Fore
SplineSet
100 300 m 1
 100 500 l 1
 200 500 l 1
 200 300 l 1
 100 300 l 1
  Spiro
    100 300 v
    100 500 v
    200 500 v
    200 300 v
    0 0 z
  EndSpiro
100 0 m 1
 100 200 l 1
 200 200 l 1
 200 0 l 1
 100 0 l 1
  Spiro
    100 0 v
    100 200 v
    200 200 v
    200 0 v
    0 0 z
  EndSpiro
EndSplineSet
Validated: 1
EndChar
StartChar: semicolon
Encoding: 59 59 23
Width: 400
Flags: W
HStem: -100 100<0 100> 480 20G<100 200>
VStem: 0 100<-100 0> 100 100<0 200 300 500>
LayerCount: 2
Fore
SplineSet
100 300 m 1xd0
 100 500 l 1
 200 500 l 1
 200 300 l 1
 100 300 l 1xd0
0 -100 m 1xe0
 0 0 l 1
 100 0 l 1xe0
 100 200 l 1
 200 200 l 1
 200 0 l 1xd0
 100 0 l 1
 100 -100 l 1
 0 -100 l 1xe0
EndSplineSet
Validated: 5
EndChar
StartChar: less
Encoding: 60 60 24
Width: 500
Flags: W
HStem: 0 100<300 400> 100 100<200 300> 200 100<100 200> 300 100<0 100> 400 100<100 200> 500 100<200 300> 600 100<300 400>
VStem: 0 100<300 400> 100 100<200 300 400 500> 200 100<100 200 500 600> 300 100<0 100 600 700>
LayerCount: 2
Fore
SplineSet
0 300 m 1x11
 0 400 l 1
 100 400 l 1x11
 100 300 l 1x21
 0 300 l 1x11
100 400 m 1
 100 500 l 1
 200 500 l 1
 200 400 l 1x0880
 100 400 l 1
200 500 m 1
 200 600 l 1
 300 600 l 1
 300 500 l 1x0440
 200 500 l 1
300 600 m 1
 300 700 l 1
 400 700 l 1
 400 600 l 1x0220
 300 600 l 1
100 300 m 1x21
 200 300 l 1x2080
 200 200 l 1x4080
 100 200 l 1x2080
 100 300 l 1x21
200 200 m 1x4080
 300 200 l 1x4040
 300 100 l 1x8040
 200 100 l 1x4040
 200 200 l 1x4080
300 100 m 1x8040
 400 100 l 1
 400 0 l 1
 300 0 l 1x8020
 300 100 l 1x8040
EndSplineSet
Validated: 5
EndChar
StartChar: equal
Encoding: 61 61 25
Width: 500
Flags: W
HStem: 200 100<0 400> 400 100<0 400>
LayerCount: 2
Fore
SplineSet
0 200 m 1
 0 300 l 1
 400 300 l 1
 400 200 l 1
 0 200 l 1
0 400 m 1
 0 500 l 1
 400 500 l 1
 400 400 l 1
 0 400 l 1
EndSplineSet
Validated: 1
EndChar
StartChar: greater
Encoding: 62 62 26
Width: 500
Flags: W
HStem: 0 100<0 100> 100 100<100 200> 200 100<200 300> 400 100<200 300> 500 100<100 200> 600 100<0 100>
VStem: 0 100<0 100 600 700> 100 100<100 200 500 600> 200 100<200 300 400 500> 300 100<300 400>
LayerCount: 2
Fore
SplineSet
0 600 m 1x06
 0 700 l 1
 100 700 l 1x06
 100 600 l 1x0a
 0 600 l 1x06
0 0 m 1x82
 0 100 l 1
 100 100 l 1x82
 100 200 l 1
 200 200 l 1x41
 200 300 l 1
 300 300 l 1
 300 400 l 1
 200 400 l 1x3080
 200 500 l 1x31
 100 500 l 1x09
 100 600 l 1x0a
 200 600 l 1x09
 200 500 l 1x11
 300 500 l 1
 300 400 l 1x1080
 400 400 l 1
 400 300 l 1x3040
 300 300 l 1
 300 200 l 1x3080
 200 200 l 1
 200 100 l 1x41
 100 100 l 1
 100 0 l 1
 0 0 l 1x82
EndSplineSet
Validated: 5
EndChar
StartChar: question
Encoding: 63 63 27
Width: 500
Flags: W
HStem: 0 100<100 200> 200 100<100 200> 300 100<200 300> 600 100<100 300>
VStem: 100 100<0 100 200 300> 200 100<300 400> 300 100<400 600>
LayerCount: 2
Fore
SplineSet
100 600 m 1x9a
 100 700 l 1
 300 700 l 1
 300 600 l 1
 100 600 l 1x9a
100 200 m 1xd8
 100 300 l 1
 200 300 l 1xd8
 200 400 l 1
 300 400 l 1xb4
 300 600 l 1
 400 600 l 1
 400 400 l 1xb2
 300 400 l 1
 300 300 l 1xb4
 200 300 l 1
 200 200 l 1
 100 200 l 1xd8
100 0 m 1
 100 100 l 1
 200 100 l 1
 200 0 l 1
 100 0 l 1
EndSplineSet
Validated: 5
EndChar
StartChar: at
Encoding: 64 64 28
Width: 900
Flags: W
HStem: -100 100<200 600> 0 100<100 200 600 700> 100 100<300 500> 300 100<300 400> 480 20G<0 100 400 500 700 800> 500 100<100 200 600 700> 600 100<200 300 400 600>
VStem: 0 100<100 500> 100 100<0 100 500 600> 200 100<200 300> 300 100<500 600> 500 100<200 300> 600 100<0 100 500 600> 700 100<100 500>
LayerCount: 2
Fore
SplineSet
0 100 m 1x31
 0 500 l 1
 100 500 l 1
 100 100 l 1x59
 200 100 l 1x5880
 200 0 l 1x9080
 100 0 l 1x5080
 100 100 l 1x51
 0 100 l 1x31
100 500 m 1
 100 600 l 1
 200 600 l 1
 200 500 l 1x1480
 100 500 l 1
200 600 m 1
 200 700 l 1
 600 700 l 1x1248
 600 600 l 1x1448
 400 600 l 1
 400 500 l 1x1a28
 300 500 l 1x1428
 300 600 l 1x1228
 200 600 l 1
600 600 m 1x1408
 700 600 l 1x1408
 700 500 l 1x1808
 600 500 l 1
 600 600 l 1x1408
700 500 m 1x5808
 800 500 l 1
 800 100 l 1x3804
 700 100 l 1
 700 500 l 1x5808
700 100 m 1x5008
 700 0 l 1x5008
 600 0 l 1x9008
 600 100 l 1
 700 100 l 1x5008
600 0 m 1x9088
 600 -100 l 1
 200 -100 l 1x9048
 200 0 l 1
 600 0 l 1x9088
400 500 m 1x3820
 500 500 l 1
 500 400 l 1x3830
 600 400 l 1
 600 100 l 1
 200 100 l 1x5888
 200 300 l 1
 300 300 l 1
 300 200 l 1
 500 200 l 1
 500 300 l 1
 300 300 l 1x3050
 300 400 l 1
 400 400 l 1
 400 500 l 1x3820
EndSplineSet
Validated: 5
EndChar
StartChar: C
Encoding: 67 67 31
Width: 700
VWidth: 1600
Flags: W
HStem: -100 100<300 600> 0 100<200 300> 480 20G<100 200> 500 100<200 300> 600 100<300 600>
VStem: 100 100<100 500> 200 100<0 100 500 600> 300 300<-100 0 600 700>
AnchorPoint: "ogonek" 450 -100 basechar 0
AnchorPoint: "top-even" 350 800 basechar 0
AnchorPoint: "bottom-adjoined" 450 -100 basechar 0
AnchorPoint: "bottom" 450 -200 basechar 0
AnchorPoint: "top" 450 800 basechar 0
LayerCount: 2
Fore
SplineSet
300 700 m 1x09
 600 700 l 1
 600 600 l 1x09
 300 600 l 1x12
 300 700 l 1x09
300 600 m 1x12
 300 500 l 1x12
 200 500 l 1x24
 200 600 l 1
 300 600 l 1x12
200 500 m 1x64
 200 100 l 1
 100 100 l 1
 100 500 l 5
 200 500 l 1x64
200 100 m 1
 300 100 l 1x42
 300 0 l 1x82
 200 0 l 1x42
 200 100 l 1
300 0 m 1x82
 600 0 l 1
 600 -100 l 1
 300 -100 l 1x81
 300 0 l 1x82
EndSplineSet
Validated: 5
EndChar
StartChar: D
Encoding: 68 68 32
Width: 800
VWidth: 1600
Flags: W
HStem: -100 100<200 500> 0 100<500 600> 500 100<500 600> 600 100<200 500>
VStem: 100 100<0 600> 500 100<0 100 500 600> 600 100<100 500>
AnchorPoint: "ogonek" 350 -100 basechar 0
AnchorPoint: "top-even" 250 800 basechar 0
AnchorPoint: "bottom-adjoined" 350 -100 basechar 0
AnchorPoint: "top" 350 800 basechar 0
AnchorPoint: "bottom" 350 -200 basechar 0
LayerCount: 2
Fore
SplineSet
500 -100 m 1x8c
 100 -100 l 1
 100 700 l 1
 500 700 l 1x9c
 500 600 l 1
 600 600 l 1
 600 500 l 1x2c
 700 500 l 5
 700 100 l 1x6a
 600 100 l 1
 600 0 l 1x6c
 500 0 l 1
 500 -100 l 1x8c
500 600 m 1x6c
 200 600 l 1
 200 0 l 1
 500 0 l 1x9c
 500 100 l 1
 600 100 l 1
 600 500 l 1
 500 500 l 1
 500 600 l 1x6c
EndSplineSet
Validated: 5
EndChar
StartChar: G
Encoding: 71 71 35
Width: 800
VWidth: 1600
Flags: W
HStem: -100 100<300 600> 0 100<200 300> 500 100<200 300> 600 100<300 600>
VStem: 100 100<100 500> 200 100<0 100 500 600> 300 300<-100 0 600 700> 600 100<0 300>
AnchorPoint: "ogonek" 450 -100 basechar 0
AnchorPoint: "top-even" 350 800 basechar 0
AnchorPoint: "bottom-adjoined" 450 -100 basechar 0
AnchorPoint: "top" 450 800 basechar 0
AnchorPoint: "bottom" 450 -200 basechar 0
LayerCount: 2
Fore
SplineSet
300 700 m 1x12
 600 700 l 1
 600 600 l 1x12
 300 600 l 1x24
 300 700 l 1x12
600 -100 m 1x82
 300 -100 l 1x82
 300 0 l 1x84
 200 0 l 1x44
 200 100 l 1
 100 100 l 5
 100 500 l 1
 200 500 l 1x68
 200 600 l 1
 300 600 l 1
 300 500 l 1x64
 200 500 l 1
 200 100 l 1x68
 300 100 l 1x64
 300 0 l 1x84
 600 0 l 1
 600 -100 l 1x82
600 0 m 1
 600 300 l 1
 700 300 l 1
 700 0 l 1x41
 600 0 l 1
EndSplineSet
Validated: 5
EndChar
StartChar: I
Encoding: 73 73 37
Width: 400
VWidth: 1600
Flags: W
HStem: -100 21G<100 200> 680 20G<100 200>
VStem: 100 100<-100 700>
AnchorPoint: "ogonek" 50 -100 basechar 0
AnchorPoint: "top" 150 800 basechar 0
AnchorPoint: "bottom" 150 -200 basechar 0
AnchorPoint: "bottom-adjoined" 150 -100 basechar 0
LayerCount: 2
Fore
SplineSet
100 -100 m 1
 100 167 100 433 100 700 c 1
 200 700 l 1
 200 433 200 167 200 -100 c 1
 100 -100 l 1
EndSplineSet
Validated: 1
EndChar
StartChar: J
Encoding: 74 74 38
Width: 400
VWidth: 1600
Flags: W
HStem: -200 100<0 200> -100 21G<200 300> 680 20G<200 300>
VStem: 200 100<-100 700>
AnchorPoint: "ogonek" 150 -200 basechar 0
AnchorPoint: "bottom-adjoined" 150 -200 basechar 0
AnchorPoint: "bottom" 150 -300 basechar 0
AnchorPoint: "top" 250 800 basechar 0
LayerCount: 2
Fore
SplineSet
200 -100 m 1xb0
 200 700 l 1
 300 700 l 1
 300 -100 l 1x70
 200 -100 l 1xb0
200 -100 m 1xb0
 200 -200 l 1
 133 -200 67 -200 0 -200 c 1
 0 -100 l 1
 67 -100 133 -100 200 -100 c 1xb0
EndSplineSet
Validated: 5
EndChar
StartChar: M
Encoding: 77 77 41
Width: 1000
VWidth: 1600
Flags: W
HStem: -100 21G<100 200 800 900> 0 200<400 600> 200 200<300 400 600 700> 400 200<200 300 700 800> 680 20G<100 200 800 900>
VStem: 100 200<400 600> 100 100<-100 400 600 700> 300 100<200 400> 400 200<0 200> 600 100<200 400> 700 200<400 600> 800 100<-100 400 600 700>
AnchorPoint: "ogonek" 450 -100 basechar 0
AnchorPoint: "bottom-adjoined" 450 -100 basechar 0
AnchorPoint: "bottom" 450 -200 basechar 0
AnchorPoint: "top-even" 450 800 basechar 0
AnchorPoint: "top" 550 800 basechar 0
LayerCount: 2
Fore
SplineSet
100 -100 m 1x9a
 100 167 100 433 100 700 c 1
 200 700 l 1
 200 600 l 1x9a
 300 600 l 1x9c
 300 533 300 467 300 400 c 1xac
 200 400 l 1
 200 -100 l 1
 100 -100 l 1x9a
800 -100 m 1x9810
 800 400 l 1x9810
 700 400 l 1xa850
 700 467 700 533 700 600 c 1x9820
 800 600 l 1
 800 700 l 1
 900 700 l 1
 900 433 900 167 900 -100 c 1
 800 -100 l 1x9810
300 400 m 1xac
 400 400 l 1xa9
 400 333 400 267 400 200 c 1xc9
 300 200 l 1xa9
 300 267 300 333 300 400 c 1xac
400 200 m 1xc9
 467 200 533 200 600 200 c 1xc880
 600 267 600 333 600 400 c 1
 700 400 l 1
 700 333 700 267 700 200 c 1xa840
 600 200 l 1
 600 133 600 67 600 0 c 1
 533 0 467 0 400 0 c 1xc880
 400 67 400 133 400 200 c 1xc9
EndSplineSet
Validated: 5
EndChar
StartChar: O
Encoding: 79 79 43
Width: 900
VWidth: 1600
Flags: W
HStem: -100 100<300 600> 0 100<200 300 600 700> 480 20G<100 200 700 800> 500 100<200 300 600 700> 600 100<300 600>
VStem: 100 100<100 500> 200 100<0 100 500 600> 300 300<-100 0 600 700> 600 100<0 100 500 600> 700 100<100 500>
AnchorPoint: "top" 450 800 basechar 0
AnchorPoint: "ogonek" 450 -100 basechar 0
AnchorPoint: "bottom-adjoined" 450 -100 basechar 0
AnchorPoint: "bottom" 450 -200 basechar 0
AnchorPoint: "top-even" 450 800 basechar 0
LayerCount: 2
Fore
SplineSet
300 600 m 5x12
 300 700 l 5
 600 700 l 5x09
 600 600 l 5x11
 300 600 l 5x12
300 600 m 5x12
 300 500 l 5x12
 200 500 l 5x24
 200 600 l 5
 300 600 l 5x12
600 600 m 5x11
 700 600 l 5x1080
 700 500 l 5x2080
 600 500 l 5x1080
 600 600 l 5x11
200 500 m 5x64
 200 367 200 233 200 100 c 5
 100 100 l 5
 100 233 100 367 100 500 c 5
 200 500 l 5x64
700 500 m 5x6080
 800 500 l 5
 800 367 800 233 800 100 c 5x6040
 700 100 l 5
 700 233 700 367 700 500 c 5x6080
200 100 m 5x44
 300 100 l 5x42
 300 0 l 5x82
 200 0 l 5x42
 200 100 l 5x44
700 100 m 5x4080
 700 0 l 5x4080
 600 0 l 5x81
 600 100 l 5
 700 100 l 5x4080
600 0 m 5x81
 600 -100 l 5
 300 -100 l 5x81
 300 0 l 5x82
 600 0 l 5x81
EndSplineSet
Validated: 5
EndChar
StartChar: P
Encoding: 80 80 44
Width: 700
VWidth: 1600
Flags: W
HStem: -100 21G<100 200> 200 100<200 500> 600 100<200 500>
VStem: 100 100<-100 200 300 600> 500 100<300 600>
AnchorPoint: "ogonek" 50 -100 basechar 0
AnchorPoint: "bottom-adjoined" 150 -100 basechar 0
AnchorPoint: "bottom" 150 -200 basechar 0
AnchorPoint: "top" 350 800 basechar 0
LayerCount: 2
Fore
SplineSet
100 -100 m 1
 100 167 100 433 100 700 c 1
 233 700 367 700 500 700 c 1
 500 600 l 1
 200 600 l 1
 200 300 l 1
 500 300 l 1
 500 200 l 1
 200 200 l 1
 200 -100 l 1
 100 -100 l 1
500 300 m 1
 500 600 l 1
 600 600 l 1
 600 300 l 1
 500 300 l 1
EndSplineSet
Validated: 5
EndChar
StartChar: R
Encoding: 82 82 46
Width: 600
VWidth: 1600
Flags: W
HStem: -100 100<500 600> 0 100<400 500> 200 100<200 300> 600 100<200 400>
VStem: 100 100<-100 200 300 600> 300 100<100 200> 400 100<0 100 300 600> 500 100<-100 0>
AnchorPoint: "bottom" 350 -200 basechar 0
AnchorPoint: "bottom-adjoined" 350 -100 basechar 0
AnchorPoint: "ogonek" 350 -100 basechar 0
AnchorPoint: "top" 250 800 basechar 0
LayerCount: 2
Fore
SplineSet
200 200 m 1x7c
 200 -100 l 1
 100 -100 l 1
 100 700 l 1
 400 700 l 1
 400 600 l 1
 500 600 l 1
 500 300 l 1
 400 300 l 1xba
 400 100 l 1x7c
 500 100 l 1x7a
 500 0 l 1xba
 600 0 l 1
 600 -100 l 1
 500 -100 l 1xb9
 500 0 l 1xba
 400 0 l 1x7a
 400 100 l 1
 300 100 l 9
 300 200 l 25
 200 200 l 1x7c
400 300 m 1
 400 600 l 1
 200 600 l 1
 200 300 l 1
 400 300 l 1
EndSplineSet
Validated: 5
EndChar
StartChar: S
Encoding: 83 83 47
Width: 600
VWidth: 1600
Flags: W
HStem: -100 100<100 400> 200 100<300 400> 300 100<200 300> 600 100<200 500>
VStem: 100 100<400 600> 200 100<300 400> 300 100<200 300> 400 100<0 200>
AnchorPoint: "top-even" 250 800 basechar 0
AnchorPoint: "top" 350 800 basechar 0
AnchorPoint: "bottom" 250 -200 basechar 0
AnchorPoint: "bottom-adjoined" 250 -100 basechar 0
AnchorPoint: "ogonek" 250 -100 basechar 0
LayerCount: 2
Fore
SplineSet
200 700 m 1x94
 500 700 l 1
 500 600 l 1
 200 600 l 1x99
 200 700 l 1x94
200 600 m 1
 200 533 200 467 200 400 c 1
 100 400 l 1xb8
 100 467 100 533 100 600 c 1
 200 600 l 1
200 400 m 1
 300 400 l 1xb4
 300 300 l 1xd4
 200 300 l 1xb4
 200 400 l 1
300 300 m 1xd4
 400 300 l 1
 400 200 l 1
 300 200 l 1xd2
 300 300 l 1xd4
400 200 m 1
 500 200 l 1
 500 133 500 67 500 0 c 1
 400 0 l 1xd1
 400 67 400 133 400 200 c 1
400 0 m 1
 400 -100 l 1
 100 -100 l 1
 100 0 l 1x99
 400 0 l 1
EndSplineSet
Validated: 5
EndChar
StartChar: T
Encoding: 84 84 48
Width: 700
VWidth: 1600
Flags: W
HStem: -100 21G<300 400> 600 100<0 300 400 700>
VStem: 300 100<-100 600>
AnchorPoint: "bottom" 350 -200 basechar 0
AnchorPoint: "bottom-adjoined" 350 -100 basechar 0
AnchorPoint: "ogonek" 250 -100 basechar 0
AnchorPoint: "top" 350 800 basechar 0
LayerCount: 2
Fore
SplineSet
300 -100 m 1
 300 600 l 1
 0 600 l 1
 0 700 l 1
 700 700 l 1
 700 600 l 1
 400 600 l 1
 400 -100 l 1
 300 -100 l 1
EndSplineSet
Validated: 1
EndChar
StartChar: U
Encoding: 85 85 49
Width: 900
VWidth: 1600
Flags: W
HStem: -100 100<300 600> 0 100<200 300 600 700> 680 20G<100 200 700 800>
VStem: 100 100<100 700> 200 100<0 100> 600 100<0 100> 700 100<100 700>
AnchorPoint: "bottom" 450 -200 basechar 0
AnchorPoint: "ogonek" 450 -100 basechar 0
AnchorPoint: "bottom-adjoined" 450 -100 basechar 0
AnchorPoint: "top" 450 800 basechar 0
LayerCount: 2
Fore
SplineSet
200 100 m 1x70
 100 100 l 1
 100 300 100 500 100 700 c 1
 200 700 l 1
 200 500 200 300 200 100 c 1x70
200 100 m 1
 300 100 l 1x68
 300 0 l 1xa8
 200 0 l 1x68
 200 100 l 1
700 100 m 1x64
 700 300 700 500 700 700 c 1
 800 700 l 1
 800 500 800 300 800 100 c 1x62
 700 100 l 1x64
700 100 m 1x64
 700 0 l 1x64
 600 0 l 1xa4
 600 100 l 1
 700 100 l 1x64
600 0 m 1xac
 600 -100 l 1
 300 -100 l 1
 300 0 l 1
 600 0 l 1xac
EndSplineSet
Validated: 5
EndChar
StartChar: V
Encoding: 86 86 50
Width: 700
VWidth: 1600
Flags: W
HStem: -100 21G<300 400> 100 200<200 300 400 500> 300 200<100 200 500 600> 500 200<0 100 600 700>
VStem: 0 100<500 700> 100 100<300 500> 200 100<100 300> 300 100<-100 100> 400 100<100 300> 500 100<300 500> 600 100<500 700>
AnchorPoint: "bottom" 350 -200 basechar 0
AnchorPoint: "bottom-adjoined" 350 -100 basechar 0
AnchorPoint: "ogonek" 350 -100 basechar 0
AnchorPoint: "top" 350 800 basechar 0
LayerCount: 2
Fore
SplineSet
0 500 m 1x98
 0 700 l 1
 100 700 l 1x98
 100 500 l 1xa8
 0 500 l 1x98
100 500 m 1xa8
 200 500 l 1xa4
 200 300 l 1xc4
 100 300 l 1xa4
 100 500 l 1xa8
200 300 m 1xc4
 300 300 l 1
 300 100 l 1
 200 100 l 1xc2
 200 300 l 1xc4
300 100 m 1
 400 100 l 1
 400 -100 l 1
 300 -100 l 1xc1
 300 100 l 1
400 100 m 1
 400 300 l 1
 500 300 l 1
 500 100 l 1xc080
 400 100 l 1
500 300 m 1
 500 500 l 1
 600 500 l 1
 600 300 l 1xa040
 500 300 l 1
600 500 m 1
 600 700 l 1
 700 700 l 1
 700 500 l 1x9020
 600 500 l 1
EndSplineSet
Validated: 5
EndChar
StartChar: W
Encoding: 87 87 51
Width: 1100
VWidth: 1600
Flags: W
HStem: -100 200<300 400 700 800> 100 300<200 300 800 900> 100 200<400 500 600 700> 400 300<100 200 900 1000>
VStem: 100 100<400 700> 200 100<100 400> 300 100<-100 100> 400 100<100 300> 600 100<100 300> 700 100<-100 100> 800 100<100 400> 900 100<400 700>
AnchorPoint: "bottom" 550 -200 basechar 0
AnchorPoint: "bottom-adjoined" 550 -100 basechar 0
AnchorPoint: "ogonek" 550 -100 basechar 0
AnchorPoint: "top" 550 800 basechar 0
LayerCount: 2
Fore
SplineSet
600 300 m 1x2180
 600 367 600 533 600 600 c 1
 500 600 l 1
 500 533 500 367 500 300 c 1
 600 300 l 1x2180
200 400 m 1x48
 100 400 l 1
 100 700 l 1
 200 700 l 1x18
 200 400 l 1x48
200 400 m 1x48
 233 400 267 400 300 400 c 1x44
 300 100 l 1x84
 200 100 l 1x44
 200 400 l 1x48
900 400 m 1x4020
 900 700 l 1
 1000 700 l 1
 1000 400 l 1x1010
 900 400 l 1x4020
900 400 m 1x4020
 900 100 l 1x4020
 800 100 l 1x8040
 800 400 l 1
 900 400 l 1x4020
400 100 m 1x82
 400 167 400 233 400 300 c 1
 500 300 l 1
 500 233 500 167 500 100 c 1x21
 400 100 l 1x82
400 100 m 1x82
 400 33 400 -33 400 -100 c 1
 300 -100 l 1x82
 300 -33 300 33 300 100 c 1x84
 400 100 l 1x82
800 100 m 1x8040
 800 33 800 -33 800 -100 c 1
 700 -100 l 1x8040
 700 -33 700 33 700 100 c 1x8080
 600 100 l 1
 600 167 600 233 600 300 c 1
 700 300 l 1x2080
 700 233 700 167 700 100 c 1x8080
 800 100 l 1x8040
600 300 m 1x2180
 600 367 600 533 600 600 c 1
 500 600 l 1
 500 533 500 367 500 300 c 1
 600 300 l 1x2180
EndSplineSet
Validated: 5
EndChar
StartChar: X
Encoding: 88 88 52
Width: 700
VWidth: 1600
Flags: W
HStem: -100 100<0 100 600 700> 0 100<100 200 500 600> 100 100<200 300 400 500> 400 100<200 300 400 500> 500 100<100 200 500 600> 600 100<0 100 600 700>
VStem: 0 100<-100 0 600 700> 100 100<0 100 500 600> 200 100<100 200 400 500> 300 100<200 400> 400 100<100 200 400 500> 500 100<0 100 500 600> 600 100<-100 0 600 700>
AnchorPoint: "bottom-adjoined" 350 -100 basechar 0
AnchorPoint: "ogonek" 350 -100 basechar 0
AnchorPoint: "bottom" 350 -200 basechar 0
AnchorPoint: "top" 350 800 basechar 0
LayerCount: 2
Fore
SplineSet
0 -100 m 1x82
 0 0 l 1
 100 0 l 1x82
 100 100 l 1
 200 100 l 1x41
 200 200 l 1
 300 200 l 1
 300 267 300 333 300 400 c 1
 200 400 l 1x3080
 200 500 l 1x31
 100 500 l 1x09
 100 600 l 1x0a
 0 600 l 1
 0 700 l 1
 100 700 l 1x06
 100 600 l 1x0a
 200 600 l 1x09
 200 500 l 1x11
 300 500 l 1
 300 400 l 1x1080
 400 400 l 1x1040
 400 500 l 1
 500 500 l 1x1020
 500 600 l 1
 600 600 l 1x0810
 600 700 l 1
 700 700 l 1
 700 600 l 1x0408
 600 600 l 1
 600 500 l 1x0810
 500 500 l 1
 500 400 l 1x1020
 400 400 l 1
 400 333 400 267 400 200 c 1x3040
 300 200 l 1
 300 100 l 1x3080
 200 100 l 1
 200 0 l 1x41
 100 0 l 1
 100 -100 l 1
 0 -100 l 1x82
400 200 m 1x2040
 500 200 l 1x2020
 500 100 l 1x4020
 400 100 l 1x2020
 400 200 l 1x2040
500 100 m 1x4020
 600 100 l 1x4010
 600 0 l 1x8010
 500 0 l 1x4010
 500 100 l 1x4020
600 0 m 1x8010
 700 0 l 1
 700 -100 l 1
 600 -100 l 1x8008
 600 0 l 1x8010
EndSplineSet
Validated: 5
EndChar
StartChar: bracketleft
Encoding: 91 91 85
Width: 300
Flags: W
HStem: -100 100<100 200> 600 100<100 200>
VStem: 0 200<-100 0 600 700> 0 100<0 600>
LayerCount: 2
Fore
SplineSet
0 700 m 1xe0
 200 700 l 1
 200 600 l 1xe0
 100 600 l 1
 100 0 l 1xd0
 200 0 l 1
 200 -100 l 1
 0 -100 l 1
 0 700 l 1xe0
EndSplineSet
Validated: 1
EndChar
StartChar: backslash
Encoding: 92 92 84
Width: 600
Flags: W
HStem: -200 21G<400 500>
VStem: 0 100<600 800> 100 100<400 600> 200 100<200 400> 300 100<0 200> 400 100<-200 0>
LayerCount: 2
Fore
SplineSet
0 600 m 1xc0
 0 800 l 1
 100 800 l 1
 100 600 l 1
 0 600 l 1xc0
100 600 m 1
 200 600 l 1
 200 400 l 1
 100 400 l 1xa0
 100 600 l 1
200 400 m 1
 300 400 l 1
 300 200 l 1
 200 200 l 1x90
 200 400 l 1
300 200 m 1
 400 200 l 1
 400 0 l 1
 300 0 l 1x88
 300 200 l 1
400 0 m 1
 500 0 l 1
 500 -200 l 1
 400 -200 l 1x84
 400 0 l 1
EndSplineSet
Validated: 5
EndChar
StartChar: bracketright
Encoding: 93 93 86
Width: 300
Flags: W
HStem: -100 100<0 100> 600 100<0 100>
VStem: 0 200<-100 0 600 700> 100 100<0 600>
LayerCount: 2
Fore
SplineSet
0 600 m 5xe0
 0 700 l 5
 200 700 l 5
 200 -100 l 1
 0 -100 l 1
 0 0 l 1xe0
 100 0 l 1
 100 600 l 5xd0
 0 600 l 5xe0
EndSplineSet
Validated: 1
EndChar
StartChar: asciicircum
Encoding: 94 94 55
Width: 600
VWidth: 1600
Flags: W
HStem: 500 100<0 100 400 500> 600 100<100 200 300 400> 700 100<200 300>
VStem: 0 100<500 600> 100 100<600 700> 200 100<700 800> 300 100<600 700> 400 100<500 600>
LayerCount: 2
Fore
SplineSet
0 500 m 1x90
 0 600 l 1
 100 600 l 1x90
 100 700 l 1
 200 700 l 1x48
 200 800 l 1
 300 800 l 1x24
 300 700 l 1x44
 200 700 l 1
 200 600 l 1x48
 100 600 l 1
 100 500 l 1
 0 500 l 1x90
300 700 m 1x44
 400 700 l 1x42
 400 600 l 1x82
 300 600 l 1x42
 300 700 l 1x44
400 600 m 1x82
 500 600 l 1
 500 500 l 1
 400 500 l 1x81
 400 600 l 1x82
EndSplineSet
Validated: 5
EndChar
StartChar: underscore
Encoding: 95 95 56
Width: 500
VWidth: 1600
Flags: W
HStem: -100 100
LayerCount: 2
Fore
SplineSet
400 0 m 1
 267 0 133 0 0 0 c 1
 0 -100 l 1
 133 -100 267 -100 400 -100 c 1
 400 0 l 1
EndSplineSet
Validated: 9
EndChar
StartChar: grave
Encoding: 96 96 57
Width: 400
VWidth: 1600
Flags: W
HStem: 500 100<200 300> 600 100<100 200> 700 100<0 100>
VStem: 0 100<700 800> 100 100<600 700> 200 100<500 600>
LayerCount: 2
Fore
SplineSet
100 700 m 1x50
 0 700 l 1
 0 800 l 1
 100 800 l 1x30
 100 700 l 1x50
100 700 m 1x50
 200 700 l 1x48
 200 600 l 1x88
 100 600 l 1x48
 100 700 l 1x50
200 600 m 1x88
 300 600 l 1
 300 500 l 1
 200 500 l 1x84
 200 600 l 1x88
EndSplineSet
Validated: 5
EndChar
StartChar: a
Encoding: 97 97 58
Width: 500
VWidth: 1600
Flags: W
HStem: 200 100<100 300> 400 100<100 300>
VStem: 0 100<0 200> 300 100<0 200 300 400>
AnchorPoint: "top-even" 150 600 basechar 0
AnchorPoint: "ogonek" 150 0 basechar 0
AnchorPoint: "bottom-adjoined" 150 0 basechar 0
AnchorPoint: "bottom" 250 -100 basechar 0
AnchorPoint: "top" 250 600 basechar 0
LayerCount: 2
Fore
SplineSet
400 0 m 1
 367 0 333 0 300 0 c 1
 300 67 300 133 300 200 c 1
 233 200 167 200 100 200 c 1
 100 233 100 267 100 300 c 1
 167 300 233 300 300 300 c 1
 300 400 l 1
 233 400 167 400 100 400 c 1
 100 500 l 1
 167 500 233 500 300 500 c 1
 300 467 300 433 300 400 c 1
 400 400 l 1
 400 267 400 133 400 0 c 1
100 200 m 1
 100 133 100 67 100 0 c 1
 67 0 33 0 0 0 c 1
 0 67 0 133 0 200 c 1
 100 200 l 1
EndSplineSet
Validated: 5
EndChar
StartChar: b
Encoding: 98 98 59
Width: 500
VWidth: 1600
Flags: W
HStem: 0 100<100 300> 400 100<100 300> 680 20G<0 100>
VStem: 0 100<100 400 500 700> 300 100<100 400>
AnchorPoint: "ogonek" 150 0 basechar 0
AnchorPoint: "bottom-adjoined" 250 0 basechar 0
AnchorPoint: "bottom" 250 -100 basechar 0
AnchorPoint: "top" 50 800 basechar 0
LayerCount: 2
Fore
SplineSet
300 400 m 1
 233 400 167 400 100 400 c 1
 100 100 l 1
 0 100 l 1
 0 300 0 500 0 700 c 1
 100 700 l 1
 100 633 100 567 100 500 c 1
 167 500 233 500 300 500 c 1
 300 400 l 1
300 400 m 1
 400 400 l 1
 400 100 l 1
 300 100 l 1
 300 400 l 1
300 100 m 1
 300 0 l 1
 233 0 167 0 100 0 c 1
 100 100 l 1
 167 100 233 100 300 100 c 1
EndSplineSet
Validated: 5
EndChar
StartChar: c
Encoding: 99 99 60
Width: 400
VWidth: 1600
Flags: W
HStem: 0 100<100 300> 400 100<100 300>
VStem: 0 100<100 400> 100 200<0 100 400 500>
AnchorPoint: "top" 150 600 basechar 0
AnchorPoint: "bottom" 150 -100 basechar 0
AnchorPoint: "bottom-adjoined" 150 0 basechar 0
AnchorPoint: "ogonek" 150 0 basechar 0
LayerCount: 2
Fore
SplineSet
100 500 m 1xd0
 167 500 233 500 300 500 c 1
 300 400 l 1xd0
 233 400 167 400 100 400 c 1xe0
 100 500 l 1xd0
100 400 m 1xe0
 100 100 l 1
 0 100 l 1
 0 400 l 1
 100 400 l 1xe0
100 100 m 1
 167 100 233 100 300 100 c 1
 300 0 l 1
 233 0 167 0 100 0 c 1xd0
 100 100 l 1
EndSplineSet
Validated: 5
EndChar
StartChar: d
Encoding: 100 100 61
Width: 500
VWidth: 1600
Flags: W
HStem: 0 100<100 300> 400 100<100 300> 680 20G<300 400>
VStem: 0 100<100 400> 100 300<0 100 400 500> 300 100<100 400 500 700>
AnchorPoint: "caron-alt" 550 600 basechar 0
AnchorPoint: "ogonek" 150 0 basechar 0
AnchorPoint: "bottom-adjoined" 250 0 basechar 0
AnchorPoint: "bottom" 250 -100 basechar 0
AnchorPoint: "top" 350 800 basechar 0
LayerCount: 2
Fore
SplineSet
100 100 m 1xf4
 167 100 233 100 300 100 c 1
 300 400 l 1
 233 400 167 400 100 400 c 1
 100 100 l 1xf4
100 100 m 1
 0 100 l 1
 0 400 l 1
 100 400 l 1xf0
 100 500 l 1xe8
 167 500 233 500 300 500 c 1
 300 567 300 633 300 700 c 1
 400 700 l 1xe4
 400 0 l 1
 300 0 200 0 100 0 c 1xe8
 100 100 l 1
EndSplineSet
Validated: 5
EndChar
StartChar: f
Encoding: 102 102 63
Width: 400
VWidth: 1600
Flags: W
HStem: -200 21G<0 100> 300 100<100 300> 600 100<100 300>
VStem: 0 100<-200 300 400 600>
AnchorPoint: "ogonek" -50 -200 basechar 0
AnchorPoint: "bottom-adjoined" 50 -200 basechar 0
AnchorPoint: "bottom" 50 -300 basechar 0
AnchorPoint: "top" 150 800 basechar 0
LayerCount: 2
Fore
SplineSet
100 700 m 1
 167 700 233 700 300 700 c 1
 300 600 l 1
 233 600 167 600 100 600 c 1
 100 700 l 1
0 -200 m 1
 0 600 l 1
 100 600 l 1
 100 400 l 1
 167 400 233 400 300 400 c 1
 300 300 l 1
 233 300 167 300 100 300 c 1
 100 167 100 -67 100 -200 c 1
 0 -200 l 1
EndSplineSet
Validated: 5
EndChar
StartChar: g
Encoding: 103 103 64
Width: 500
VWidth: 1600
Flags: W
HStem: -200 100<100 300>
AnchorPoint: "ogonek" 150 -200 basechar 0
AnchorPoint: "bottom-adjoined" 250 -200 basechar 0
AnchorPoint: "bottom" 250 -300 basechar 0
AnchorPoint: "top-even" 150 600 basechar 0
AnchorPoint: "top" 250 600 basechar 0
LayerCount: 2
Fore
SplineSet
400 400 m 1
 400 500 l 1
 100 500 l 1
 100 400 l 1
 200 400 300 400 400 400 c 1
300 -100 m 1
 300 -200 l 1
 233 -200 167 -200 100 -200 c 1
 100 -100 l 1
 167 -100 233 -100 300 -100 c 1
300 -100 m 1
 400 -100 l 1
 400 300 l 1
 300 300 l 1
 300 100 l 1
 233 100 167 100 100 100 c 1
 100 400 l 1
 0 400 l 1
 0 300 0 200 0 100 c 1
 100 100 l 1
 100 0 l 1
 167 0 233 0 300 0 c 1
 300 -100 l 1
EndSplineSet
Validated: 5
EndChar
StartChar: h
Encoding: 104 104 65
Width: 500
VWidth: 1600
Flags: W
HStem: 400 100<100 300> 680 20G<0 100>
VStem: 0 100<0 400 500 700> 300 100<0 400>
AnchorPoint: "ogonek" 150 0 basechar 0
AnchorPoint: "bottom-adjoined" 250 0 basechar 0
AnchorPoint: "bottom" 250 -100 basechar 0
AnchorPoint: "top" 50 800 basechar 0
LayerCount: 2
Fore
SplineSet
0 0 m 1
 0 700 l 1
 100 700 l 1
 100 633 100 567 100 500 c 1
 167 500 233 500 300 500 c 1
 300 400 l 1
 233 400 167 400 100 400 c 1
 100 267 100 133 100 0 c 1
 0 0 l 1
300 400 m 1
 400 400 l 1
 400 267 400 133 400 0 c 1
 300 0 l 1
 300 133 300 267 300 400 c 1
EndSplineSet
Validated: 5
EndChar
StartChar: i
Encoding: 105 105 66
Width: 300
VWidth: 1600
Flags: W
HStem: 400 100<0 100> 600 100<100 200>
VStem: 100 100<0 400 600 700>
AnchorPoint: "ogonek" 50 0 basechar 0
AnchorPoint: "bottom-adjoined" 150 0 basechar 0
AnchorPoint: "bottom" 150 -100 basechar 0
AnchorPoint: "top" 150 800 basechar 0
LayerCount: 2
Fore
SplineSet
100 600 m 1
 100 700 l 1
 200 700 l 1
 200 600 l 1
 100 600 l 1
0 400 m 1
 0 500 l 1
 67 500 133 500 200 500 c 1
 200 0 l 1
 100 0 l 1
 100 400 l 1
 0 400 l 1
EndSplineSet
Validated: 1
EndChar
StartChar: j
Encoding: 106 106 67
Width: 200
VWidth: 1600
Flags: W
HStem: -200 100<-100 0> 480 20G<0 100> 600 100<0 100>
VStem: -100 100<-200 -100> 0 100<-100 500 600 700>
AnchorPoint: "ogonek" -50 -100 basechar 0
AnchorPoint: "bottom-adjoined" -50 -200 basechar 0
AnchorPoint: "bottom" -50 -300 basechar 0
AnchorPoint: "top" 50 800 basechar 0
LayerCount: 2
Fore
SplineSet
0 600 m 1xe8
 0 700 l 1
 100 700 l 1
 100 600 l 1
 0 600 l 1xe8
-100 -200 m 1xf0
 -100 -100 l 1
 0 -100 l 1xf0
 0 67 0 333 0 500 c 1
 100 500 l 1
 100 300 100 100 100 -100 c 1xe8
 0 -100 l 1
 0 -200 l 1
 -100 -200 l 1xf0
EndSplineSet
Validated: 5
EndChar
StartChar: k
Encoding: 107 107 68
Width: 500
VWidth: 1600
Flags: W
HStem: 0 100<300 400> 100 100<200 300> 200 100<100 200> 300 100<200 300> 400 100<300 400> 680 20G<0 100>
VStem: 0 100<0 200 300 700> 200 100<100 200 300 400> 300 100<0 100 400 500>
AnchorPoint: "top-even" 150 800 basechar 0
AnchorPoint: "ogonek" 150 0 basechar 0
AnchorPoint: "bottom-adjoined" 150 0 basechar 0
AnchorPoint: "bottom" 150 -100 basechar 0
AnchorPoint: "top" 150 800 basechar 0
LayerCount: 2
Fore
SplineSet
0 0 m 1xa7
 0 700 l 1
 100 700 l 1
 100 567 100 433 100 300 c 1
 200 300 l 1xa7
 200 400 l 1
 300 400 l 1x17
 300 500 l 1
 400 500 l 1
 400 400 l 1x0e80
 300 400 l 1
 300 300 l 1x17
 200 300 l 1x27
 200 200 l 1x47
 100 200 l 1
 100 133 100 67 100 0 c 1
 0 0 l 1xa7
200 200 m 1x47
 300 200 l 1x47
 300 100 l 1x87
 200 100 l 1
 200 200 l 1x47
300 100 m 1x87
 400 100 l 1
 400 0 l 1
 300 0 l 1x8680
 300 100 l 1x87
EndSplineSet
Validated: 5
EndChar
StartChar: l
Encoding: 108 108 69
Width: 200
VWidth: 1600
Flags: W
HStem: 680 20G<0 100>
VStem: -0 100<0 700>
AnchorPoint: "caron-alt" 250 600 basechar 0
AnchorPoint: "ogonek" 50 0 basechar 0
AnchorPoint: "bottom-adjoined" 50 0 basechar 0
AnchorPoint: "bottom" 50 -100 basechar 0
AnchorPoint: "top" 50 800 basechar 0
LayerCount: 2
Back
SplineSet
0 100 m 1
 0 700 l 1
 100 700 l 1025
200 100 m 1
 200 0 l 1
 100 0 l 1025
EndSplineSet
Fore
SplineSet
100 700 m 1
 100 0 l 1
 -0 0 l 1
 0 700 l 1
 100 700 l 1
EndSplineSet
Validated: 1
EndChar
StartChar: m
Encoding: 109 109 70
Width: 600
VWidth: 1600
Flags: W
HStem: 480 20G<0 100 200 300 400 500>
VStem: 0 100<0 500> 200 100<200 500> 400 100<0 500>
CounterMasks: 1 70
AnchorPoint: "ogonek" 250 0 basechar 0
AnchorPoint: "bottom-adjoined" 250 0 basechar 0
AnchorPoint: "bottom" 250 -100 basechar 0
AnchorPoint: "top" 250 600 basechar 0
LayerCount: 2
Fore
SplineSet
200 200 m 1
 200 500 l 1
 300 500 l 1
 300 200 l 1
 200 200 l 1
0 0 m 1
 0 500 l 1
 100 500 l 1
 100 0 l 1
 0 0 l 1
400 0 m 1
 400 500 l 1
 500 500 l 1
 500 0 l 1
 400 0 l 1
EndSplineSet
Validated: 1
EndChar
StartChar: n
Encoding: 110 110 71
Width: 500
VWidth: 1600
Flags: W
HStem: 400 100<100 300>
VStem: 0 100<0 400> 300 100<0 400>
AnchorPoint: "ogonek" 150 0 basechar 0
AnchorPoint: "bottom-adjoined" 250 0 basechar 0
AnchorPoint: "bottom" 250 -100 basechar 0
AnchorPoint: "top-even" 150 600 basechar 0
AnchorPoint: "top" 250 600 basechar 0
LayerCount: 2
Fore
SplineSet
0 0 m 1
 0 500 l 1
 300 500 l 1
 300 400 l 1
 233 400 167 400 100 400 c 1
 100 267 100 133 100 0 c 1
 0 0 l 1
300 400 m 1
 400 400 l 1
 400 267 400 133 400 0 c 1
 300 0 l 1
 300 133 300 267 300 400 c 1
EndSplineSet
Validated: 5
EndChar
StartChar: p
Encoding: 112 112 73
Width: 500
VWidth: 1600
Flags: W
HStem: 400 100<0 300>
VStem: 300 100<100 400>
AnchorPoint: "ogonek" -50 -200 basechar 0
AnchorPoint: "bottom-adjoined" 50 -200 basechar 0
AnchorPoint: "bottom" 50 -300 basechar 0
AnchorPoint: "top" 150 600 basechar 0
LayerCount: 2
Fore
SplineSet
0 400 m 1
 0 500 l 1
 300 500 l 1
 300 400 l 1
 200 400 100 400 0 400 c 1
0 300 m 1
 0 -200 l 1
 100 -200 l 1
 100 0 l 1
 167 0 233 0 300 0 c 1
 300 100 l 1
 233 100 167 100 100 100 c 1
 100 300 l 1
 0 300 l 1
300 400 m 1
 400 400 l 1
 400 100 l 1
 300 100 l 1
 300 400 l 1
EndSplineSet
Validated: 5
EndChar
StartChar: q
Encoding: 113 113 74
Width: 500
VWidth: 1600
Flags: W
HStem: -200 21G<300 400> 0 100<100 200> 100 100<200 300> 400 100<100 300>
VStem: 0 100<100 400> 100 100<0 100> 300 100<-200 100 200 400>
AnchorPoint: "ogonek" 250 -200 basechar 0
AnchorPoint: "bottom-adjoined" 350 -200 basechar 0
AnchorPoint: "bottom" 350 -300 basechar 0
AnchorPoint: "top" 250 600 basechar 0
LayerCount: 2
Fore
SplineSet
300 -200 m 1xb6
 300 -100 300 0 300 100 c 1xb6
 200 100 l 1
 200 0 l 1
 100 0 l 1xd6
 100 100 l 1xda
 0 100 l 1
 0 400 l 1
 100 400 l 1xba
 100 500 l 1
 400 500 l 1
 400 267 400 33 400 -200 c 1
 300 -200 l 1xb6
100 100 m 1xda
 200 100 l 1xd6
 200 200 l 1
 300 200 l 1xb6
 300 267 300 333 300 400 c 1
 233 400 167 400 100 400 c 1
 100 100 l 1xda
EndSplineSet
Validated: 5
EndChar
StartChar: r
Encoding: 114 114 75
Width: 400
VWidth: 1600
Flags: W
HStem: 400 100<100 300>
VStem: 0 100<0 400>
AnchorPoint: "top-even" 50 600 basechar 0
AnchorPoint: "ogonek" -50 0 basechar 0
AnchorPoint: "bottom-adjoined" 50 0 basechar 0
AnchorPoint: "bottom" 50 -100 basechar 0
AnchorPoint: "top" 150 600 basechar 0
LayerCount: 2
Fore
SplineSet
100 500 m 1
 167 500 233 500 300 500 c 1
 300 400 l 1
 233 400 167 400 100 400 c 1
 100 500 l 1
0 0 m 1
 0 133 0 267 0 400 c 1
 100 400 l 1
 100 267 100 133 100 0 c 1
 0 0 l 1
EndSplineSet
Validated: 5
EndChar
StartChar: s
Encoding: 115 115 76
Width: 400
VWidth: 1600
Flags: W
HStem: 0 100<0 200> 100 100<200 300> 200 100<100 200> 300 100<0 100> 400 100<100 300>
VStem: 0 100<300 400> 100 100<200 300> 200 100<100 200>
AnchorPoint: "bottom-adjoined" 150 0 basechar 0
AnchorPoint: "ogonek" 50 0 basechar 0
AnchorPoint: "bottom" 150 -100 basechar 0
AnchorPoint: "top" 150 600 basechar 0
LayerCount: 2
Fore
SplineSet
100 500 m 1x0a
 167 500 233 500 300 500 c 1
 300 400 l 1x09
 233 400 167 400 100 400 c 1x15
 100 500 l 1x0a
100 400 m 1x14
 100 300 l 1x24
 0 300 l 1
 0 400 l 1
 100 400 l 1x14
100 300 m 1
 200 300 l 1x22
 200 200 l 1x42
 100 200 l 1x22
 100 300 l 1
200 200 m 1x42
 300 200 l 1
 300 100 l 1x41
 200 100 l 1x81
 200 200 l 1x42
200 100 m 1x85
 200 0 l 1
 133 0 67 0 0 0 c 1
 0 100 l 1
 67 100 133 100 200 100 c 1x85
EndSplineSet
Validated: 5
EndChar
StartChar: t
Encoding: 116 116 77
Width: 400
VWidth: 1600
Flags: W
HStem: 0 100<100 300> 400 100<100 300>
VStem: 0 100<100 400 500 600>
AnchorPoint: "caron-alt" 250 600 basechar 0
AnchorPoint: "bottom" 150 -100 basechar 0
AnchorPoint: "bottom-adjoined" 150 0 basechar 0
AnchorPoint: "ogonek" 150 0 basechar 0
AnchorPoint: "top" 50 700 basechar 0
LayerCount: 2
Fore
SplineSet
100 100 m 1
 0 100 l 1
 0 600 l 1
 100 600 l 1
 100 500 l 1
 167 500 233 500 300 500 c 1
 300 400 l 1
 233 400 167 400 100 400 c 1
 100 100 l 1
100 100 m 1
 167 100 233 100 300 100 c 1
 300 0 l 1
 233 0 167 0 100 0 c 1
 100 100 l 1
EndSplineSet
Validated: 5
EndChar
StartChar: u
Encoding: 117 117 78
Width: 500
VWidth: 1600
Flags: W
HStem: 0 100<100 300> 480 20G<0 100 300 400>
VStem: 0 100<100 500> 300 100<100 500>
AnchorPoint: "top" 250 600 basechar 0
AnchorPoint: "bottom" 250 -100 basechar 0
AnchorPoint: "bottom-adjoined" 250 0 basechar 0
AnchorPoint: "top-even" 150 600 basechar 0
AnchorPoint: "ogonek" 250 0 basechar 0
LayerCount: 2
Fore
SplineSet
400 0 m 1
 100 0 l 1
 100 100 l 1
 0 100 l 1
 0 233 0 367 0 500 c 1
 100 500 l 1
 100 367 100 233 100 100 c 1
 167 100 233 100 300 100 c 1
 300 233 300 367 300 500 c 1
 400 500 l 1
 400 0 l 1
EndSplineSet
Validated: 5
EndChar
StartChar: v
Encoding: 118 118 79
Width: 600
VWidth: 1600
Flags: W
HStem: 0 100<200 300> 100 200<100 200 300 400> 300 200<0 100 400 500>
VStem: 0 100<300 500> 100 100<100 300> 200 100<0 100> 300 100<100 300> 400 100<300 500>
AnchorPoint: "bottom" 250 -100 basechar 0
AnchorPoint: "top" 250 600 basechar 0
AnchorPoint: "bottom-adjoined" 250 0 basechar 0
AnchorPoint: "ogonek" 150 0 basechar 0
LayerCount: 2
Fore
SplineSet
100 300 m 1x50
 0 300 l 1
 0 367 0 433 0 500 c 1
 100 500 l 1x30
 100 433 100 367 100 300 c 1x50
100 300 m 1x50
 200 300 l 1x48
 200 233 200 167 200 100 c 1x88
 100 100 l 1x48
 100 167 100 233 100 300 c 1x50
400 300 m 1x42
 400 367 400 433 400 500 c 1
 500 500 l 1
 500 433 500 367 500 300 c 1x21
 400 300 l 1x42
400 300 m 1x42
 400 233 400 167 400 100 c 1x42
 300 100 l 1x84
 300 167 300 233 300 300 c 1
 400 300 l 1x42
300 100 m 1x84
 300 0 l 1
 200 0 l 1x84
 200 100 l 1x88
 300 100 l 1x84
EndSplineSet
Validated: 5
EndChar
StartChar: w
Encoding: 119 119 80
Width: 800
VWidth: 1600
Flags: W
HStem: 0 200<100 200 500 600> 200 300<0 100 600 700> 200 100<200 300 400 500>
VStem: 0 100<200 500> 100 100<0 200> 200 100<200 300> 300 100<300 500> 400 100<200 300> 500 100<0 200> 600 100<200 500>
AnchorPoint: "bottom" 350 -100 basechar 0
AnchorPoint: "bottom-adjoined" 350 0 basechar 0
AnchorPoint: "ogonek" 350 0 basechar 0
AnchorPoint: "top" 350 600 basechar 0
LayerCount: 2
Fore
SplineSet
300 300 m 1x24
 300 367 300 433 300 500 c 1
 400 500 l 1x42
 400 433 400 367 400 300 c 1x22
 300 300 l 1x24
300 300 m 1x24
 300 200 l 1x24
 200 200 l 1x88
 200 300 l 1
 300 300 l 1x24
400 300 m 1x22
 500 300 l 1x21
 500 200 l 1x81
 400 200 l 1x21
 400 300 l 1x22
200 200 m 1x88
 200 133 200 67 200 0 c 1
 100 0 l 1x88
 100 67 100 133 100 200 c 1x90
 0 200 l 1
 0 500 l 1
 100 500 l 1x50
 100 200 l 1x90
 200 200 l 1x88
600 200 m 1x8080
 600 500 l 1
 700 500 l 1
 700 200 l 1x4040
 600 200 l 1x8080
600 200 m 1x8080
 600 133 600 67 600 0 c 1
 500 0 l 1x8080
 500 67 500 133 500 200 c 1x81
 600 200 l 1x8080
EndSplineSet
Validated: 5
EndChar
StartChar: x
Encoding: 120 120 81
Width: 600
VWidth: 1600
Flags: W
HStem: 0 100<0 100 400 500> 100 100<100 200 300 400> 200 100<200 300> 300 100<100 200 300 400> 400 100<0 100 400 500>
VStem: 0 100<0 100 400 500> 100 100<100 200 300 400> 200 100<200 300> 300 100<100 200 300 400> 400 100<0 100 400 500>
AnchorPoint: "bottom" 250 -100 basechar 0
AnchorPoint: "bottom-adjoined" 250 0 basechar 0
AnchorPoint: "ogonek" 250 0 basechar 0
AnchorPoint: "top" 250 600 basechar 0
LayerCount: 2
Fore
SplineSet
0 0 m 1x84
 0 100 l 1
 100 100 l 1x84
 100 200 l 1
 200 200 l 1x42
 200 300 l 1x22
 100 300 l 1x12
 100 400 l 1x14
 0 400 l 1
 0 500 l 1
 100 500 l 1x0c
 100 400 l 1x14
 200 400 l 1x12
 200 300 l 1x22
 300 300 l 1x21
 300 400 l 1
 400 400 l 1x1080
 400 500 l 1
 500 500 l 1
 500 400 l 1x0840
 400 400 l 1
 400 300 l 1x1080
 300 300 l 1x21
 300 200 l 1x41
 200 200 l 1
 200 100 l 1x42
 100 100 l 1
 100 0 l 1
 0 0 l 1x84
300 200 m 1x41
 400 200 l 1x4080
 400 100 l 1x8080
 300 100 l 1x4080
 300 200 l 1x41
400 100 m 1x8080
 500 100 l 1
 500 0 l 1
 400 0 l 1x8040
 400 100 l 1x8080
EndSplineSet
Validated: 5
EndChar
StartChar: y
Encoding: 121 121 82
Width: 500
VWidth: 1600
Flags: W
HStem: -200 100<0 200> -100 21G<200 300> 480 20G<0 100 300 400>
VStem: 0 100<300 500> 100 100<100 300> 200 100<-100 100> 300 100<100 500>
AnchorPoint: "bottom" 150 -300 basechar 0
AnchorPoint: "bottom-adjoined" 150 -200 basechar 0
AnchorPoint: "ogonek" 50 -200 basechar 0
AnchorPoint: "top-even" 150 600 basechar 0
AnchorPoint: "top" 150 600 basechar 0
LayerCount: 2
Fore
SplineSet
100 300 m 1x30
 0 300 l 1
 0 367 0 433 0 500 c 1
 100 500 l 1
 100 433 100 367 100 300 c 1x30
100 300 m 1
 200 300 l 1
 200 100 l 1
 100 100 l 1x28
 100 300 l 1
300 100 m 1x24
 300 500 l 1
 400 500 l 1
 400 100 l 1x22
 300 100 l 1x24
300 100 m 1xa4
 300 -100 l 1x64
 200 -100 l 1xa4
 200 100 l 1xa8
 300 100 l 1xa4
200 -100 m 1xb4
 200 -200 l 1
 133 -200 67 -200 0 -200 c 1
 0 -100 l 1
 67 -100 133 -100 200 -100 c 1xb4
EndSplineSet
Validated: 5
EndChar
StartChar: z
Encoding: 122 122 83
Width: 500
VWidth: 1600
Flags: W
HStem: 0 100<100 400> 200 100<100 200> 400 100<0 200 300 400>
VStem: 0 100<100 200> 100 100<200 300> 200 100<300 400>
CounterMasks: 1 e0
AnchorPoint: "bottom" 150 -100 basechar 0
AnchorPoint: "bottom-adjoined" 150 0 basechar 0
AnchorPoint: "ogonek" 150 0 basechar 0
AnchorPoint: "top-even" 150 600 basechar 0
AnchorPoint: "top" 250 600 basechar 0
LayerCount: 2
Fore
SplineSet
100 100 m 1xf0
 400 100 l 1
 400 0 l 1
 267 0 133 0 0 0 c 1
 0 67 0 133 0 200 c 1
 100 200 l 1xf0
 100 300 l 1
 200 300 l 1xe8
 200 400 l 1
 133 400 67 400 0 400 c 1
 0 500 l 1
 133 500 267 500 400 500 c 1
 400 400 l 1
 300 400 l 1
 300 300 l 1xf4
 200 300 l 1
 200 200 l 1xe8
 100 200 l 1
 100 100 l 1xf0
EndSplineSet
Validated: 5
EndChar
StartChar: braceleft
Encoding: 123 123 87
Width: 500
Flags: W
HStem: -100 100<300 400> 300 100<0 200> 600 100<300 400>
VStem: 200 200<-100 0 600 700> 200 100<0 300 400 600>
LayerCount: 2
Fore
SplineSet
200 700 m 5xf0
 400 700 l 5
 400 600 l 5xf0
 300 600 l 5
 300 400 l 5
 200 400 l 5xe8
 200 500 200 600 200 700 c 5xf0
0 300 m 5
 0 400 l 5
 200 400 l 5
 200 300 l 5xe8
 0 300 l 5
200 300 m 5
 300 300 l 5
 300 0 l 5xe8
 400 0 l 5
 400 -100 l 5
 200 -100 l 5xf0
 200 33 200 167 200 300 c 5
EndSplineSet
Validated: 5
EndChar
StartChar: bar
Encoding: 124 124 89
Width: 200
Flags: W
HStem: -200 21G<0 100>
VStem: 0 100<-200 800>
LayerCount: 2
Fore
SplineSet
0 -200 m 1
 0 800 l 1
 100 800 l 1
 100 -200 l 1
 0 -200 l 1
EndSplineSet
Validated: 1
EndChar
StartChar: braceright
Encoding: 125 125 88
Width: 500
Flags: W
LayerCount: 2
Fore
SplineSet
200 700 m 1
 0 700 l 1
 0 600 l 1
 100 600 l 1
 100 400 l 1
 200 400 l 1
 200 500 200 600 200 700 c 1
400 300 m 1
 400 400 l 1
 200 400 l 1
 200 300 l 1
 400 300 l 1
200 300 m 1
 100 300 l 1
 100 0 l 1
 0 0 l 1
 0 -100 l 1
 200 -100 l 1
 200 33 200 167 200 300 c 1
EndSplineSet
Validated: 5
EndChar
StartChar: asciitilde
Encoding: 126 126 90
Width: 700
Flags: W
HStem: 300 100<0 100 300 500> 400 100<100 300 500 600>
VStem: 0 100<300 400> 500 100<400 500>
LayerCount: 2
Fore
SplineSet
0 300 m 1xb0
 0 400 l 1
 100 400 l 1
 100 300 l 1
 0 300 l 1xb0
100 400 m 1
 100 500 l 1
 300 500 l 1x70
 300 400 l 1
 100 400 l 1
300 400 m 1xb0
 500 400 l 1
 500 300 l 1
 300 300 l 1
 300 400 l 1xb0
500 400 m 1
 500 500 l 1
 600 500 l 1
 600 400 l 1x70
 500 400 l 1
EndSplineSet
Validated: 5
EndChar
StartChar: cent
Encoding: 162 162 98
Width: 500
Flags: W
HStem: 100 100<100 200 300 400> 480 20G<0 100> 500 100<100 200 300 400> 680 20G<200 300>
VStem: 0 100<200 500> 100 300<100 200 500 600> 200 100<0 100 200 500 600 700>
LayerCount: 2
Fore
SplineSet
0 200 m 1xd8
 0 500 l 1
 100 500 l 1
 100 200 l 1
 0 200 l 1xd8
100 500 m 1
 100 600 l 1xb4
 200 600 l 1
 200 700 l 1
 300 700 l 1
 300 600 l 1xb2
 400 600 l 1
 400 500 l 1xb4
 300 500 l 1
 300 200 l 1xb2
 400 200 l 1
 400 100 l 1xb4
 300 100 l 1
 300 0 l 1
 200 0 l 1
 200 100 l 1xb2
 100 100 l 1xb4
 100 200 l 1
 200 200 l 1
 200 500 l 1xba
 100 500 l 1
EndSplineSet
Validated: 5
EndChar
StartChar: sterling
Encoding: 163 163 99
Width: 600
Flags: W
HStem: 0 100<0 100 200 500> 300 100<0 100 200 400> 680 20G<100 200> 700 100<200 400>
VStem: 100 100<100 300 400 700>
LayerCount: 2
Fore
SplineSet
0 300 m 1xe8
 0 400 l 1
 100 400 l 1
 100 700 l 1
 200 700 l 1
 200 400 l 1
 400 400 l 1
 400 300 l 1
 200 300 l 1
 200 100 l 1
 500 100 l 1
 500 0 l 1
 0 0 l 1
 0 100 l 1
 100 100 l 1
 100 300 l 1
 0 300 l 1xe8
200 700 m 1
 200 800 l 1
 400 800 l 1
 400 700 l 1xd8
 200 700 l 1
EndSplineSet
Validated: 5
EndChar
StartChar: currency
Encoding: 164 164 100
Width: 700
Flags: W
HStem: 0 100<0 100 500 600> 100 100<200 400> 400 100<200 400> 500 100<0 100 500 600>
VStem: 0 100<0 100 500 600> 100 100<200 400> 400 100<200 400> 500 100<0 100 500 600>
LayerCount: 2
Fore
SplineSet
200 200 m 1x66
 267 200 333 200 400 200 c 1
 400 400 l 1
 200 400 l 1
 200 200 l 1x66
0 0 m 1x99
 0 100 l 1
 100 100 l 1
 100 500 l 1
 500 500 l 1
 500 100 l 1
 100 100 l 1
 100 0 l 1
 0 0 l 1x99
0 500 m 1
 0 600 l 1
 100 600 l 1
 100 500 l 1
 0 500 l 1
500 100 m 1
 600 100 l 1
 600 0 l 1
 500 0 l 1
 500 100 l 1
500 500 m 1
 500 600 l 1
 600 600 l 1
 600 500 l 1
 500 500 l 1
EndSplineSet
Validated: 5
EndChar
StartChar: yen
Encoding: 165 165 101
Width: 800
VWidth: 1600
Flags: W
HStem: 100 100<100 300 400 600> 300 200<200 300 400 500> 300 100<100 200 500 600> 500 200<100 200 500 600> 700 100<0 100 600 700>
VStem: 0 100<700 800> 100 100<500 700> 300 100<0 100 200 300> 500 100<500 700> 600 100<700 800>
LayerCount: 2
Fore
SplineSet
100 300 m 1xa340
 100 400 l 1
 200 400 l 1xa340
 200 500 l 1
 300 500 l 1xc340
 300 400 l 1
 400 400 l 1xa340
 400 500 l 1
 500 500 l 1xc380
 500 400 l 1xa380
 600 400 l 1
 600 300 l 1xa140
 400 300 l 1
 400 200 l 1
 600 200 l 1
 600 100 l 1
 400 100 l 1
 400 0 l 1
 300 0 l 1
 300 100 l 1
 100 100 l 1
 100 200 l 1
 300 200 l 1
 300 300 l 1xc340
 100 300 l 1xa340
500 500 m 1xc180
 500 567 500 633 500 700 c 1
 600 700 l 1
 600 633 600 567 600 500 c 1x9180
 500 500 l 1xc180
600 700 m 1
 600 800 l 1
 700 800 l 1
 700 700 l 1x8940
 600 700 l 1
200 500 m 1xc3
 100 500 l 1x93
 100 567 100 633 100 700 c 1x95
 200 700 l 1x93
 200 633 200 567 200 500 c 1xc3
100 700 m 1x95
 0 700 l 1
 0 800 l 1
 100 800 l 1x8d
 100 700 l 1x95
EndSplineSet
Validated: 5
EndChar
StartChar: brokenbar
Encoding: 166 166 103
Width: 200
Flags: W
HStem: -200 21G<0 100>
VStem: 0 100<-200 200 400 800>
LayerCount: 2
Fore
SplineSet
0 400 m 1
 0 800 l 1
 100 800 l 1
 100 400 l 1
 0 400 l 1
0 -200 m 1
 0 200 l 1
 100 200 l 1
 100 -200 l 1
 0 -200 l 1
EndSplineSet
Validated: 1
EndChar
StartChar: section
Encoding: 167 167 102
Width: 600
Flags: W
HStem: -200 100<100 400> -100 21G<400 500> 100 100<200 300> 200 100<100 200> 300 100<300 400> 400 100<200 300> 680 20G<0 100> 700 100<100 400>
VStem: 0 100<300 500 600 700> 100 100<200 300> 200 100<100 200 400 500> 300 100<300 400> 400 100<-100 0 100 300>
LayerCount: 2
Fore
SplineSet
0 300 m 1x08a0
 0 700 l 1
 100 700 l 1
 100 600 l 1
 200 600 l 1
 200 567 200 533 200 500 c 1
 100 500 l 1
 100 300 l 1x16a0
 0 300 l 1x08a0
500 300 m 1x0808
 500 -100 l 1x4808
 400 -100 l 1
 400 0 l 1x8008
 300 0 l 1x8010
 300 100 l 1
 400 100 l 1xa028
 400 300 l 1
 300 300 l 1xa810
 300 400 l 1xa820
 200 400 l 1
 200 500 l 1
 300 500 l 1x0420
 300 400 l 1x0820
 400 400 l 1
 400 367 400 333 400 300 c 1x0810
 500 300 l 1x0808
100 700 m 1x0288
 100 800 l 1
 400 800 l 1
 400 700 l 1x0148
 100 700 l 1x0288
400 -100 m 1x8048
 400 -200 l 1
 100 -200 l 1
 100 -100 l 1
 400 -100 l 1x8048
300 100 m 1x2020
 200 100 l 1x2020
 200 200 l 1x2040
 300 200 l 1
 300 100 l 1x2020
100 300 m 1x1080
 200 300 l 1x1040
 200 200 l 1x2040
 100 200 l 1x1040
 100 300 l 1x1080
EndSplineSet
Validated: 5
EndChar
StartChar: dieresis
Encoding: 168 168 104
Width: 500
Flags: W
HStem: 600 100<100 200 300 400>
VStem: 100 100<600 700> 300 100<600 700>
LayerCount: 2
Fore
SplineSet
100 600 m 1
 100 700 l 1
 200 700 l 1
 200 600 l 1
 100 600 l 1
300 600 m 1
 300 700 l 1
 400 700 l 1
 400 600 l 1
 300 600 l 1
EndSplineSet
Validated: 1
EndChar
StartChar: ordfeminine
Encoding: 170 170 125
Width: 400
Flags: W
HStem: 300 100<100 200> 400 100<0 100> 500 100<100 200> 680 20G<200 300> 700 100<100 200>
VStem: 0 100<400 500> 100 100<300 400 700 800> 200 100<300 500 600 700>
LayerCount: 2
Fore
SplineSet
100 700 m 1x0a
 100 800 l 1
 200 800 l 1x0a
 200 700 l 1x12
 100 700 l 1x0a
0 400 m 1x45
 0 500 l 1
 100 500 l 1x45
 100 600 l 1x22
 200 600 l 1x21
 200 700 l 1x32
 300 700 l 1
 300 300 l 1xb1
 267 300 233 300 200 300 c 1xb2
 200 500 l 1xb1
 100 500 l 1x45
 100 400 l 1x85
 0 400 l 1x45
200 400 m 1x82
 200 300 l 1
 100 300 l 1x82
 100 400 l 1x84
 200 400 l 1x82
EndSplineSet
Validated: 5
EndChar
StartChar: guillemotleft
Encoding: 171 171 107
Width: 600
Flags: W
HStem: 0 100<200 300 400 500> 100 100<100 200 300 400> 200 100<0 100 200 300> 300 100<100 200 300 400> 400 100<200 300 400 500>
VStem: 0 100<200 300> 100 100<100 200 300 400> 200 100<0 100 200 300 400 500> 300 100<100 200 300 400> 400 100<0 100 400 500>
LayerCount: 2
Fore
SplineSet
0 200 m 1x24
 0 300 l 1
 100 300 l 1x24
 100 400 l 1
 200 400 l 1x12
 200 500 l 1
 300 500 l 1x09
 300 400 l 1x11
 200 400 l 1x12
 200 300 l 1x22
 100 300 l 1x24
 100 200 l 1x44
 200 200 l 1x42
 200 100 l 1x82
 300 100 l 1
 300 0 l 1
 200 0 l 1x81
 200 100 l 1x82
 100 100 l 1x42
 100 200 l 1x44
 0 200 l 1x24
300 100 m 1x81
 300 200 l 1x41
 400 200 l 1x4080
 400 100 l 1x8080
 500 100 l 1
 500 0 l 1
 400 0 l 1x8040
 400 100 l 1x8080
 300 100 l 1x81
400 400 m 1x1080
 400 500 l 1
 500 500 l 1
 500 400 l 1x0840
 400 400 l 1x1080
400 400 m 1x1080
 400 300 l 1x1080
 300 300 l 1x21
 300 400 l 1x11
 400 400 l 1x1080
300 200 m 1x41
 200 200 l 1x42
 200 300 l 1x22
 300 300 l 1x21
 300 200 l 1x41
EndSplineSet
Validated: 5
EndChar
StartChar: logicalnot
Encoding: 172 172 111
Width: 500
Flags: W
HStem: 300 100<0 300>
VStem: 300 100<100 300>
LayerCount: 2
Fore
SplineSet
0 300 m 1
 0 400 l 1
 400 400 l 1
 400 100 l 1
 300 100 l 1
 300 300 l 1
 0 300 l 1
EndSplineSet
Validated: 1
EndChar
StartChar: registered
Encoding: 174 174 106
Width: 900
VWidth: 1600
Flags: W
HStem: 0 100<300 600> 100 100<200 300 600 700> 200 400<100 200 300 400 700 800> 300 100<400 500> 400 100<500 600> 500 100<400 500> 600 100<200 300 600 700> 700 100<300 600>
VStem: 100 100<200 600> 200 100<100 200 600 700> 300 100<200 300 400 500> 500 100<400 500> 600 100<100 200 600 700> 700 100<200 600>
LayerCount: 2
Fore
SplineSet
600 100 m 1x8048
 600 0 l 1
 300 0 l 1x8028
 300 100 l 1
 600 100 l 1x8048
600 100 m 1
 600 200 l 1
 700 200 l 1
 700 100 l 1x4008
 600 100 l 1
300 100 m 1x8040
 200 100 l 1x4040
 200 200 l 1x4080
 300 200 l 1x4040
 300 100 l 1x8040
700 200 m 1x4008
 700 333 700 467 700 600 c 1x2008
 800 600 l 1
 800 467 800 333 800 200 c 1x2004
 700 200 l 1x4008
200 200 m 1x4080
 100 200 l 1
 100 333 100 467 100 600 c 1
 200 600 l 1x2080
 200 467 200 333 200 200 c 1x4080
700 600 m 1x2008
 600 600 l 1
 600 700 l 1
 700 700 l 1x0208
 700 600 l 1x2008
200 600 m 1x2080
 200 700 l 1
 300 700 l 1x0240
 300 600 l 1x2040
 200 600 l 1x2080
600 700 m 1x0228
 300 700 l 1x0248
 300 800 l 1
 600 800 l 1x0128
 600 700 l 1x0228
300 600 m 1x2040
 500 600 l 1x0450
 500 500 l 1x0850
 467 500 433 500 400 500 c 1
 400 400 l 1
 433 400 467 400 500 400 c 1x1430
 500 500 l 1
 600 500 l 1
 600 400 l 1x0830
 500 400 l 1
 500 300 l 1
 467 300 433 300 400 300 c 1x1030
 400 200 l 1x2030
 300 200 l 1x4040
 300 600 l 1x2040
500 300 m 1x5010
 500 200 l 1x2010
 600 200 l 1
 600 300 l 1x5008
 500 300 l 1x5010
EndSplineSet
Validated: 5
EndChar
StartChar: macron
Encoding: 175 175 109
Width: 500
VWidth: 1600
Flags: W
HStem: 600 100
LayerCount: 2
Fore
SplineSet
400 700 m 1
 267 700 133 700 0 700 c 1
 0 600 l 1
 133 600 267 600 400 600 c 1
 400 700 l 1
EndSplineSet
Validated: 9
EndChar
StartChar: degree
Encoding: 176 176 112
Width: 500
VWidth: 1600
Flags: W
HStem: 400 100<100 300> 500 200<0 100 300 400> 700 100<100 300>
VStem: 0 100<500 700> 100 200<400 500 700 800> 300 100<500 700>
LayerCount: 2
Fore
SplineSet
300 500 m 1x88
 300 400 l 1
 233 400 167 400 100 400 c 1x88
 100 500 l 1x90
 167 500 233 500 300 500 c 1x88
300 500 m 1
 300 700 l 1x48
 400 700 l 1
 400 500 l 1x44
 300 500 l 1
100 500 m 1x90
 0 500 l 1
 0 700 l 1
 100 700 l 1x50
 100 500 l 1x90
300 700 m 1x48
 233 700 167 700 100 700 c 1x50
 100 800 l 1
 167 800 233 800 300 800 c 1x28
 300 700 l 1x48
EndSplineSet
Validated: 5
EndChar
StartChar: plusminus
Encoding: 177 177 113
Width: 600
Flags: W
HStem: 100 100<0 500> 400 100<0 200 300 500>
VStem: 200 100<300 400 500 600>
LayerCount: 2
Fore
SplineSet
0 400 m 1
 0 500 l 1
 200 500 l 1
 200 600 l 1
 300 600 l 1
 300 500 l 1
 500 500 l 1
 500 400 l 1
 300 400 l 1
 300 300 l 1
 200 300 l 1
 200 400 l 1
 0 400 l 1
0 100 m 1
 0 200 l 1
 500 200 l 1
 500 100 l 1
 0 100 l 1
EndSplineSet
Validated: 1
EndChar
StartChar: uni00B2
Encoding: 178 178 114
Width: 400
Flags: W
HStem: 300 100<100 300> 500 100<100 200> 600 100<200 300> 700 100<0 200>
VStem: 0 100<400 500> 100 100<500 600> 200 100<600 700>
LayerCount: 2
Fore
SplineSet
0 700 m 1x9a
 0 800 l 1
 200 800 l 1x9a
 200 700 l 1xaa
 0 700 l 1x9a
0 300 m 1
 0 500 l 1
 100 500 l 1xca
 100 600 l 1
 200 600 l 1xc4
 200 700 l 1
 300 700 l 1
 300 600 l 1xa2
 200 600 l 1
 200 500 l 1xc4
 100 500 l 1xc8
 100 400 l 1
 300 400 l 1
 300 300 l 1
 0 300 l 1
EndSplineSet
Validated: 5
EndChar
StartChar: uni00B3
Encoding: 179 179 115
Width: 400
Flags: W
HStem: 300 100<0 200> 400 100<200 300> 500 100<100 200> 600 100<200 300> 700 100<0 200>
VStem: 0 200<300 400 700 800> 100 100<500 600> 200 100<400 500 600 700>
LayerCount: 2
Fore
SplineSet
0 700 m 1x0c
 0 800 l 1
 200 800 l 1x0c
 200 700 l 1x14
 0 700 l 1x0c
100 500 m 1x22
 100 600 l 1
 200 600 l 1x22
 200 700 l 1x14
 300 700 l 1
 300 600 l 1x11
 200 600 l 1x22
 200 500 l 1x42
 100 500 l 1x22
0 300 m 1x84
 0 400 l 1
 200 400 l 1x84
 200 500 l 1x42
 300 500 l 1
 300 400 l 1x41
 200 400 l 1
 200 300 l 1
 0 300 l 1x84
EndSplineSet
Validated: 5
EndChar
StartChar: acute
Encoding: 180 180 116
Width: 400
VWidth: 1600
Flags: W
LayerCount: 2
Fore
SplineSet
200 700 m 1
 300 700 l 1
 300 800 l 1
 200 800 l 1
 200 700 l 1
200 700 m 1
 100 700 l 1
 100 600 l 1
 200 600 l 1
 200 700 l 1
100 600 m 1
 0 600 l 1
 0 500 l 1
 100 500 l 1
 100 600 l 1
EndSplineSet
Validated: 5
EndChar
StartChar: mu
Encoding: 181 181 117
Width: 500
VWidth: 1600
Flags: W
LayerCount: 2
Fore
SplineSet
0 500 m 1
 0 -200 l 1
 100 -200 l 1
 100 -133 100 -67 100 0 c 1
 167 0 333 0 400 0 c 1
 400 500 l 1
 300 500 l 1
 300 367 300 233 300 100 c 1
 100 100 l 1
 100 233 100 367 100 500 c 1
 0 500 l 1
EndSplineSet
Validated: 9
EndChar
StartChar: periodcentered
Encoding: 183 183 119
Width: 200
Flags: W
HStem: 200 200<0 100>
VStem: 0 100<200 400>
LayerCount: 2
Fore
SplineSet
0 200 m 1
 0 400 l 1
 100 400 l 1
 100 200 l 1
 0 200 l 1
EndSplineSet
Validated: 1
EndChar
StartChar: uni00B9
Encoding: 185 185 121
Width: 400
Flags: W
HStem: 500 100<0 100>
VStem: 0 100<500 600> 200 100<300 600 700 800>
LayerCount: 2
Fore
SplineSet
0 500 m 25
 0 600 l 25
 100 600 l 25
 100 500 l 25
 0 500 l 25
200 800 m 1
 300 800 l 1
 300 300 l 1
 200 300 l 1
 200 600 l 1
 100 600 l 1
 100 700 l 1
 200 700 l 1
 200 800 l 1
EndSplineSet
Validated: 5
EndChar
StartChar: ordmasculine
Encoding: 186 186 126
Width: 400
VWidth: 1600
Flags: W
HStem: 400 100<100 200> 500 200<0 100 200 300> 700 100<100 200>
VStem: 0 100<500 700> 100 100<400 500 700 800> 200 100<500 700>
LayerCount: 2
Fore
SplineSet
200 500 m 1x88
 200 400 l 1
 133 400 167 400 100 400 c 1x88
 100 500 l 1x90
 167 500 133 500 200 500 c 1x88
200 500 m 1
 200 700 l 1x48
 300 700 l 1
 300 500 l 1x44
 200 500 l 1
100 500 m 1x90
 0 500 l 1
 0 700 l 1
 100 700 l 1x50
 100 500 l 1x90
200 700 m 1x48
 133 700 167 700 100 700 c 1x50
 100 800 l 1
 167 800 133 800 200 800 c 1x28
 200 700 l 1x48
EndSplineSet
Validated: 5
EndChar
StartChar: guillemotright
Encoding: 187 187 108
Width: 600
Flags: W
LayerCount: 2
Fore
SplineSet
100 400 m 1
 100 300 l 1
 200 300 l 1
 200 200 l 1
 100 200 l 1
 100 100 l 1
 0 100 l 1
 0 0 l 1
 100 0 l 1
 100 100 l 1
 200 100 l 1
 200 200 l 1
 300 200 l 1
 300 300 l 1
 200 300 l 1
 200 400 l 1
 100 400 l 1
100 400 m 1
 100 500 l 1
 0 500 l 1
 0 400 l 1
 100 400 l 1
200 100 m 1
 200 0 l 1
 300 0 l 1
 300 100 l 1
 200 100 l 1
300 200 m 1
 300 100 l 1
 400 100 l 1
 400 200 l 1
 300 200 l 1
300 300 m 1
 400 300 l 1
 400 200 l 1
 500 200 l 1
 500 300 l 1
 400 300 l 1
 400 400 l 1
 300 400 l 1
 300 300 l 1
200 400 m 1
 300 400 l 1
 300 500 l 1
 200 500 l 1
 200 400 l 1
EndSplineSet
Validated: 5
EndChar
StartChar: onequarter
Encoding: 188 188 123
Width: 900
Flags: W
HStem: -100 21G<600 700> 0 100<500 600 700 800> 200 100<500 600> 500 100<0 100> 600 100<100 200>
VStem: 0 100<500 600> 200 100<300 600 700 800> 400 100<100 200> 600 100<-100 0 100 200 300 400>
LayerCount: 2
Fore
SplineSet
0 500 m 25xf780
 0 600 l 25
 100 600 l 25
 100 500 l 25
 0 500 l 25xf780
200 800 m 1
 300 800 l 1
 300 300 l 1
 200 300 l 1
 200 600 l 1xef80
 100 600 l 1xf780
 100 700 l 1
 200 700 l 1xef80
 200 800 l 1
500 200 m 1
 500 300 l 1
 600 300 l 1
 600 333 600 367 600 400 c 1
 633 400 667 400 700 400 c 1
 700 100 l 1
 800 100 l 1
 800 0 l 1
 700 0 l 1
 700 -100 l 1
 600 -100 l 1
 600 0 l 1
 400 0 l 1
 400 67 400 133 400 200 c 1
 500 200 l 1
500 200 m 1
 500 100 l 1
 600 100 l 1
 600 200 l 1
 500 200 l 1
100 0 m 1
 0 0 l 1
 0 -100 l 1
 100 -100 l 1
 100 0 l 1
100 0 m 1
 200 0 l 1
 200 100 l 1
 100 100 l 1
 100 0 l 1
200 100 m 1
 300 100 l 1
 300 200 l 1
 200 200 l 1
 200 100 l 1
600 600 m 1
 500 600 l 1xef80
 500 500 l 1
 600 500 l 1xf780
 600 600 l 1
600 600 m 1
 700 600 l 1
 700 700 l 1
 600 700 l 1
 600 600 l 1
700 700 m 1
 800 700 l 1
 800 800 l 1
 700 800 l 1
 700 700 l 1
EndSplineSet
Validated: 5
EndChar
StartChar: onehalf
Encoding: 189 189 122
Width: 900
Flags: W
HStem: -100 100<600 800> 100 100<600 700> 200 100<700 800> 300 100<500 700> 500 100<0 100> 600 100<100 200>
VStem: 0 100<500 600> 200 100<300 600 700 800> 500 100<0 100> 600 100<100 200> 700 100<200 300>
LayerCount: 2
Fore
SplineSet
0 500 m 25x8b
 0 600 l 25
 100 600 l 25
 100 500 l 25
 0 500 l 25x8b
200 800 m 1
 300 800 l 1
 300 300 l 1
 200 300 l 1
 200 600 l 1x97
 100 600 l 1x8b
 100 700 l 1
 200 700 l 1x87
 200 800 l 1
500 300 m 1x93a0
 500 400 l 1
 700 400 l 1x93a0
 700 300 l 1xa3a0
 500 300 l 1x93a0
500 -100 m 1
 500 100 l 1
 600 100 l 1xc3a0
 600 200 l 1
 700 200 l 1xc340
 700 300 l 1
 800 300 l 1
 800 200 l 1xa320
 700 200 l 1
 700 100 l 1xc340
 667 100 633 100 600 100 c 1xc380
 600 0 l 1
 800 0 l 1
 800 -100 l 1
 500 -100 l 1
700 700 m 1x8720
 800 700 l 1
 800 800 l 1
 700 800 l 1
 700 700 l 1x8720
700 700 m 1
 600 700 l 1
 600 600 l 1x8740
 700 600 l 1
 700 700 l 1
600 600 m 1
 500 600 l 1x8780
 500 500 l 1x8b80
 600 500 l 1x8b40
 600 600 l 1
200 100 m 1xc3
 300 100 l 1xc3
 300 200 l 1
 200 200 l 1xa3
 200 100 l 1xc3
200 100 m 1
 100 100 l 1
 100 0 l 1
 200 0 l 1
 200 100 l 1
100 0 m 1
 0 0 l 1
 0 -100 l 1
 100 -100 l 1
 100 0 l 1
EndSplineSet
Validated: 5
EndChar
StartChar: threequarters
Encoding: 190 190 124
Width: 900
Flags: W
HStem: -100 21G<600 700> 0 100<500 600 700 800> 200 100<500 600> 300 100<0 200> 400 100<200 300> 500 100<100 200> 600 100<200 300> 700 100<0 200>
VStem: 0 200<300 400 700 800> 100 100<500 600> 200 100<400 500 600 700> 400 100<100 200> 600 100<-100 0 100 200 300 400>
LayerCount: 2
Fore
SplineSet
0 700 m 1xc198
 0 800 l 1
 200 800 l 1xc198
 200 700 l 1xc298
 0 700 l 1xc198
100 500 m 1xc458
 100 600 l 1
 200 600 l 1xc458
 200 700 l 1xc298
 300 700 l 1
 300 600 l 1xc238
 200 600 l 1xc458
 200 500 l 1xc858
 100 500 l 1xc458
0 300 m 1xd098
 0 400 l 1
 200 400 l 1xd098
 200 500 l 1xc858
 300 500 l 1
 300 400 l 1xc838
 200 400 l 1
 200 300 l 1
 0 300 l 1xd098
500 200 m 1xe818
 500 300 l 1
 600 300 l 1
 600 333 600 367 600 400 c 1
 633 400 667 400 700 400 c 1
 700 100 l 1
 800 100 l 1
 800 0 l 1
 700 0 l 1
 700 -100 l 1
 600 -100 l 1
 600 0 l 1
 400 0 l 1
 400 67 400 133 400 200 c 1
 500 200 l 1xe818
500 200 m 1
 500 100 l 1
 600 100 l 1
 600 200 l 1
 500 200 l 1
100 0 m 1xc058
 0 0 l 1
 0 -100 l 1xc098
 100 -100 l 1
 100 0 l 1xc058
100 0 m 1xc058
 200 0 l 1
 200 100 l 1xc038
 100 100 l 1
 100 0 l 1xc058
200 100 m 1
 300 100 l 1
 300 200 l 1
 200 200 l 1xe038
 200 100 l 1
600 600 m 1xc218
 500 600 l 1xc218
 500 500 l 1
 600 500 l 1xc418
 600 600 l 1xc218
600 600 m 1
 700 600 l 1xc218
 700 700 l 1
 600 700 l 1xc118
 600 600 l 1
700 700 m 1xc118
 800 700 l 1
 800 800 l 1
 700 800 l 1
 700 700 l 1xc118
EndSplineSet
Validated: 5
EndChar
StartChar: questiondown
Encoding: 191 191 97
Width: 500
Flags: W
HStem: -200 100<200 400> 100 100<200 300> 200 100<300 400> 400 100<300 400>
VStem: 100 100<-100 100> 200 100<100 200> 300 100<200 300 400 500>
LayerCount: 2
Fore
SplineSet
400 500 m 1x92
 400 400 l 1
 300 400 l 1
 300 500 l 1
 400 500 l 1x92
400 300 m 1xb2
 400 200 l 1xb2
 300 200 l 1xd4
 300 300 l 1
 400 300 l 1xb2
400 -100 m 1
 400 -200 l 1xda
 200 -200 l 1xd4
 200 -100 l 1
 100 -100 l 1
 100 100 l 1
 200 100 l 1xd8
 200 200 l 1
 300 200 l 1
 300 100 l 1xd4
 200 100 l 1
 200 -100 l 1xd8
 400 -100 l 1
EndSplineSet
Validated: 5
EndChar
StartChar: Eth
Encoding: 208 208 230
Width: 800
VWidth: 1600
Flags: W
HStem: -100 100<200 500> 0 100<500 600> 300 100<0 400> 500 100<500 600> 600 100<200 500>
VStem: 100 100<0 600> 500 100<0 100 500 600> 600 100<100 500>
LayerCount: 2
Fore
SplineSet
0 300 m 25x24
 0 400 l 25
 400 400 l 25
 400 300 l 25
 0 300 l 25x24
EndSplineSet
Refer: 32 68 N 1 0 0 1 0 0 2
Validated: 5
EndChar
StartChar: multiply
Encoding: 215 215 175
Width: 500
Flags: W
HStem: 100 100<0 100 300 400> 200 200<100 300> 400 100<0 100 300 400>
VStem: 0 100<100 200 400 500> 100 200<200 400> 300 100<100 200 400 500>
LayerCount: 2
Fore
SplineSet
300 100 m 25x84
 300 200 l 25x88
 400 200 l 25
 400 100 l 25
 300 100 l 25x84
300 400 m 25x48
 300 500 l 25
 400 500 l 25
 400 400 l 25x24
 300 400 l 25x48
0 400 m 25x30
 0 500 l 25
 100 500 l 25x30
 100 400 l 25x50
 0 400 l 25x30
100 200 m 25x90
 100 400 l 25x50
 300 400 l 25x48
 300 200 l 25x88
 100 200 l 25x90
0 100 m 25x90
 0 200 l 25
 100 200 l 25
 100 100 l 25
 0 100 l 25x90
EndSplineSet
Validated: 5
EndChar
StartChar: germandbls
Encoding: 223 223 170
Width: 500
Flags: HW
HStem: -200 21G<0 100> 0 100<200 400> 100 100<400 500> 200 100<300 400> 300 100<200 300> 600 100<100 300>
VStem: 0 100<-200 600> 200 100<300 400> 300 100<200 300 400 600> 400 100<100 200>
LayerCount: 2
Fore
SplineSet
200 300 m 1x8f
 200 400 l 1
 300 400 l 1x8f
 300 300 l 1x97
 200 300 l 1x8f
300 200 m 1x9680
 300 300 l 1x97
 400 300 l 1x9680
 400 200 l 1xa680
 300 200 l 1x9680
0 -200 m 1
 0 600 l 1
 100 600 l 1
 100 -200 l 1
 0 -200 l 1
300 400 m 1x8f
 300 600 l 1
 100 600 l 1
 100 700 l 1
 300 700 l 1
 300 600 l 1
 400 600 l 1
 400 500 400 500 400 400 c 1x8e80
 333 400 300 400 300 400 c 1x8f
200 0 m 1xc740
 200 100 l 1
 400 100 l 1
 400 0 l 1
 200 0 l 1xc740
400 100 m 1
 400 200 l 1xa680
 500 200 l 1
 500 100 l 1xa640
 400 100 l 1
EndSplineSet
EndChar
StartChar: ae
Encoding: 230 230 163
Width: 800
VWidth: 1600
Flags: W
HStem: 0 100<100 300 400 600> 100 100<0 100> 200 100<100 300 400 600> 400 100<100 300 400 600>
VStem: 0 100<100 200> 100 200<0 100 400 500> 300 100<100 200 300 400> 400 200<0 100 400 500> 600 100<300 400>
AnchorPoint: "bottom" 350 -100 basechar 0
AnchorPoint: "top" 350 600 basechar 0
LayerCount: 2
Back
SplineSet
0 100 m 1
 0 200 l 1
 100 200 l 1
 100 100 l 1
 0 100 l 1
100 500 m 1
 300 500 l 1
 300 400 l 1
 100 400 l 1
 100 500 l 1
100 200 m 1
 100 300 l 1
 300 300 l 1
 300 400 l 1
 400 400 l 1
 400 500 l 1
 600 500 l 1
 600 400 l 1
 400 400 l 1
 400 300 l 1
 600 300 l 1
 600 400 l 1
 700 400 l 1
 700 200 l 1
 400 200 l 1
 400 100 l 1
 300 100 l 1
 300 0 l 1
 100 0 l 1
 100 100 l 1
 300 100 l 1
 300 200 l 1
 100 200 l 1
400 100 m 1
 466.666992188 100 533.333007812 100 600 100 c 1
 600 0 l 1
 400 0 l 1
 400 100 l 1
EndSplineSet
Fore
SplineSet
100 100 m 1xb8
 300 100 l 1xb4
 300 167 300 133 300 200 c 1xb2
 233 200 167 200 100 200 c 1x5a
 100 233 100 267 100 300 c 1x34
 167 300 233 300 300 300 c 1x32
 300 400 l 1
 233 400 167 400 100 400 c 1
 100 500 l 1
 167 500 233 500 300 500 c 1
 300 467 300 433 300 400 c 1x34
 400 400 l 1x32
 400 500 l 1
 467 500 533 500 600 500 c 1
 600 400 l 1x31
 533 400 467 400 400 400 c 1
 400 300 l 1
 467 300 533 300 600 300 c 1x3280
 600 400 l 1x31
 700 400 l 1
 700 333 700 267 700 200 c 1
 400 200 l 1
 400 100 l 1xb280
 300 100 l 1
 300 0 l 1
 100 0 l 1xb4
 100 100 l 1xb8
100 100 m 1x98
 67 100 33 100 0 100 c 1
 0 167 0 133 0 200 c 1
 100 200 l 1x58
 100 133 100 167 100 100 c 1x98
400 100 m 1x92
 467 100 533 100 600 100 c 1
 600 0 l 1
 533 0 467 0 400 0 c 1x91
 400 100 l 1x92
EndSplineSet
Validated: 5
EndChar
StartChar: eth
Encoding: 240 240 212
Width: 500
VWidth: 1600
Flags: W
HStem: 0 100<100 300> 300 100<100 300> 480 20G<300 400> 500 100<0 100 200 300> 600 100<100 200> 700 100<0 100 200 300>
VStem: 0 100<100 300 500 600 700 800> 100 100<600 700> 200 100<500 600 700 800> 300 100<100 300 400 500>
LayerCount: 2
Fore
SplineSet
200 500 m 17xd080
 200 533 200 567 200 600 c 9xd1
 300 600 l 25xd080
 300 500 l 25xe080
 200 500 l 17xd080
0 500 m 17xd2
 0 533 0 567 0 600 c 9
 100 600 l 25
 100 500 l 25
 0 500 l 17xd2
200 700 m 25xc9
 200 800 l 25
 300 800 l 25
 300 700 l 25xc480
 200 700 l 25xc9
0 700 m 25xc6
 0 800 l 25
 100 800 l 25xc6
 100 700 l 25xca
 0 700 l 25xc6
100 600 m 1xd2
 100 700 l 25xca
 200 700 l 25xc9
 200 600 l 1xd1
 100 600 l 1xd2
100 100 m 1
 167 100 233 100 300 100 c 1
 300 300 l 1xc240
 233 300 167 300 100 300 c 1
 100 100 l 1
100 100 m 1
 67 100 33 100 0 100 c 1
 0 300 l 1
 100 300 l 1xe2
 100 400 l 1
 167 400 233 400 300 400 c 1xe140
 300 467 300 433 300 500 c 1xe080
 333 500 367 500 400 500 c 1
 400 100 l 1
 300 100 l 1
 300 67 300 33 300 0 c 1
 100 0 l 1xe140
 100 100 l 1
EndSplineSet
Validated: 5
EndChar
StartChar: divide
Encoding: 247 247 176
Width: 600
Flags: W
HStem: 100 100<200 300> 300 100<0 500> 500 100<200 300>
VStem: 200 100<100 200 500 600>
CounterMasks: 1 e0
LayerCount: 2
Fore
SplineSet
200 600 m 1
 300 600 l 9
 300 500 l 25
 200 500 l 25
 200 600 l 1
500 400 m 1
 500 300 l 1
 0 300 l 1
 0 400 l 1
 500 400 l 1
300 100 m 1
 200 100 l 9
 200 200 l 25
 300 200 l 25
 300 100 l 1
EndSplineSet
Validated: 1
EndChar
StartChar: oslash
Encoding: 248 248 127
Width: 600
Flags: W
HStem: 0 100<0 100 200 400> 200 100<200 300> 400 100<100 300 400 500>
VStem: 0 100<200 400> 100 100<100 200> 200 100<200 300> 300 100<300 400> 400 100<100 300>
CounterMasks: 1 e0
AnchorPoint: "ogonek" 250 0 basechar 0
AnchorPoint: "bottom" 250 -100 basechar 0
AnchorPoint: "top" 250 600 basechar 0
LayerCount: 2
Fore
SplineSet
100 100 m 1xe8
 100 133 100 167 100 200 c 1xf0
 200 200 l 1
 200 100 l 1
 167 100 133 100 100 100 c 1xe8
200 200 m 1xe8
 200 233 200 267 200 300 c 1
 300 300 l 1
 300 200 l 1xe4
 267 200 233 200 200 200 c 1xe8
300 300 m 1
 300 333 300 367 300 400 c 1
 400 400 l 1
 400 300 l 1xe2
 367 300 333 300 300 300 c 1
400 100 m 1xe1
 400 300 l 17xe2
 433 300 467 300 500 300 c 9
 500 100 l 1
 400 100 l 1xe1
100 400 m 1xf1
 100 500 l 1xe8
 500 500 l 17
 500 467 500 433 500 400 c 9
 100 400 l 1xf1
0 0 m 17xf1
 0 33 0 67 0 100 c 9
 400 100 l 1
 400 0 l 1
 0 0 l 17xf1
0 200 m 9
 0 400 l 1
 100 400 l 1
 100 200 l 17
 67 200 33 200 0 200 c 9
EndSplineSet
Validated: 5
EndChar
StartChar: thorn
Encoding: 254 254 171
Width: 500
VWidth: 1600
Flags: W
VStem: 300 100<100 400>
LayerCount: 2
Fore
SplineSet
0 700 m 1
 0 -200 l 1
 100 -200 l 1
 100 0 l 1
 167 0 233 0 300 0 c 1
 300 100 l 1
 233 100 167 100 100 100 c 1
 100 400 l 1
 300 400 l 1
 300 500 l 1
 100 500 l 1
 100 700 l 1
 0 700 l 1
300 100 m 1
 300 400 l 1
 400 400 l 1
 400 100 l 1
 300 100 l 1
EndSplineSet
Validated: 5
EndChar
StartChar: Aogonek
Encoding: 260 260 233
Width: 800
VWidth: 1600
Flags: W
HStem: -300 100<600 700> -120 20G<500 600> -100 200<0 100 600 700> 100 100<200 500> 100 200<100 200 500 600> 300 200<200 300 400 500> 680 20G<300 400>
VStem: 0 100<-100 100> 100 100<200 300> 200 100<300 500> 300 100<500 700> 400 100<300 500> 500 100<-200 -100 200 300> 600 100<-100 100>
LayerCount: 2
Fore
SplineSet
500 -300 m 1xc208
 500 -100 l 1
 533 -100 567 -100 600 -100 c 1
 600 -200 l 1xc208
 700 -200 l 1
 700 -233 700 -267 700 -300 c 1xc204
 633 -300 567 -300 500 -300 c 1xc208
EndSplineSet
Refer: 29 65 N 1 0 0 1 0 0 2
Validated: 5
EndChar
StartChar: aogonek
Encoding: 261 261 234
Width: 500
VWidth: 1600
Flags: W
HStem: -200 100<300 400> 200 100<100 300> 400 100<100 300>
VStem: 0 100<0 200> 200 100<-100 0> 300 100<100 200 300 400>
LayerCount: 2
Fore
SplineSet
200 -200 m 1xf8
 200 100 l 1xf8
 233 100 267 100 300 100 c 1
 300 200 l 1
 233 200 167 200 100 200 c 1
 100 133 100 67 100 0 c 1
 67 0 33 0 0 0 c 1
 0 67 0 133 0 200 c 1
 100 200 l 1
 100 233 100 267 100 300 c 1
 167 300 233 300 300 300 c 1
 300 400 l 1
 400 400 l 1
 400 267 400 133 400 0 c 1xf4
 367 0 333 0 300 0 c 1
 300 -100 l 1xf8
 400 -100 l 1
 400 -200 l 1xf4
 200 -200 l 1xf8
300 400 m 1xf4
 233 400 167 400 100 400 c 1
 100 500 l 1
 167 500 233 500 300 500 c 1
 300 467 300 433 300 400 c 1xf4
EndSplineSet
Validated: 5
EndChar
StartChar: dcroat
Encoding: 273 273 638
Width: 500
VWidth: 1600
Flags: W
HStem: 0 100<100 300> 400 100<100 300> 600 100<100 300 400 500>
VStem: 0 100<100 400> 100 300<0 100 400 500> 300 100<100 400 500 600 700 800>
AnchorPoint: "bottom-adjoined" 250 0 basechar 0
AnchorPoint: "bottom" 250 -100 basechar 0
AnchorPoint: "top" 350 800 basechar 0
LayerCount: 2
Fore
SplineSet
100 600 m 1xe8
 100 700 l 1xe8
 300 700 l 1
 300 800 l 1
 400 800 l 1
 400 700 l 1
 500 700 l 1
 500 667 500 633 500 600 c 1
 400 600 l 1xe4
 400 0 l 1
 300 0 200 0 100 0 c 1xe8
 100 100 l 1
 0 100 l 1
 0 400 l 1
 100 400 l 1xf0
 100 500 l 1xe8
 167 500 233 500 300 500 c 1
 300 600 l 1xe4
 100 600 l 1xe8
100 400 m 1xf4
 100 100 l 1
 167 100 233 100 300 100 c 1
 300 400 l 1
 233 400 167 400 100 400 c 1xf4
EndSplineSet
Validated: 5
EndChar
StartChar: eogonek
Encoding: 281 281 236
Width: 500
VWidth: 1600
Flags: W
HStem: -200 100<300 400> 0 100<100 200 300 400> 200 100<100 300> 400 100<100 300>
VStem: 0 100<100 200 300 400> 200 100<-100 0> 300 100<300 400>
LayerCount: 2
Fore
SplineSet
200 0 m 1xfc
 100 0 l 1
 100 100 l 1
 167 100 333 100 400 100 c 1
 400 67 400 33 400 0 c 1xfa
 300 0 l 1
 300 -100 l 1xfc
 400 -100 l 1
 400 -200 l 1xfa
 200 -200 l 1
 200 0 l 1xfc
100 100 m 1
 0 100 l 1
 0 400 l 1
 100 400 l 1
 100 300 l 1
 167 300 233 300 300 300 c 1
 300 400 l 1
 400 400 l 1
 400 333 400 267 400 200 c 1
 100 200 l 1
 100 100 l 1
100 400 m 1
 100 500 l 1
 167 500 233 500 300 500 c 1
 300 400 l 1
 233 400 167 400 100 400 c 1
EndSplineSet
Validated: 5
EndChar
StartChar: hbar
Encoding: 295 295 238
Width: 600
VWidth: 1600
Flags: W
HStem: 400 100<200 400> 600 100<0 100 200 400>
VStem: 100 100<0 400 500 600 700 800> 400 100<0 400>
LayerCount: 2
Fore
SplineSet
0 600 m 1
 0 700 l 1
 100 700 l 1
 100 800 l 1
 200 800 l 1
 200 700 l 1
 400 700 l 1
 400 667 400 633 400 600 c 1
 200 600 l 1
 200 500 l 1
 267 500 333 500 400 500 c 1
 400 400 l 1
 500 400 l 1
 500 267 500 133 500 0 c 1
 400 0 l 1
 400 133 400 267 400 400 c 1
 333 400 267 400 200 400 c 1
 200 267 200 133 200 0 c 1
 100 0 l 1
 100 600 l 1
 0 600 l 1
EndSplineSet
Validated: 5
EndChar
StartChar: dotlessi
Encoding: 305 305 195
Width: 300
VWidth: 1600
Flags: W
HStem: 400 100<0 100>
VStem: 100 100<0 400>
AnchorPoint: "top-even" 50 600 basechar 0
AnchorPoint: "ogonek" 50 0 basechar 0
AnchorPoint: "bottom-adjoined" 150 0 basechar 0
AnchorPoint: "bottom" 150 -100 basechar 0
AnchorPoint: "top" 150 600 basechar 0
LayerCount: 2
Fore
SplineSet
0 400 m 1
 0 500 l 1
 67 500 133 500 200 500 c 1
 200 0 l 1
 100 0 l 1
 100 400 l 1
 0 400 l 1
EndSplineSet
Validated: 1
EndChar
StartChar: kgreenlandic
Encoding: 312 312 242
Width: 500
VWidth: 1600
Flags: W
HStem: 0 100<300 400> 100 100<200 300> 200 100<100 200> 300 100<200 300> 400 100<300 400>
VStem: 0 100<0 200 300 500> 200 100<100 200 300 400> 300 100<0 100 400 500>
LayerCount: 2
Fore
SplineSet
0 0 m 1xa6
 0 500 l 1
 100 500 l 1
 100 367 100 433 100 300 c 1
 200 300 l 1xae
 200 400 l 1
 300 400 l 1x16
 300 500 l 1
 400 500 l 1
 400 400 l 1x0d
 300 400 l 1
 300 300 l 1x16
 200 300 l 1x26
 200 200 l 1x46
 100 200 l 1
 100 133 100 67 100 0 c 1
 0 0 l 1xa6
200 200 m 1x46
 300 200 l 1x46
 300 100 l 1x86
 200 100 l 1
 200 200 l 1x46
300 100 m 1x86
 400 100 l 1
 400 0 l 1
 300 0 l 1x85
 300 100 l 1x86
EndSplineSet
Validated: 5
EndChar
StartChar: lslash
Encoding: 322 322 207
Width: 400
VWidth: 1600
Flags: W
HStem: 200 100<0 100> 400 100<200 300> 680 20G<100 200>
VStem: 0 100<200 300> 100 100<0 700> 200 100<400 500>
LayerCount: 2
Fore
SplineSet
200 400 m 25xe8
 200 500 l 25xe8
 300 500 l 17
 300 467 300 433 300 400 c 9xe4
 200 400 l 25xe8
0 200 m 25xf0
 0 300 l 25
 100 300 l 25
 100 200 l 25
 0 200 l 25xf0
EndSplineSet
Refer: 69 108 N 1 0 0 1 100 0 2
Validated: 5
EndChar
StartChar: Eng
Encoding: 330 330 640
Width: 700
VWidth: 1600
Flags: W
HStem: -200 100<300 500>
AnchorPoint: "bottom-adjoined" 350 -200 basechar 0
AnchorPoint: "top" 350 800 basechar 0
AnchorPoint: "bottom" 350 -200 basechar 0
LayerCount: 2
Fore
SplineSet
500 600 m 1
 500 467 500 33 500 -100 c 1
 600 -100 l 1
 600 33 600 467 600 600 c 1
 500 600 l 1
500 600 m 1
 500 700 l 1
 367 700 233 700 100 700 c 1
 100 433 100 267 100 0 c 1
 200 0 l 1
 200 0 200 400 200 600 c 1
 500 600 l 1
300 -200 m 25
 300 -100 l 25
 500 -100 l 25
 500 -200 l 25
 300 -200 l 25
EndSplineSet
Validated: 5
EndChar
StartChar: eng
Encoding: 331 331 639
Width: 600
VWidth: 1600
Flags: W
HStem: -200 100<200 400> -100 21G<400 500> 400 100<200 400>
VStem: 100 100<0 400> 400 100<-100 400>
AnchorPoint: "top-even" 250 600 basechar 0
AnchorPoint: "top" 350 600 basechar 0
LayerCount: 2
Fore
SplineSet
200 -200 m 25xb8
 200 -100 l 25
 400 -100 l 1
 400 -200 l 1
 200 -200 l 25xb8
100 0 m 1
 100 500 l 1
 400 500 l 1
 400 400 l 1
 333 400 267 400 200 400 c 1
 200 267 200 133 200 0 c 1
 100 0 l 1
400 400 m 1
 500 400 l 1
 500 267 500 33 500 -100 c 1x78
 400 -100 l 1
 400 33 400 267 400 400 c 1
EndSplineSet
Validated: 5
EndChar
StartChar: OE
Encoding: 338 338 204
Width: 1000
VWidth: 1600
Flags: W
HStem: -100 100<300 500 600 900> 0 100<200 300> 300 100<600 900> 500 100<200 300> 600 100<300 500 600 900>
VStem: 100 100<100 500> 200 100<0 100 500 600> 500 100<0 300 400 600>
AnchorPoint: "bottom" 550 -200 basechar 0
AnchorPoint: "top" 550 800 basechar 0
LayerCount: 2
Fore
SplineSet
300 0 m 1xa3
 500 0 l 1
 500 600 l 1xab
 300 600 l 1
 300 500 l 1x33
 200 500 l 1
 200 367 200 233 200 100 c 1x75
 300 100 l 1x73
 300 0 l 1xa3
300 0 m 1
 200 0 l 1x63
 200 100 l 1
 100 100 l 1
 100 233 100 367 100 500 c 1
 200 500 l 1x75
 200 600 l 1
 300 600 l 1x73
 300 700 l 1
 900 700 l 1
 900 600 l 1
 600 600 l 1
 600 533 600 467 600 400 c 1
 900 400 l 1
 900 300 l 1
 600 300 l 1
 600 0 l 1
 900 0 l 1
 900 -100 l 1
 300 -100 l 1
 300 0 l 1
EndSplineSet
Validated: 5
EndChar
StartChar: oe
Encoding: 339 339 205
Width: 800
VWidth: 1600
Flags: W
HStem: 0 100<100 300 400 600> 100 300<0 100 300 400> 200 100<400 600> 400 100<100 300 400 600>
VStem: 0 100<100 400> 100 200<0 100 400 500> 300 100<100 200 300 400> 400 200<0 100 400 500> 600 100<300 400>
AnchorPoint: "bottom" 350 -100 basechar 0
AnchorPoint: "top" 350 600 basechar 0
LayerCount: 2
Fore
SplineSet
100 100 m 1x88
 167 100 233 100 300 100 c 1
 300 0 l 1
 233 0 167 0 100 0 c 1x84
 100 100 l 1x88
100 100 m 1x88
 0 100 l 1
 0 400 l 1
 100 400 l 1x48
 100 100 l 1x88
100 400 m 1
 100 500 l 1
 167 500 233 500 300 500 c 1x14
 300 400 l 1x44
 233 400 167 400 100 400 c 1
300 400 m 1x44
 400 400 l 1x42
 400 367 400 333 400 300 c 1
 467 300 533 300 600 300 c 1x2280
 600 400 l 1x31
 700 400 l 1
 700 333 700 267 700 200 c 1
 600 200 500 200 400 200 c 1
 400 167 400 133 400 100 c 1xb280
 467 100 533 100 600 100 c 1
 600 0 l 1
 533 0 467 0 400 0 c 1xb1
 400 100 l 1xb2
 300 100 l 1xb4
 300 400 l 1x44
600 400 m 1x11
 533 400 467 400 400 400 c 1x42
 400 500 l 1
 467 500 533 500 600 500 c 1
 600 400 l 1x11
EndSplineSet
Validated: 5
EndChar
StartChar: Tbar
Encoding: 358 358 239
Width: 700
VWidth: 1600
Flags: W
HStem: -100 21G<300 400> 300 100<100 600> 600 100<0 300 400 700>
VStem: 300 100<-100 600>
LayerCount: 2
Fore
SplineSet
100 300 m 25
 100 400 l 25
 600 400 l 25
 600 300 l 25
 100 300 l 25
EndSplineSet
Refer: 48 84 N 1 0 0 1 0 0 2
Validated: 5
EndChar
StartChar: longs
Encoding: 383 383 174
Width: 300
VWidth: 1600
Flags: W
HStem: -200 21G<0 100> 600 100<100 300>
VStem: 0 100<-200 600>
AnchorPoint: "top" 150 800 basechar 0
LayerCount: 2
Fore
SplineSet
100 700 m 1
 167 700 233 700 300 700 c 1
 300 600 l 1
 233 600 167 600 100 600 c 1
 100 700 l 1
0 -200 m 1
 0 600 l 1
 100 600 l 1
 100 -200 l 1
 0 -200 l 1
EndSplineSet
Validated: 5
EndChar
StartChar: uni0180
Encoding: 384 384 693
Width: 600
VWidth: 1600
Flags: W
HStem: 0 100<200 400> 400 100<200 400> 600 100<0 100 200 400>
VStem: 100 100<100 400 500 600 700 800> 400 100<100 400>
LayerCount: 2
Fore
SplineSet
0 600 m 1
 0 700 l 1
 100 700 l 1
 100 800 l 1
 200 800 l 1
 200 700 l 1
 400 700 l 1
 400 667 400 633 400 600 c 1
 200 600 l 1
 200 500 l 1
 400 500 l 1
 400 400 l 1
 500 400 l 1
 500 100 l 1
 400 100 l 1
 400 400 l 1
 200 400 l 1
 200 100 l 1
 400 100 l 1
 400 0 l 1
 200 0 l 1
 200 100 l 1
 100 100 l 1
 100 600 l 1
 0 600 l 1
EndSplineSet
Validated: 5
EndChar
StartChar: uni0182
Encoding: 386 386 643
Width: 700
VWidth: 1600
Flags: W
HStem: -100 100<200 500> 300 100<200 500> 600 100<200 500>
VStem: 100 400<-100 0 300 400 600 700> 100 100<0 300 400 600> 500 100<0 300>
LayerCount: 2
Fore
SplineSet
500 400 m 1xf0
 500 300 l 1xf0
 600 300 l 1
 600 0 l 1xe4
 500 0 l 1
 500 -100 l 1
 100 -100 l 1
 100 700 l 1
 500 700 l 1
 500 600 l 1xf0
 200 600 l 1
 200 400 l 1xe8
 500 400 l 1xf0
500 300 m 1
 200 300 l 1
 200 0 l 1xe8
 500 0 l 1
 500 300 l 1
EndSplineSet
Validated: 5
EndChar
StartChar: uni0183
Encoding: 387 387 694
Width: 500
VWidth: 1600
Flags: W
HStem: 0 100<100 300> 400 100<100 300> 600 100<100 300> 680 20G<0 100>
VStem: 0 100<100 400 500 700> 300 100<100 400>
LayerCount: 2
Fore
SplineSet
100 600 m 29xec
 100 700 l 29
 300 700 l 29
 300 600 l 29
 100 600 l 29xec
EndSplineSet
Refer: 59 98 S 1 0 0 1 0 0 2
Validated: 5
EndChar
StartChar: uni0184
Encoding: 388 388 663
Width: 800
VWidth: 1600
Flags: W
HStem: -100 100<300 600> 300 100<300 600> 600 100<0 200>
VStem: 200 100<0 300 400 600> 600 100<0 300>
LayerCount: 2
Fore
SplineSet
600 400 m 1
 600 300 l 1
 700 300 l 1
 700 0 l 1
 600 0 l 1
 600 -100 l 1
 200 -100 l 1
 200 600 l 1
 -0 600 l 1
 -0 700 l 1
 300 700 l 1
 300 400 l 1
 600 400 l 1
600 300 m 1
 300 300 l 1
 300 0 l 1
 600 0 l 1
 600 300 l 1
EndSplineSet
Validated: 5
EndChar
StartChar: uni0185
Encoding: 389 389 695
Width: 600
VWidth: 1600
Flags: W
HStem: 0 100<200 400> 100 100<400 500> 400 100<0 100>
VStem: 100 100<100 200 300 400> 400 100<100 200>
LayerCount: 2
Fore
SplineSet
400 100 m 1xb8
 400 0 l 1
 333 0 267 0 200 0 c 1
 200 100 l 1
 267 100 333 100 400 100 c 1xb8
400 100 m 1
 400 200 l 1
 500 200 l 1
 500 100 l 1x78
 400 100 l 1
200 100 m 1xb8
 100 100 l 1
 100 400 l 1
 -0 400 l 1
 -0 500 l 1
 67 500 133 500 200 500 c 1
 200 433 200 367 200 300 c 1
 267 300 333 300 400 300 c 1
 400 200 l 1
 333 200 267 200 200 200 c 1x78
 200 100 l 1xb8
EndSplineSet
Validated: 5
EndChar
StartChar: uni0188
Encoding: 392 392 696
Width: 400
VWidth: 1600
Flags: W
HStem: 0 100<100 300> 400 100<100 300> 600 100<300 400>
VStem: 0 100<100 400> 100 200<0 100 400 500> 200 100<400 600> 300 100<600 700>
LayerCount: 2
Fore
SplineSet
200 400 m 25xe4
 200 600 l 1
 300 600 l 1xe4
 300 400 l 25xe8
 200 400 l 25xe4
300 600 m 25
 300 700 l 25
 400 700 l 25
 400 600 l 25xe2
 300 600 l 25
EndSplineSet
Refer: 60 99 N 1 0 0 1 0 0 2
Validated: 5
EndChar
StartChar: uni018A
Encoding: 394 394 642
Width: 900
VWidth: 1600
Flags: W
HStem: -100 100<300 600> 0 100<600 700> 500 100<600 700> 600 100<100 200 300 600>
VStem: -0 100<400 600> 100 100<600 700> 200 100<0 600> 600 100<0 100 500 600> 700 100<100 500>
LayerCount: 2
Fore
SplineSet
-0 400 m 25x18
 -0 600 l 1
 100 600 l 1
 100 400 l 25
 -0 400 l 25x18
100 600 m 25
 100 700 l 25
 200 700 l 25
 200 600 l 25x14
 100 600 l 25
EndSplineSet
Refer: 32 68 N 1 0 0 1 100 0 2
Validated: 5
EndChar
StartChar: uni018C
Encoding: 396 396 697
Width: 500
VWidth: 1600
Flags: W
HStem: 0 100<100 300> 400 100<100 300> 600 100<100 300> 680 20G<300 400>
VStem: 0 100<100 400> 100 300<0 100 400 500> 300 100<100 400 500 700>
LayerCount: 2
Fore
SplineSet
100 600 m 25xe4
 100 700 l 25xe4
 300 700 l 25
 300 600 l 25xe2
 100 600 l 25xe4
EndSplineSet
Refer: 61 100 N 1 0 0 1 0 0 2
Validated: 5
EndChar
StartChar: uni0190
Encoding: 400 400 664
Width: 600
VWidth: 1600
Flags: W
HStem: 300 100<200 500> 600 100<200 500>
VStem: 100 100<0 300 400 600> 200 300<300 400 600 700>
AnchorPoint: "bottom" 350 -200 basechar 0
AnchorPoint: "top-even" 250 800 basechar 0
AnchorPoint: "top" 350 800 basechar 0
LayerCount: 2
Fore
SplineSet
100 600 m 1xe0
 200 600 l 1xe0
 200 700 l 1
 500 700 l 1
 500 600 l 1xd0
 200 600 l 1
 200 533 200 467 200 400 c 1xe0
 500 400 l 1
 500 300 l 1xd0
 200 300 l 1
 200 0 l 1
 100 0 l 1
 100 300 l 9
 200 300 l 25
 200 400 l 25
 100 400 l 25
 100 600 l 1xe0
200 0 m 1
 200 -100 l 1
 500 -100 l 1
 500 0 l 1xd0
 200 0 l 1
EndSplineSet
Validated: 5
EndChar
StartChar: florin
Encoding: 402 402 214
Width: 400
VWidth: 1600
Flags: W
HStem: -200 100<-100 100> -100 21G<100 200> 300 100<0 100 200 300> 600 100<200 400>
VStem: 100 100<-100 300 400 600>
LayerCount: 2
Fore
SplineSet
0 300 m 25x38
 0 400 l 25
 100 400 l 25
 100 300 l 25
 0 300 l 25x38
-100 -200 m 17xb8
 -100 -167 -100 -133 -100 -100 c 9
 100 -100 l 1
 100 -200 l 1
 -100 -200 l 17xb8
100 -100 m 1
 100 300 l 17
 133 300 167 300 200 300 c 9
 200 -100 l 1x78
 100 -100 l 1
200 700 m 1
 267 700 333 700 400 700 c 1
 400 600 l 1
 333 600 267 600 200 600 c 1
 200 700 l 1
100 300 m 1
 100 600 l 1
 200 600 l 1
 200 400 l 1
 267 400 233 400 300 400 c 1
 300 300 l 1
 233 300 267 300 200 300 c 1
 167 300 133 300 100 300 c 1
EndSplineSet
Validated: 5
EndChar
StartChar: uni0193
Encoding: 403 403 649
Width: 800
VWidth: 1600
Flags: W
HStem: -100 100<300 600> 0 100<200 300> 500 100<200 300> 600 100<300 600> 800 100<600 700>
VStem: 100 100<100 500> 200 100<0 100 500 600> 300 300<-100 0 600 700> 500 100<600 800> 600 100<0 300 800 900>
LayerCount: 2
Fore
SplineSet
500 600 m 29x1880
 500 800 l 5
 600 800 l 5x1880
 600 600 l 29x19
 500 600 l 29x1880
600 800 m 29
 600 900 l 29
 700 900 l 29
 700 800 l 29x0840
 600 800 l 29
EndSplineSet
Refer: 35 71 N 1 0 0 1 0 0 2
Validated: 5
EndChar
StartChar: uni0194
Encoding: 404 404 667
Width: 700
VWidth: 1600
Flags: W
HStem: -200 100<300 400> -100 100<200 300 400 500> 0 100<300 400> 100 200<200 300 400 500> 300 200<100 200 500 600> 500 200<0 100 600 700>
VStem: 0 100<500 700> 100 100<300 500> 200 100<-100 0 100 300> 300 100<-200 -100 0 100> 400 100<-100 0 100 300> 500 100<300 500> 600 100<500 700>
LayerCount: 2
Fore
SplineSet
300 -100 m 1x8080
 400 -100 l 1
 400 -200 l 1
 300 -200 l 1x8040
 300 -100 l 1x8080
200 0 m 1x4080
 300 0 l 1x4080
 300 -100 l 1x8080
 200 -100 l 1
 200 0 l 1x4080
400 0 m 1x4040
 500 0 l 1
 500 -100 l 1x4020
 400 -100 l 1x8040
 400 0 l 1x4040
0 500 m 1x06
 0 700 l 1
 100 700 l 1x06
 100 500 l 1x0a
 0 500 l 1x06
100 500 m 1x0a
 200 500 l 1x09
 200 300 l 1x11
 100 300 l 1x09
 100 500 l 1x0a
200 300 m 1x11
 300 300 l 1x1080
 300 100 l 1x2080
 200 100 l 1x1080
 200 300 l 1x11
300 100 m 1x2080
 400 100 l 1x2040
 400 0 l 1x4040
 300 0 l 1x4080
 300 100 l 1x2080
400 100 m 1
 400 300 l 1
 500 300 l 1
 500 100 l 1x1020
 400 100 l 1
500 300 m 1
 500 500 l 1
 600 500 l 1
 600 300 l 1x0810
 500 300 l 1
600 500 m 1
 600 700 l 1
 700 700 l 1
 700 500 l 1x0408
 600 500 l 1
EndSplineSet
Validated: 5
EndChar
StartChar: uni0196
Encoding: 406 406 650
Width: 400
VWidth: 1600
Flags: W
HStem: -100 100<200 400> 680 20G<100 200>
VStem: 100 100<0 700>
LayerCount: 2
Fore
SplineSet
100 0 m 1
 100 267 100 433 100 700 c 1
 200 700 l 1
 200 433 200 267 200 0 c 1
 100 0 l 1
200 -100 m 25
 200 0 l 25
 400 0 l 25
 400 -100 l 25
 200 -100 l 25
EndSplineSet
Validated: 5
EndChar
StartChar: uni0198
Encoding: 408 408 652
Width: 900
VWidth: 1600
Flags: W
HStem: -100 100<600 700> 0 100<500 600> 100 100<400 500> 400 100<400 500> 500 100<500 600 800 900> 600 100<600 700 700 800>
VStem: 100 100<-100 700> 300 100<200 400> 400 100<100 200 400 500> 500 100<0 100 500 600> 600 100<-100 0 600 700> 700 100<600 700> 800 100<500 600>
LayerCount: 2
Fore
SplineSet
800 500 m 1x0a08
 800 600 l 1x0a10
 900 600 l 1
 900 500 l 1
 800 500 l 1x0a08
700 600 m 1x0620
 700 700 l 1x0620
 800 700 l 1x0610
 800 600 l 1x0a10
 700 600 l 1x0620
EndSplineSet
Refer: 39 75 N 1 0 0 1 0 0 2
Validated: 5
EndChar
StartChar: uni0199
Encoding: 409 409 698
Width: 500
VWidth: 1600
Flags: W
HStem: 0 100<300 400> 100 100<200 300> 200 100<100 200> 300 100<200 300> 400 100<300 400> 680 20G<0 100> 700 100<100 300>
VStem: 0 100<0 200 300 700> 200 100<100 200 300 400> 300 100<0 100 400 500>
LayerCount: 2
Fore
SplineSet
100 700 m 25x0540
 100 800 l 25
 300 800 l 25
 300 700 l 25x0340
 100 700 l 25x0540
EndSplineSet
Refer: 68 107 N 1 0 0 1 0 0 2
Validated: 5
EndChar
StartChar: uni019A
Encoding: 410 410 699
Width: 400
VWidth: 1600
Flags: W
HStem: 300 100<0 300> 680 20G<100 200>
VStem: 0 300<300 400> 100 100<0 700>
LayerCount: 2
Fore
SplineSet
0 300 m 25xe0
 0 400 l 25
 300 400 l 25
 300 300 l 25
 0 300 l 25xe0
EndSplineSet
Refer: 69 108 N 1 0 0 1 100 0 2
Validated: 5
EndChar
StartChar: uni019B
Encoding: 411 411 784
Width: 600
VWidth: 1600
Flags: W
LayerCount: 2
Fore
SplineSet
300 400 m 1
 300 600 l 1
 400 600 l 1
 400 700 l 25
 200 700 l 25
 200 600 l 1
 100 600 l 1
 100 500 l 1
 200 500 l 1
 200 400 l 1
 300 400 l 1
300 400 m 1
 300 100 l 1
 400 100 l 1
 400 400 l 1
 300 400 l 1
200 400 m 1
 100 400 l 1
 100 200 l 1
 200 200 l 1
 200 400 l 1
100 200 m 25
 0 200 l 25
 0 0 l 25
 100 0 l 25
 100 200 l 25
400 100 m 25
 400 0 l 1
 500 0 l 1
 500 100 l 25
 400 100 l 25
200 700 m 1
 200 800 l 1
 100 800 l 1
 100 700 l 1
 200 700 l 1
EndSplineSet
Validated: 5
EndChar
StartChar: uni019C
Encoding: 412 412 666
Width: 900
VWidth: 1600
Flags: W
LayerCount: 2
Fore
SplineSet
400 0 m 1
 200 0 l 1
 200 -100 l 1
 333 -100 667 -100 800 -100 c 1
 800 167 800 433 800 700 c 1
 700 700 l 1
 700 700 700 200 700 0 c 1
 500 0 l 1
 500 133 500 567 500 700 c 1
 467 700 433 700 400 700 c 1
 400 567 400 133 400 0 c 1
200 0 m 1
 200 133 200 567 200 700 c 1
 100 700 l 1
 100 567 100 133 100 0 c 1
 200 0 l 1
EndSplineSet
Validated: 5
EndChar
StartChar: uni019D
Encoding: 413 413 668
Width: 800
VWidth: 1600
Flags: W
HStem: -200 100<0 200>
AnchorPoint: "bottom-adjoined" 450 -200 basechar 0
AnchorPoint: "top" 450 800 basechar 0
AnchorPoint: "bottom" 450 -200 basechar 0
LayerCount: 2
Fore
SplineSet
600 600 m 1
 600 467 600 133 600 0 c 1
 700 0 l 1
 700 133 700 467 700 600 c 1
 600 600 l 1
600 600 m 1
 600 700 l 1
 467 700 333 700 200 700 c 1
 200 433 200 167 200 -100 c 1
 300 -100 l 1
 300 -100 300 400 300 600 c 1
 600 600 l 1
-0 -200 m 25
 -0 -100 l 25
 200 -100 l 25
 200 -200 l 25
 -0 -200 l 25
EndSplineSet
Validated: 5
EndChar
StartChar: uni019E
Encoding: 414 414 700
Width: 500
VWidth: 1600
Flags: W
HStem: -200 21G<300 400> 400 100<100 300>
VStem: 0 100<0 400> 300 100<-200 400>
LayerCount: 2
Fore
SplineSet
0 0 m 1
 0 500 l 1
 300 500 l 1
 300 400 l 1
 233 400 167 400 100 400 c 1
 100 267 100 133 100 0 c 1
 0 0 l 1
300 400 m 1
 400 400 l 1
 400 267 400 -67 400 -200 c 1
 300 -200 l 1
 300 -67 300 267 300 400 c 1
EndSplineSet
Validated: 5
EndChar
StartChar: Ohorn
Encoding: 416 416 258
Width: 900
VWidth: 1600
Flags: W
HStem: -100 100<300 600> 0 100<200 300 600 700> 480 20G<100 200 700 800> 500 100<200 300 600 700> 600 100<300 600>
VStem: 100 100<100 500> 200 100<0 100 500 600> 300 300<-100 0 600 700> 600 100<0 100 500 600> 700 100<100 500> 800 100<500 700>
AnchorPoint: "ogonek" 450 -100 basechar 0
AnchorPoint: "bottom-adjoined" 450 -100 basechar 0
AnchorPoint: "bottom" 450 -200 basechar 0
AnchorPoint: "top" 450 800 basechar 0
LayerCount: 2
Fore
SplineSet
800 500 m 1x2040
 800 700 l 1
 900 700 l 1x2820
 900 500 l 1x1020
 800 500 l 1x2040
300 600 m 1x12
 300 700 l 1
 600 700 l 1x09
 600 600 l 1x11
 300 600 l 1x12
300 600 m 1x12
 300 500 l 1x12
 200 500 l 1x24
 200 600 l 1
 300 600 l 1x12
600 600 m 1x11
 700 600 l 1x1080
 700 500 l 1x2080
 600 500 l 1x1080
 600 600 l 1x11
200 500 m 1x64
 200 367 200 233 200 100 c 1
 100 100 l 1
 100 233 100 367 100 500 c 1
 200 500 l 1x64
700 500 m 1x6080
 800 500 l 1
 800 367 800 233 800 100 c 1x6040
 700 100 l 1
 700 233 700 367 700 500 c 1x6080
200 100 m 1x44
 300 100 l 1x42
 300 0 l 1x82
 200 0 l 1x42
 200 100 l 1x44
700 100 m 1x4080
 700 0 l 1x4080
 600 0 l 1x81
 600 100 l 1
 700 100 l 1x4080
600 0 m 1x81
 600 -100 l 1
 300 -100 l 1x81
 300 0 l 1x82
 600 0 l 1x81
EndSplineSet
Validated: 5
EndChar
StartChar: ohorn
Encoding: 417 417 259
Width: 600
VWidth: 1600
Flags: W
HStem: 0 100<100 300> 100 300<0 100 300 400> 400 100<100 300>
VStem: 0 100<100 400> 100 200<0 100 400 500> 300 100<100 400> 400 100<400 600>
AnchorPoint: "ogonek" 150 0 basechar 0
AnchorPoint: "bottom-adjoined" 250 0 basechar 0
AnchorPoint: "bottom" 250 -100 basechar 0
AnchorPoint: "top-even" 150 600 basechar 0
AnchorPoint: "top" 250 600 basechar 0
LayerCount: 2
Fore
SplineSet
400 400 m 25x44
 400 600 l 25
 500 600 l 25
 500 400 l 25x22
 400 400 l 25x44
100 400 m 1x50
 100 500 l 1
 167 500 233 500 300 500 c 1x28
 300 400 l 1x48
 233 400 167 400 100 400 c 1x50
100 400 m 1x50
 100 100 l 1x90
 0 100 l 1
 0 400 l 1
 100 400 l 1x50
300 400 m 1x48
 400 400 l 1
 400 100 l 1x44
 300 100 l 1x88
 300 400 l 1x48
300 100 m 1x88
 300 0 l 1
 233 0 167 0 100 0 c 1x88
 100 100 l 1x90
 167 100 233 100 300 100 c 1x88
EndSplineSet
Validated: 5
EndChar
StartChar: uni01A3
Encoding: 419 419 701
Width: 700
VWidth: 1600
Flags: W
HStem: -200 21G<500 600> 0 100<100 300> 400 100<100 300 400 500>
VStem: 0 100<100 400> 300 100<100 400> 500 100<-200 400>
LayerCount: 2
Fore
SplineSet
300 100 m 1
 300 0 l 1
 233 0 167 0 100 0 c 1
 100 100 l 1
 167 100 233 100 300 100 c 1
300 100 m 1
 300 400 l 1
 100 400 l 1
 100 100 l 1
 0 100 l 1
 0 400 l 1
 100 400 l 1
 100 500 l 1
 167 500 533 500 600 500 c 1
 600 267 600 33 600 -200 c 1
 500 -200 l 1
 500 400 l 1
 400 400 l 1
 400 100 l 1
 300 100 l 1
EndSplineSet
Validated: 5
EndChar
StartChar: uni01A5
Encoding: 421 421 702
Width: 500
VWidth: 1600
Flags: W
HStem: 400 100<0 300> 600 100<100 200>
VStem: 0 100<400 600> 100 100<600 700> 300 100<100 400>
LayerCount: 2
Fore
SplineSet
0 400 m 25xe8
 0 600 l 1
 100 600 l 1
 100 400 l 25
 0 400 l 25xe8
100 600 m 25
 100 700 l 25
 200 700 l 25
 200 600 l 25xd8
 100 600 l 25
EndSplineSet
Refer: 73 112 N 1 0 0 1 0 0 2
Validated: 5
EndChar
StartChar: uni01A7
Encoding: 423 423 670
Width: 600
VWidth: 1600
Flags: W
LayerCount: 2
Fore
SplineSet
400 700 m 1
 100 700 l 1
 100 600 l 1
 400 600 l 1
 400 700 l 1
400 600 m 1
 400 533 400 467 400 400 c 1
 500 400 l 1
 500 467 500 533 500 600 c 1
 400 600 l 1
400 400 m 1
 300 400 l 1
 300 300 l 1
 400 300 l 1
 400 400 l 1
300 300 m 1
 200 300 l 1
 200 200 l 1
 300 200 l 1
 300 300 l 1
200 200 m 1
 100 200 l 1
 100 133 100 67 100 0 c 1
 200 0 l 1
 200 67 200 133 200 200 c 1
200 0 m 1
 200 -100 l 1
 500 -100 l 1
 500 0 l 1
 200 0 l 1
EndSplineSet
Validated: 5
EndChar
StartChar: uni01A8
Encoding: 424 424 703
Width: 400
VWidth: 1600
Flags: W
LayerCount: 2
Fore
SplineSet
200 500 m 1
 133 500 67 500 0 500 c 1
 0 400 l 1
 67 400 133 400 200 400 c 1
 200 500 l 1
200 400 m 1
 200 300 l 1
 300 300 l 1
 300 400 l 1
 200 400 l 1
200 300 m 1
 100 300 l 1
 100 200 l 1
 200 200 l 1
 200 300 l 1
100 200 m 1
 0 200 l 1
 0 100 l 1
 100 100 l 1
 100 200 l 1
100 100 m 1
 100 0 l 1
 167 0 233 0 300 0 c 1
 300 100 l 1
 233 100 167 100 100 100 c 1
EndSplineSet
Validated: 5
EndChar
StartChar: uni01A9
Encoding: 425 425 704
Width: 700
VWidth: 1600
Flags: W
HStem: -100 100<200 600> 100 100<200 300> 400 100<200 300> 600 100<200 600>
VStem: 100 100<0 100 500 600> 200 100<100 200 400 500> 300 100<200 400>
LayerCount: 2
Fore
SplineSet
400 200 m 1xf2
 300 200 l 1
 300 100 l 1xf4
 200 100 l 1
 200 0 l 1
 600 0 l 1
 600 -100 l 1
 400 -100 300 -100 100 -100 c 1
 100 -33 100 33 100 100 c 1
 200 100 l 1xf8
 200 200 l 1
 300 200 l 1xf4
 300 300 l 1xf2
 300 400 l 1
 200 400 l 1xf4
 200 500 l 1
 100 500 l 1
 100 567 100 633 100 700 c 1
 300 700 400 700 600 700 c 1
 600 600 l 1
 200 600 l 1
 200 500 l 1xf8
 300 500 l 1
 300 400 l 1xf4
 400 400 l 1
 400 200 l 1xf2
EndSplineSet
Validated: 5
EndChar
StartChar: uni01AD
Encoding: 429 429 705
Width: 400
VWidth: 1600
Flags: W
HStem: 0 100<100 300> 400 100<100 300> 500 21G<0 100> 680 20G<0 100> 700 100<100 200>
VStem: 0 100<100 400 500 600 500 700> 100 100<700 800>
LayerCount: 2
Fore
SplineSet
0 500 m 25xa4
 0 700 l 1
 100 700 l 1
 100 500 l 25xd4
 0 500 l 25xa4
100 700 m 25
 100 800 l 25
 200 800 l 25
 200 700 l 25x8a
 100 700 l 25
EndSplineSet
Refer: 77 116 N 1 0 0 1 0 0 2
Validated: 5
EndChar
StartChar: Uhorn
Encoding: 431 431 260
Width: 1000
VWidth: 1600
Flags: W
HStem: -100 100<300 600> 0 100<200 300 600 700> 400 100<800 900> 680 20G<100 200 700 800 900 1000>
VStem: 100 100<100 700> 200 100<0 100> 600 100<0 100> 700 100<100 400 500 700> 900 100<500 700>
AnchorPoint: "bottom" 450 -200 basechar 0
AnchorPoint: "ogonek" 450 -100 basechar 0
AnchorPoint: "bottom-adjoined" 450 -100 basechar 0
AnchorPoint: "top" 450 800 basechar 0
LayerCount: 2
Fore
SplineSet
600 0 m 1xb680
 600 -100 l 1
 300 -100 l 1
 300 0 l 1
 600 0 l 1xb680
600 0 m 1
 600 100 l 1
 700 100 l 1
 700 0 l 1x7280
 600 0 l 1
700 100 m 1
 700 300 700 500 700 700 c 1
 800 700 l 1
 800 500 l 1
 900 500 l 1
 900 700 l 1
 1000 700 l 1
 1000 633 1000 567 1000 500 c 1
 967 500 933 500 900 500 c 1
 900 400 l 1
 800 400 l 1
 800 100 l 1x7180
 700 100 l 1
300 0 m 1xb480
 200 0 l 1x7480
 200 100 l 1x7880
 300 100 l 1x7480
 300 0 l 1xb480
200 100 m 1x7880
 100 100 l 1
 100 300 100 500 100 700 c 1
 200 700 l 1
 200 500 200 300 200 100 c 1x7880
EndSplineSet
Validated: 5
EndChar
StartChar: uhorn
Encoding: 432 432 261
Width: 700
VWidth: 1600
Flags: W
HStem: 0 100<100 300> 300 100<400 500> 480 20G<0 100 300 400>
VStem: 0 100<100 500> 300 100<100 300 400 500> 500 100<400 600>
AnchorPoint: "top" 250 600 basechar 0
AnchorPoint: "bottom" 250 -100 basechar 0
AnchorPoint: "bottom-adjoined" 250 0 basechar 0
AnchorPoint: "top-even" 150 600 basechar 0
AnchorPoint: "ogonek" 250 0 basechar 0
LayerCount: 2
Fore
SplineSet
400 0 m 1
 100 0 l 1
 100 100 l 1
 167 100 233 100 300 100 c 1
 300 233 300 367 300 500 c 1
 400 500 l 1
 400 400 l 1
 500 400 l 1
 500 600 l 1
 600 600 l 1
 600 400 l 1
 500 400 l 1
 500 300 l 1
 400 300 l 1
 400 0 l 1
100 100 m 1
 0 100 l 1
 0 233 0 367 0 500 c 1
 100 500 l 1
 100 367 100 233 100 100 c 1
EndSplineSet
Validated: 5
EndChar
StartChar: uni01B2
Encoding: 434 434 692
Width: 900
VWidth: 1600
Flags: W
HStem: -100 100<300 600> 0 100<200 300 600 700> 600 100<500 700>
VStem: 100 100<100 700> 200 100<0 100> 600 100<0 100> 700 100<100 600>
LayerCount: 2
Fore
SplineSet
700 600 m 25x22
 500 600 l 25
 500 700 l 25
 700 700 l 25
 700 600 l 25x22
200 100 m 1x70
 100 100 l 1
 100 300 100 500 100 700 c 1
 200 700 l 1
 200 500 200 300 200 100 c 1x70
200 100 m 1
 300 100 l 1x68
 300 0 l 1xa8
 200 0 l 1x68
 200 100 l 1
700 100 m 1x64
 700 300 700 400 700 600 c 1
 800 600 l 1
 800 400 800 300 800 100 c 1x62
 700 100 l 1x64
700 100 m 1x64
 700 0 l 1x64
 600 0 l 1xa4
 600 100 l 1
 700 100 l 1x64
600 0 m 1xac
 600 -100 l 1
 300 -100 l 1
 300 0 l 1
 600 0 l 1xac
EndSplineSet
Validated: 5
EndChar
StartChar: uni01B3
Encoding: 435 435 657
Width: 700
VWidth: 1600
Flags: W
HStem: -100 21G<300 400> 300 100<200 300> 480 20G<400 500> 500 21G<500 600> 600 100<0 100> 700 100<600 800>
VStem: 0 100<600 700> 100 100<400 600> 200 100<300 400> 300 100<-100 300> 400 100<300 500> 500 100<500 700>
LayerCount: 2
Fore
SplineSet
100 600 m 1xca
 0 600 l 1
 0 700 l 1
 100 700 l 1
 100 600 l 1xca
100 600 m 1
 200 600 l 1
 200 533 200 467 200 400 c 1
 100 400 l 1xc9
 100 467 100 533 100 600 c 1
600 700 m 1xc410
 600 800 l 1
 800 800 l 1
 800 700 l 1
 600 700 l 1xc410
600 700 m 1
 600 633 600 567 600 500 c 1xd410
 500 500 l 1xe020
 500 567 500 633 500 700 c 1
 600 700 l 1
200 400 m 1xc1
 300 400 l 1
 300 300 l 1
 200 300 l 1xc080
 200 400 l 1xc1
500 500 m 1xe020
 500 300 l 1xe020
 400 300 l 1xe040
 400 500 l 1
 500 500 l 1xe020
400 300 m 1xc040
 400 167 400 33 400 -100 c 1
 300 -100 l 1xc040
 300 33 300 167 300 300 c 1xc080
 400 300 l 1xc040
EndSplineSet
Validated: 5
EndChar
StartChar: uni01B4
Encoding: 436 436 706
Width: 500
VWidth: 1600
Flags: W
HStem: -200 100<0 200> -100 21G<200 300> 480 20G<0 100 300 400> 600 100<400 600>
VStem: 0 100<300 500> 100 100<100 300> 200 100<-100 100> 300 100<100 500 400 600>
LayerCount: 2
Fore
SplineSet
300 400 m 25x31
 300 600 l 1
 400 600 l 1
 400 400 l 25
 300 400 l 25x31
400 600 m 1
 400 700 l 1
 600 700 l 25
 600 600 l 25
 400 600 l 1
EndSplineSet
Refer: 82 121 N 1 0 0 1 0 0 2
Validated: 5
EndChar
StartChar: uni01B5
Encoding: 437 437 658
Width: 800
VWidth: 1600
Flags: W
HStem: -100 100<200 700> 100 100<200 300> 200 100<300 400> 300 100<100 700 400 500> 400 100<500 600> 600 100<100 600>
VStem: 100 100<0 100> 200 100<100 200> 300 100<200 300> 400 100<300 400> 500 100<400 500> 600 100<500 600>
LayerCount: 2
Fore
SplineSet
100 300 m 29x9610
 100 400 l 29
 700 400 l 29
 700 300 l 29
 100 300 l 29x9610
EndSplineSet
Refer: 54 90 N 1 0 0 1 0 0 2
Validated: 5
EndChar
StartChar: uni01B7
Encoding: 439 439 263
Width: 700
Flags: W
HStem: -200 100<100 500> 200 100<200 300 400 500> 400 100<400 500> 500 21G<500 600> 600 100<100 500>
VStem: 300 100<300 400> 400 100<400 500> 500 100<-100 200 500 600>
AnchorPoint: "bottom" 350 -300 basechar 0
AnchorPoint: "top" 350 800 basechar 0
LayerCount: 2
Fore
SplineSet
100 600 m 1xe9
 100 700 l 1
 600 700 l 1
 600 633 600 567 600 500 c 1xd9
 500 500 l 1xea
 500 600 l 1
 367 600 233 600 100 600 c 1xe9
200 200 m 1
 200 300 l 1
 300 300 l 1
 300 400 l 1
 400 400 l 1xed
 400 500 l 1
 500 500 l 1
 500 400 l 1xea
 400 400 l 1
 400 300 l 1xec
 500 300 l 1
 500 200 l 1
 200 200 l 1
100 -200 m 1
 100 -100 l 1
 233 -100 367 -100 500 -100 c 1
 500 200 l 1
 600 200 l 1
 600 -100 l 1
 500 -100 l 1
 500 -200 l 1
 367 -200 233 -200 100 -200 c 1
EndSplineSet
Validated: 5
EndChar
StartChar: uni01B8
Encoding: 440 440 730
Width: 700
Flags: W
LayerCount: 2
Fore
SplineSet
600 600 m 1
 600 700 l 1
 100 700 l 1
 100 633 100 567 100 500 c 1
 200 500 l 1
 200 600 l 1
 333 600 467 600 600 600 c 1
500 200 m 1
 500 300 l 1
 400 300 l 1
 400 400 l 1
 300 400 l 1
 300 500 l 1
 200 500 l 1
 200 400 l 1
 300 400 l 1
 300 300 l 1
 200 300 l 1
 200 200 l 1
 500 200 l 1
600 -200 m 1
 600 -100 l 1
 467 -100 333 -100 200 -100 c 1
 200 200 l 1
 100 200 l 1
 100 -100 l 1
 200 -100 l 1
 200 -200 l 1
 333 -200 467 -200 600 -200 c 1
EndSplineSet
Validated: 5
EndChar
StartChar: uni01B9
Encoding: 441 441 731
Width: 400
Flags: W
VStem: 0 300
LayerCount: 2
Fore
SplineSet
300 400 m 1
 300 500 l 1
 0 500 l 1
 0 433 0 367 0 300 c 1
 100 300 l 1
 100 400 l 1
 167 400 233 400 300 400 c 1
300 100 m 1
 300 200 l 1
 200 200 l 1
 200 300 l 1
 100 300 l 1
 100 233 100 167 100 100 c 1
 167 100 233 100 300 100 c 1
300 -200 m 1
 300 -100 l 1
 233 -100 167 -100 100 -100 c 1
 100 -33 100 33 100 100 c 1
 0 100 l 1
 0 33 0 -33 0 -100 c 1
 100 -100 l 1
 100 -200 l 1
 167 -200 233 -200 300 -200 c 1
EndSplineSet
Validated: 5
EndChar
StartChar: uni01BD
Encoding: 445 445 709
Width: 500
Flags: W
LayerCount: 2
Fore
SplineSet
0 100 m 1
 0 0 l 1
 300 0 l 1
 300 100 l 1
 400 100 l 1
 400 200 l 1
 300 200 l 1
 300 300 l 1
 200 300 l 1
 200 400 l 1
 400 400 l 1
 400 500 l 1
 0 500 l 1
 0 400 l 1
 100 400 l 1
 100 300 l 1
 200 300 l 1
 200 200 l 1
 300 200 l 1
 300 100 l 1
 0 100 l 1
EndSplineSet
Validated: 5
EndChar
StartChar: uni01C0
Encoding: 448 448 659
Width: 300
Flags: W
HStem: -200 21G<0 100>
VStem: 0 100<-200 300> 100 100<300 800>
LayerCount: 2
Fore
SplineSet
0 -200 m 1xc0
 0 300 l 1
 100 300 l 1
 100 -200 l 1
 0 -200 l 1xc0
100 300 m 1
 100 800 l 1
 200 800 l 1
 200 300 l 1xa0
 100 300 l 1
EndSplineSet
Validated: 5
EndChar
StartChar: uni01C1
Encoding: 449 449 660
Width: 500
Flags: W
HStem: -200 21G<0 100 200 300>
VStem: 0 100<-200 300> 100 100<300 800> 200 100<-200 300> 300 100<300 800>
LayerCount: 2
Fore
SplineSet
200 -200 m 1x90
 200 300 l 1xa0
 300 300 l 1
 300 -200 l 1
 200 -200 l 1x90
300 300 m 1x90
 300 800 l 1
 400 800 l 1
 400 300 l 1x88
 300 300 l 1x90
0 -200 m 1xc0
 0 300 l 1
 100 300 l 1
 100 -200 l 1
 0 -200 l 1xc0
100 300 m 1
 100 800 l 1
 200 800 l 1
 200 300 l 1xa0
 100 300 l 1
EndSplineSet
Validated: 5
EndChar
StartChar: uni01C2
Encoding: 450 450 661
Width: 400
Flags: W
HStem: -200 21G<100 200> 100 100<0 100 200 300> 400 100<0 100 200 300>
VStem: 0 300<100 200 400 500> 100 100<-200 100 200 400 500 800>
LayerCount: 2
Fore
SplineSet
0 400 m 1xf0
 0 500 l 1xf0
 100 500 l 1
 100 800 l 1
 200 800 l 1
 200 500 l 1xe8
 300 500 l 1
 300 400 l 1xf0
 200 400 l 1
 200 333 200 267 200 200 c 1xe8
 300 200 l 1
 300 100 l 1xf0
 200 100 l 1
 200 -200 l 1
 100 -200 l 1
 100 100 l 1xe8
 0 100 l 1
 0 200 l 1xf0
 100 200 l 1
 100 267 100 333 100 400 c 1xe8
 0 400 l 1xf0
EndSplineSet
Validated: 1
EndChar
StartChar: uni01DD
Encoding: 477 477 710
Width: 500
VWidth: 1600
Flags: W
HStem: 0 100<100 300> 200 100<100 300> 400 100<100 300>
VStem: 0 100<100 200> 100 200<0 100 400 500> 300 100<100 200 300 400>
CounterMasks: 1 e0
LayerCount: 2
Fore
SplineSet
100 100 m 1xf0
 167 100 233 100 300 100 c 1
 300 0 l 1
 233 0 167 0 100 0 c 1xe8
 100 100 l 1xf0
100 100 m 1xf4
 0 100 l 1
 0 167 0 233 0 300 c 1
 300 300 l 1xf4
 300 400 l 1xe8
 400 400 l 1
 400 100 l 1xe4
 300 100 l 1xe8
 300 200 l 1
 233 200 167 200 100 200 c 1
 100 100 l 1xf4
300 400 m 1xe8
 233 400 167 400 100 400 c 1
 100 500 l 1
 167 500 233 500 300 500 c 1
 300 400 l 1xe8
EndSplineSet
Validated: 5
EndChar
StartChar: uni01E4
Encoding: 484 484 690
Width: 800
VWidth: 1600
Flags: W
HStem: -100 100<300 600> 0 100<200 300> 200 100<400 800> 500 100<200 300> 600 100<300 600>
VStem: 100 100<100 500> 200 100<0 100 500 600> 300 300<-100 0 600 700> 600 100<0 300>
LayerCount: 2
Fore
SplineSet
400 200 m 25x20
 400 300 l 25
 800 300 l 25
 800 200 l 25
 400 200 l 25x20
EndSplineSet
Refer: 35 71 N 1 0 0 1 0 0 2
Validated: 5
EndChar
StartChar: uni01E5
Encoding: 485 485 711
Width: 500
VWidth: 1600
Flags: W
HStem: -200 100<100 300>
LayerCount: 2
Fore
SplineSet
100 -100 m 25
 500 -100 l 1
 500 0 l 1
 100 0 l 25
 100 -100 l 25
EndSplineSet
Refer: 64 103 N 1 0 0 1 0 0 2
Validated: 5
EndChar
StartChar: uni0220
Encoding: 544 544 687
Width: 700
VWidth: 1600
Flags: W
LayerCount: 2
Fore
SplineSet
500 600 m 1
 500 467 500 -67 500 -200 c 1
 600 -200 l 1
 600 -67 600 467 600 600 c 1
 500 600 l 1
500 600 m 1
 500 700 l 1
 367 700 233 700 100 700 c 1
 100 433 100 267 100 0 c 1
 200 0 l 1
 200 0 200 400 200 600 c 1
 500 600 l 1
EndSplineSet
Validated: 5
EndChar
StartChar: uni0223
Encoding: 547 547 689
Width: 500
Flags: W
HStem: 0 100<100 300> 100 300<0 100 300 400> 400 100<100 300> 500 200<0 100 300 400>
VStem: 0 100<100 400 500 700> 100 200<0 100 400 500> 300 100<100 400 500 700>
LayerCount: 2
Fore
SplineSet
0 500 m 1x18
 0 700 l 1
 100 700 l 1x18
 100 500 l 1x28
 0 500 l 1x18
400 700 m 1x12
 400 500 l 1x12
 300 500 l 1x24
 300 400 l 1x44
 100 400 l 1x48
 100 100 l 1x88
 0 100 l 1
 0 400 l 1
 100 400 l 1x48
 100 500 l 1x28
 300 500 l 1x24
 300 700 l 1
 400 700 l 1x12
300 400 m 1x44
 400 400 l 1
 400 100 l 1x42
 300 100 l 1x84
 300 400 l 1x44
300 100 m 1x84
 300 0 l 1
 100 0 l 1x84
 100 100 l 1x88
 300 100 l 1x84
EndSplineSet
Validated: 5
EndChar
StartChar: uni0237
Encoding: 567 567 229
Width: 200
VWidth: 1600
Flags: W
HStem: -200 100<-100 0> 480 20G<0 100>
VStem: -100 100<-200 -100> 0 100<-100 500>
AnchorPoint: "bottom" -50 -300 basechar 0
AnchorPoint: "bottom-adjoined" -50 -200 basechar 0
AnchorPoint: "ogonek" -50 -100 basechar 0
AnchorPoint: "top" 50 600 basechar 0
LayerCount: 2
Fore
SplineSet
-100 -200 m 1xe0
 -100 -100 l 1
 0 -100 l 1xe0
 0 67 0 333 0 500 c 1
 100 500 l 1
 100 300 100 100 100 -100 c 1xd0
 0 -100 l 1
 0 -200 l 1
 -100 -200 l 1xe0
EndSplineSet
Validated: 5
EndChar
StartChar: uni023A
Encoding: 570 570 671
Width: 800
VWidth: 1600
Flags: W
HStem: -200 21G<200 300> -100 200<0 100 600 700> 100 100<200 500> 100 200<100 200 500 600> 300 200<200 300 400 500> 500 21G<500 600> 680 20G<300 400>
VStem: 0 100<-100 100> 100 100<200 300> 200 100<-200 100 300 500> 300 100<100 300 500 700> 400 100<300 500> 500 100<200 300 500 800> 600 100<-100 100>
LayerCount: 2
Fore
SplineSet
300 100 m 1xaa40
 300 300 l 1xaa40
 400 300 l 1
 400 100 l 1xaa20
 300 100 l 1xaa40
200 -200 m 1
 200 100 l 1
 300 100 l 1
 300 -200 l 1
 200 -200 l 1
500 500 m 1x8a10
 500 800 l 1
 600 800 l 1
 600 500 l 1x8608
 500 500 l 1x8a10
EndSplineSet
Refer: 29 65 N 1 0 0 1 0 0 2
Validated: 5
EndChar
StartChar: uni023B
Encoding: 571 571 672
Width: 700
VWidth: 1600
Flags: W
HStem: -200 21G<200 300> -100 100<301.2 602.4> 0 100<200.8 301.2> 480 20G<100.4 200.8 400 500> 500 21G<500 600> 500 100<200.8 301.2> 600 100<301.2 602.4>
VStem: 100.4 100.4<100 500> 200 100<-200 100> 200.8 100.4<0 100 500 600> 300 100<100 300> 301.2 301.2<-100 0 600 700> 400 100<300 500> 500 100<500 800>
LayerCount: 2
Fore
SplineSet
400 300 m 1x9020
 400 500 l 1
 500 500 l 1
 500 300 l 1x9008
 400 300 l 1x9020
300 100 m 1xa080
 300 300 l 1
 400 300 l 1
 400 100 l 1xa020
 300 100 l 1xa080
200 -200 m 1xa080
 200 100 l 1
 300 100 l 1
 300 -200 l 1
 200 -200 l 1xa080
500 500 m 1x9008
 500 800 l 1
 600 800 l 1
 600 500 l 1x8804
 500 500 l 1x9008
EndSplineSet
Refer: 31 67 N 1.004 0 0 1 -0 0 2
Validated: 5
EndChar
StartChar: uni023E
Encoding: 574 574 673
Width: 700
VWidth: 1600
Flags: W
HStem: -200 21G<0 100> -100 21G<300 400> 600 100<0 300 400 700>
VStem: 0 100<-200 0> 100 100<0 200> 200 100<200 400> 300 100<-100 600> 400 100<400 600> 500 100<600 800>
LayerCount: 2
Fore
SplineSet
200 200 m 1xe8
 200 400 l 1
 300 400 l 1
 300 200 l 1xe4
 200 200 l 1xe8
400 400 m 1xe2
 400 600 l 1xe2
 500 600 l 1
 500 400 l 1xe1
 400 400 l 1xe2
100 0 m 1xf0
 100 200 l 1
 200 200 l 1
 200 0 l 1xe8
 100 0 l 1xf0
0 -200 m 1xf0
 0 0 l 1
 100 0 l 1
 100 -200 l 1
 0 -200 l 1xf0
500 600 m 1xe1
 500 800 l 1
 600 800 l 1
 600 600 l 1xe080
 500 600 l 1xe1
EndSplineSet
Refer: 48 84 N 1 0 0 1 0 0 2
Validated: 5
EndChar
StartChar: uni023F
Encoding: 575 575 762
Width: 400
VWidth: 1600
Flags: W
HStem: -200 100<200 400> -100 100<100 200> 0 100<0 200> 100 100<200 300> 200 100<100 200> 300 100<0 100> 400 100<100 300>
VStem: 0 100<300 400> 100 100<-100 0 200 300> 200 100<100 200>
LayerCount: 2
Fore
SplineSet
200 -200 m 1x8040
 200 -100 l 1x8080
 400 -100 l 1
 400 -200 l 1
 200 -200 l 1x8040
100 -100 m 1x4080
 100 0 l 1
 200 0 l 1x4080
 200 -100 l 1x8080
 100 -100 l 1x4080
EndSplineSet
Refer: 76 115 N 1 0 0 1 0 0 2
Validated: 5
EndChar
StartChar: uni0240
Encoding: 576 576 763
Width: 500
VWidth: 1600
Flags: W
HStem: -200 100<300 500> -100 100<200 300> 0 100<100 200> 200 100<100 200> 400 100<0 200 300 400>
VStem: 0 100<100 200> 100 100<200 300> 200 100<-100 0 300 400>
LayerCount: 2
Fore
SplineSet
300 -200 m 1x99
 300 -100 l 1
 500 -100 l 1
 500 -200 l 1
 300 -200 l 1x99
200 -100 m 1x59
 200 0 l 1
 300 0 l 1x59
 300 -100 l 1x99
 200 -100 l 1x59
100 100 m 1x3c
 200 100 l 1x3d
 200 0 l 1x5d
 67 0 133 0 0 0 c 1
 0 67 0 133 0 200 c 1
 100 200 l 1x3d
 100 300 l 1
 200 300 l 1x3a
 200 400 l 1
 133 400 67 400 0 400 c 1
 0 500 l 1
 133 500 267 500 400 500 c 1
 400 400 l 1
 300 400 l 1
 300 300 l 1x3d
 200 300 l 1
 200 200 l 1x3a
 100 200 l 1
 100 100 l 1x3c
EndSplineSet
Validated: 5
EndChar
StartChar: uni0241
Encoding: 577 577 683
Width: 700
Flags: W
HStem: -100 21G<199.95 300> 200 100<300 500> 600 100<100 500>
VStem: 200 100<-100 200> 500 100<300 600>
LayerCount: 2
Fore
SplineSet
200 -100 m 1
 199 300 l 1
 266 300 433 300 500 300 c 1
 500 200 l 1
 300 200 l 1
 300 -100 l 1
 200 -100 l 1
100 600 m 1
 100 700 l 1
 500 700 l 1
 500 600 l 1
 600 600 l 1
 600 300 l 1
 500 300 l 1
 500 600 l 1
 100 600 l 1
EndSplineSet
Validated: 5
EndChar
StartChar: uni0242
Encoding: 578 578 708
Width: 500
Flags: W
HStem: 200 100<200 300> 300 100<300 400> 400 100<0 300>
VStem: 100 100<0 200> 200 100<200 300> 300 100<300 400>
LayerCount: 2
Fore
SplineSet
0 400 m 1x24
 0 500 l 1
 300 500 l 1x24
 300 400 l 1x44
 0 400 l 1x24
100 0 m 1x90
 100 200 l 1
 200 200 l 1x90
 200 300 l 1
 300 300 l 1x88
 300 400 l 1
 400 400 l 1
 400 300 l 1x44
 300 300 l 1
 300 200 l 1x88
 200 200 l 1
 200 0 l 1
 100 0 l 1x90
EndSplineSet
Validated: 5
EndChar
StartChar: uni0243
Encoding: 579 579 676
Width: 700
VWidth: 1600
Flags: W
HStem: -100 100<200 500> 100 100<0 400> 300 100<200 400> 600 100<200 400>
VStem: 100 100<0 300 400 600> 400 100<400 600> 500 100<0 300>
LayerCount: 2
Fore
SplineSet
-0 100 m 25xfc
 -0 200 l 25
 400 200 l 25
 400 100 l 25
 -0 100 l 25xfc
EndSplineSet
Refer: 30 66 N 1 0 0 1 0 0 2
Validated: 5
EndChar
StartChar: uni0244
Encoding: 580 580 677
Width: 900
VWidth: 1600
Flags: W
HStem: -100 100<300 600> 0 100<200 300 600 700> 300 100<0 900> 680 20G<100 200 700 800>
VStem: 100 100<100 700> 200 100<0 100> 600 100<0 100> 700 100<100 700>
LayerCount: 2
Fore
SplineSet
0 300 m 5x30
 0 400 l 5
 900 400 l 29
 900 300 l 29
 0 300 l 5x30
EndSplineSet
Refer: 49 85 N 1 0 0 1 0 0 2
Validated: 5
EndChar
StartChar: uni0245
Encoding: 581 581 674
Width: 700
VWidth: 1600
Flags: W
HStem: -100 200<0 100 600 700> 680 20G<300 400>
VStem: -0 100<-100 100> 100 100<100 300> 200 100<300 500> 300 100<500 700> 600 100<-100 100>
LayerCount: 2
Fore
SplineSet
600 100 m 1xc6
 600 100 600 233 600 300 c 1
 500 300 l 1
 500 367 500 433 500 500 c 1
 400 500 l 1
 400 433 400 367 400 300 c 1
 500 300 l 1
 500 100 l 1
 600 100 l 1xc6
100 100 m 1xe2
 100 100 100 -33 100 -100 c 1
 -0 -100 l 1
 0 -33 0 33 -0 100 c 1
 100 100 l 1xe2
 100 167 100 233 100 300 c 1
 200 300 l 1xd2
 200 367 200 433 200 500 c 1
 300 500 l 1xca
 300 567 300 633 300 700 c 1
 400 700 l 1
 400 633 400 567 400 500 c 1xc6
 300 500 l 1
 300 433 300 367 300 300 c 1xca
 200 300 l 1
 200 100 l 1xd2
 100 100 l 1xe2
600 100 m 1
 700 100 l 1
 700 33 700 -33 700 -100 c 1
 600 -100 l 1
 600 -33 600 33 600 100 c 1
EndSplineSet
Validated: 5
EndChar
StartChar: uni0246
Encoding: 582 582 678
Width: 600
VWidth: 1600
Flags: W
HStem: -200 21G<0 100> -100 100<200 500> 300 100<200 500> 600 100<200 500>
VStem: 0 100<-200 0> 100 100<0 300 400 600> 100 400<-100 0 300 400 600 700> 200 100<200 400> 300 100<400 600> 400 100<600 800>
LayerCount: 2
Fore
SplineSet
200 200 m 1xf4
 200 400 l 1xf4
 300 400 l 1
 300 200 l 1xf1
 200 200 l 1xf4
300 400 m 1xf1
 300 600 l 1
 400 600 l 1
 400 400 l 1xf080
 300 400 l 1xf1
0 -200 m 1xf8
 0 0 l 1
 100 0 l 1
 100 -200 l 1
 0 -200 l 1xf8
400 600 m 1xf080
 400 800 l 1
 500 800 l 1xf040
 500 600 l 1xf2
 400 600 l 1xf080
EndSplineSet
Refer: 33 69 N 1 0 0 1 0 0 2
Validated: 5
EndChar
StartChar: uni0247
Encoding: 583 583 712
Width: 500
VWidth: 1600
Flags: W
HStem: -100 21G<100 200> 0 100<100 300> 200 100<100 300> 400 100<100 300>
VStem: 0 100<100 200 300 400> 100 100<-100 200> 100 200<0 100 400 500> 200 100<300 600> 300 100<300 400>
LayerCount: 2
Fore
SplineSet
100 -100 m 1xf4
 100 200 l 1xf8
 200 200 l 1
 200 -100 l 1
 100 -100 l 1xf4
200 300 m 1xf1
 200 600 l 1
 300 600 l 1
 300 300 l 1
 200 300 l 1xf1
EndSplineSet
Refer: 62 101 N 1 0 0 1 0 0 2
Validated: 5
EndChar
StartChar: uni0248
Encoding: 584 584 679
Width: 400
VWidth: 1600
Flags: W
HStem: -200 100<0 200> -100 21G<200 300> 300 100<100 400> 680 20G<200 300>
VStem: 200 100<-100 700>
LayerCount: 2
Fore
SplineSet
100 300 m 1x38
 100 400 l 1
 400 400 l 25
 400 300 l 25
 100 300 l 1x38
EndSplineSet
Refer: 38 74 N 1 0 0 1 0 0 2
Validated: 5
EndChar
StartChar: uni0249
Encoding: 585 585 713
Width: 400
VWidth: 1600
Flags: W
HStem: -200 100<-100 100> -100 21G<100 200> 200 100<0 100 200 300> 480 20G<100 200> 600 100<100 200>
VStem: 100 100<-100 200 300 500 600 700>
LayerCount: 2
Fore
SplineSet
0 200 m 1xbc
 0 300 l 1
 100 300 l 1
 100 500 l 1
 200 500 l 1
 200 300 l 1
 300 300 l 1
 300 200 l 1
 200 200 l 1
 200 -100 l 1x7c
 100 -100 l 1
 100 200 l 1
 0 200 l 1xbc
-100 -200 m 1xbc
 -100 -100 l 1
 100 -100 l 1
 100 -200 l 1
 -100 -200 l 1xbc
100 600 m 1
 100 700 l 1
 200 700 l 1
 200 600 l 1
 100 600 l 1
EndSplineSet
EndChar
StartChar: uni024A
Encoding: 586 586 680
Width: 900
VWidth: 1600
Flags: W
HStem: -200 100<700 900> -100 100<300 500> 0 100<200 300 500 600> 500 100<200 300> 600 100<300 600>
VStem: 100 100<100 500> 200 100<0 100 500 600> 600 100<-100 0 100 600>
LayerCount: 2
Fore
SplineSet
200 100 m 1x25
 100 100 l 1
 100 233 100 367 100 500 c 1
 200 500 l 1x35
 200 600 l 1
 300 600 l 1x33
 300 700 l 1
 600 700 l 1
 600 600 l 1
 700 600 l 1
 700 -100 l 1
 900 -100 l 1
 900 -200 l 1
 700 -200 l 1
 700 -100 l 1x8b
 600 -100 l 1x43
 600 0 l 1x23
 500 0 l 1
 500 -100 l 1
 300 -100 l 1
 300 0 l 1x43
 200 0 l 1x23
 200 100 l 1x25
200 100 m 1
 300 100 l 1x33
 300 0 l 1
 500 0 l 1x43
 500 100 l 1
 600 100 l 1
 600 600 l 1x2b
 300 600 l 1
 300 500 l 1x13
 200 500 l 1
 200 367 200 233 200 100 c 1
EndSplineSet
Validated: 5
EndChar
StartChar: uni024B
Encoding: 587 587 726
Width: 700
VWidth: 1600
Flags: W
HStem: -200 100<400 600> -100 21G<300 400> 0 100<100 200> 100 100<200 300> 400 100<100 300>
VStem: 0 100<100 400> 100 100<0 100> 300 100<-100 100 200 400>
LayerCount: 2
Fore
SplineSet
400 -200 m 1x89
 400 -100 l 1
 600 -100 l 25
 600 -200 l 25
 400 -200 l 1x89
300 -100 m 1x4b
 300 0 300 0 300 100 c 1x5b
 200 100 l 1
 200 0 l 1
 100 0 l 1x2b
 100 100 l 1x2d
 0 100 l 1
 0 400 l 1
 100 400 l 1x1d
 100 500 l 1
 400 500 l 1
 400 267 400 133 400 -100 c 1x9b
 300 -100 l 1x4b
100 100 m 1x2d
 200 100 l 1x2b
 200 200 l 1
 300 200 l 1x1b
 300 267 300 333 300 400 c 1
 233 400 167 400 100 400 c 1
 100 100 l 1x2d
EndSplineSet
Validated: 5
EndChar
StartChar: uni024C
Encoding: 588 588 681
Width: 600
VWidth: 1600
Flags: W
HStem: -100 100<500 600> 0 100<400 500> 200 100<0 600 200 300> 600 100<200 400>
VStem: 100 100<-100 200 300 600> 300 100<100 200> 400 100<0 100 300 600> 500 100<-100 0>
LayerCount: 2
Fore
SplineSet
-0 200 m 1x39
 -0 300 l 1
 600 300 l 25
 600 200 l 25
 -0 200 l 1x39
EndSplineSet
Refer: 46 82 N 1 0 0 1 0 0 2
Validated: 5
EndChar
StartChar: uni024F
Encoding: 591 591 715
Width: 600
VWidth: 1600
Flags: W
HStem: -200 100<100 300> -100 21G<300 400> 200 100<0 600> 480 20G<100 200 400 500>
VStem: 100 100<300 500> 200 100<100 300> 300 100<-100 100> 400 100<100 500>
LayerCount: 2
Fore
SplineSet
0 200 m 25x30
 0 300 l 25
 600 300 l 25
 600 200 l 25
 0 200 l 25x30
EndSplineSet
Refer: 82 121 N 1 0 0 1 100 0 2
Validated: 5
EndChar
StartChar: uni0251
Encoding: 593 593 720
Width: 500
VWidth: 1600
Flags: W
HStem: 0 100<100 300> 400 100<100 300>
VStem: 0 100<100 400> 100 300<0 100 400 500> 300 100<100 400>
AnchorPoint: "bottom" 250 -100 basechar 0
AnchorPoint: "top" 250 600 basechar 0
AnchorPoint: "top-even" 150 600 basechar 0
LayerCount: 2
Fore
SplineSet
100 100 m 1xe8
 167 100 233 100 300 100 c 1
 300 400 l 1
 233 400 167 400 100 400 c 1
 100 100 l 1xe8
100 100 m 1
 0 100 l 1
 0 400 l 1
 100 400 l 1xe0
 100 500 l 1
 400 500 l 1
 400 0 l 1
 100 0 l 1xd0
 100 100 l 1
EndSplineSet
Validated: 5
EndChar
StartChar: uni0253
Encoding: 595 595 716
Width: 500
VWidth: 1600
Flags: W
HStem: 0 100<100 300> 400 100<100 300> 680 20G<0 100> 700 100<100 300>
VStem: 0 100<100 400 500 700> 300 100<100 400>
LayerCount: 2
Fore
SplineSet
100 700 m 1xec
 100 800 l 1
 300 800 l 25
 300 700 l 25xdc
 100 700 l 1xec
EndSplineSet
Refer: 59 98 N 1 0 0 1 0 0 2
Validated: 5
EndChar
StartChar: uni0254
Encoding: 596 596 717
Width: 400
VWidth: 1600
Flags: W
HStem: 0 100<0 200> 400 100<0 200>
VStem: 0 200<0 100 400 500> 200 100<100 400>
AnchorPoint: "bottom" 150 -100 basechar 0
AnchorPoint: "top-even" 150 600 basechar 0
AnchorPoint: "top" 150 600 basechar 0
LayerCount: 2
Fore
SplineSet
200 0 m 1xe0
 133 0 67 0 0 0 c 1
 0 100 l 1
 67 100 133 100 200 100 c 1
 200 0 l 1xe0
200 100 m 1
 200 400 l 1xe0
 300 400 l 1
 300 100 l 1xd0
 200 100 l 1
200 400 m 1
 133 400 67 400 0 400 c 1
 0 500 l 1
 67 500 133 500 200 500 c 1
 200 400 l 1
EndSplineSet
Validated: 5
EndChar
StartChar: uni0256
Encoding: 598 598 809
Width: 500
VWidth: 1600
Flags: W
HStem: -200 100<400 600> -100 100<300 400> 0 100<100 300> 400 100<100 300> 680 20G<300 400>
VStem: 0 100<100 400> 100 300<0 100 400 500> 300 100<-100 0 100 400 500 700>
LayerCount: 2
Fore
SplineSet
400 -200 m 1x99
 400 -100 l 1
 600 -100 l 25
 600 -200 l 25
 400 -200 l 1x99
300 -100 m 25x59
 300 0 l 25x59
 400 0 l 25x5a
 400 -100 l 25x99
 300 -100 l 25x59
EndSplineSet
Refer: 61 100 N 1 0 0 1 0 0 2
Validated: 5
EndChar
StartChar: uni0257
Encoding: 599 599 718
Width: 500
VWidth: 1600
Flags: W
HStem: 0 100<100 300> 400 100<100 300> 500 21G<300 400> 680 20G<300 400 300 400> 700 100<400 600>
VStem: 0 100<100 400> 100 300<0 100 400 500> 300 100<100 400 500 700 500 700>
LayerCount: 2
Fore
SplineSet
300 500 m 25xc1
 300 700 l 1
 400 700 l 1xd1
 400 500 l 25xb2
 300 500 l 25xc1
400 700 m 1
 400 800 l 1
 600 800 l 25
 600 700 l 25x89
 400 700 l 1
EndSplineSet
Refer: 61 100 N 1 0 0 1 0 0 2
Validated: 5
EndChar
StartChar: uni025B
Encoding: 603 603 719
Width: 500
VWidth: 1600
Flags: W
HStem: 0 100<100 400> 100 100<0 100> 200 100<100 300> 300 100<0 100> 400 100<100 400>
VStem: 0 100<100 200 300 400> 100 300<0 100 400 500>
AnchorPoint: "bottom" 250 -100 basechar 0
AnchorPoint: "top-even" 150 600 basechar 0
AnchorPoint: "top" 250 600 basechar 0
LayerCount: 2
Fore
SplineSet
100 100 m 1x84
 33 100 67 100 0 100 c 1
 0 200 l 1
 67 200 33 200 100 200 c 1x44
 100 100 l 1x84
100 300 m 5x24
 33 300 67 300 0 300 c 5
 0 400 l 5
 67 400 33 400 100 400 c 5x14
 100 300 l 5x24
300 200 m 25x24
 100 200 l 1x44
 100 300 l 1
 300 300 l 25
 300 200 l 25x24
400 400 m 1x0a
 333 400 167 400 100 400 c 1x14
 100 500 l 1
 167 500 333 500 400 500 c 1
 400 400 l 1x0a
100 100 m 1x84
 167 100 333 100 400 100 c 1
 400 0 l 1
 333 0 167 0 100 0 c 1x82
 100 100 l 1x84
EndSplineSet
Validated: 5
EndChar
StartChar: uni0260
Encoding: 608 608 811
Width: 500
VWidth: 1600
Flags: W
HStem: -200 100<100 300> 500 21G<300 400> 680 20G<300 400> 700 100<400 600>
VStem: 300 100<500 700>
LayerCount: 2
Fore
SplineSet
300 500 m 25xe8
 300 700 l 1
 400 700 l 1
 400 500 l 25
 300 500 l 25xe8
400 700 m 1
 400 800 l 1
 600 800 l 25
 600 700 l 25xd8
 400 700 l 1
EndSplineSet
Refer: 64 103 N 1 0 0 1 0 0 2
Validated: 5
EndChar
StartChar: uni0263
Encoding: 611 611 721
Width: 600
VWidth: 1600
Flags: W
HStem: -200 100<200 300> -100 100<100 200 300 400> 0 100<200 300> 100 200<100 200 300 400> 300 200<0 100 400 500>
VStem: 0 100<300 500> 100 100<-100 0 100 300> 200 100<-200 -100 0 100> 300 100<-100 0 100 300> 400 100<300 500>
LayerCount: 2
Fore
SplineSet
200 -100 m 1x82
 100 -100 l 1
 100 0 l 1
 200 0 l 1x42
 200 -100 l 1x82
200 -100 m 1x82
 300 -100 l 1x81
 300 0 l 1x41
 400 0 l 1
 400 -100 l 1x4080
 300 -100 l 1
 300 -200 l 1
 200 -200 l 1x81
 200 -100 l 1x82
200 0 m 1x42
 200 100 l 1x22
 300 100 l 1x21
 300 0 l 1x41
 200 0 l 1x42
300 100 m 1x21
 300 167 300 233 300 300 c 1
 400 300 l 1
 400 233 400 167 400 100 c 1x1080
 300 100 l 1x21
400 300 m 1
 400 367 400 433 400 500 c 1
 500 500 l 1
 500 433 500 367 500 300 c 1x0840
 400 300 l 1
200 100 m 1x22
 100 100 l 1x12
 100 167 100 233 100 300 c 1x14
 200 300 l 1x12
 200 233 200 167 200 100 c 1x22
100 300 m 1x14
 0 300 l 1
 0 367 0 433 0 500 c 1
 100 500 l 1x0c
 100 433 100 367 100 300 c 1x14
EndSplineSet
Validated: 5
EndChar
StartChar: uni0265
Encoding: 613 613 764
Width: 500
VWidth: 1600
Flags: W
HStem: -200 21G<300 400> 0 100<100 200> 100 100<200 300> 480 20G<0 100 300 400>
VStem: 0 100<100 500> 100 100<0 100> 300 100<-200 100 200 500>
LayerCount: 2
Fore
SplineSet
100 0 m 25xd6
 100 100 l 25xda
 200 100 l 25
 200 0 l 25
 100 0 l 25xd6
400 500 m 1
 400 -200 l 1
 300 -200 l 1
 300 -133 300 33 300 100 c 1xb6
 233 100 267 100 200 100 c 1xd6
 200 200 l 1
 267 200 233 200 300 200 c 1xb6
 300 333 300 367 300 500 c 1
 400 500 l 1
100 100 m 1xda
 0 100 l 1xba
 0 233 0 367 0 500 c 1
 100 500 l 1
 100 367 100 233 100 100 c 1xda
EndSplineSet
Validated: 5
EndChar
StartChar: uni0266
Encoding: 614 614 765
Width: 500
VWidth: 1600
Flags: W
HStem: 400 100<100 300> 680 20G<0 100> 700 100<100 300>
VStem: 0 100<0 400 500 700> 300 100<0 400>
LayerCount: 2
Fore
SplineSet
100 700 m 25xd8
 100 800 l 25
 300 800 l 25
 300 700 l 25xb8
 100 700 l 25xd8
EndSplineSet
Refer: 65 104 N 1 0 0 1 0 0 2
Validated: 5
EndChar
StartChar: uni0268
Encoding: 616 616 761
Width: 400
VWidth: 1600
Flags: W
HStem: 200 100<0 300> 400 100<0 100> 600 100<100 200>
VStem: -0 300<200 300> 100 100<0 400 600 700>
CounterMasks: 1 e0
LayerCount: 2
Fore
SplineSet
-0 200 m 25xf0
 -0 300 l 25
 300 300 l 25
 300 200 l 25
 -0 200 l 25xf0
EndSplineSet
Refer: 66 105 N 1 0 0 1 0 0 2
Validated: 5
EndChar
StartChar: uni0269
Encoding: 617 617 723
Width: 500
VWidth: 1600
Flags: W
HStem: 0 100<200 400> 400 100<0 100>
VStem: 100 100<100 400>
LayerCount: 2
Fore
SplineSet
200 0 m 1
 200 100 l 1
 400 100 l 25
 400 0 l 25
 200 0 l 1
0 400 m 1
 0 500 l 1
 67 500 133 500 200 500 c 1
 200 100 l 1
 100 100 l 1
 100 400 l 1
 0 400 l 1
EndSplineSet
Validated: 5
EndChar
StartChar: uni026A
Encoding: 618 618 722
Width: 400
Flags: W
HStem: 0 100<0 100 200 300> 400 100<0 100 200 300>
VStem: 0 300<0 100 400 500>
LayerCount: 2
Fore
SplineSet
0 400 m 1
 0 500 l 1
 300 500 l 1
 300 400 l 1
 200 400 l 1
 200 100 l 1
 300 100 l 1
 300 0 l 1
 0 0 l 1
 0 100 l 1
 100 100 l 1
 100 400 l 1
 0 400 l 1
EndSplineSet
Validated: 1
EndChar
StartChar: uni026B
Encoding: 619 619 760
Width: 500
VWidth: 1600
Flags: W
HStem: 200 100<0 100> 300 100<100 200 300 400> 400 100<400 500> 680 20G<200 300>
VStem: 0 100<200 300> 100 100<300 400> 200 100<0 700> 300 100<300 400> 400 100<400 500>
LayerCount: 2
Fore
SplineSet
100 300 m 25x98
 100 400 l 25
 200 400 l 25
 200 300 l 25x54
 100 300 l 25x98
400 400 m 25x51
 400 500 l 25
 500 500 l 25
 500 400 l 25x3080
 400 400 l 25x51
300 300 m 25x52
 300 400 l 25x52
 400 400 l 25
 400 300 l 25x51
 300 300 l 25x52
0 200 m 25x98
 0 300 l 25
 100 300 l 25
 100 200 l 25
 0 200 l 25x98
EndSplineSet
Refer: 69 108 N 1 0 0 1 200 0 2
Validated: 5
EndChar
StartChar: uni026C
Encoding: 620 620 766
Width: 500
VWidth: 1600
Flags: W
HStem: 200 100<100 200> 300 100<0 100 300 400> 400 100<100 200> 680 20G<200 300>
VStem: 0 100<300 400> 100 100<200 300 400 500> 200 100<0 700> 300 100<300 400>
LayerCount: 2
Fore
SplineSet
100 200 m 25x94
 100 300 l 25x98
 200 300 l 25
 200 200 l 25
 100 200 l 25x94
100 400 m 25x58
 100 500 l 25
 200 500 l 25
 200 400 l 25x34
 100 400 l 25x58
300 300 m 25x52
 300 400 l 25x52
 400 400 l 25
 400 300 l 25x51
 300 300 l 25x52
0 300 m 25x58
 0 400 l 25
 100 400 l 25x58
 100 300 l 25x98
 0 300 l 25x58
EndSplineSet
Refer: 69 108 N 1 0 0 1 200 0 2
Validated: 5
EndChar
StartChar: uni0272
Encoding: 626 626 724
Width: 600
VWidth: 1600
Flags: W
HStem: -200 100<-100 100> -100 21G<100 200> 400 100<200 400>
VStem: 100 100<-100 400> 400 100<0 400>
LayerCount: 2
Fore
SplineSet
-100 -200 m 25xb8
 -100 -100 l 25
 100 -100 l 25
 100 -200 l 25
 -100 -200 l 25xb8
100 -100 m 1
 100 500 l 1
 400 500 l 1
 400 400 l 1
 333 400 267 400 200 400 c 1
 200 267 200 33 200 -100 c 1x78
 100 -100 l 1
400 400 m 1
 500 400 l 1
 500 267 500 133 500 0 c 1
 400 0 l 1
 400 133 400 267 400 400 c 1
EndSplineSet
Validated: 5
EndChar
StartChar: uni027D
Encoding: 637 637 727
Width: 400
VWidth: 1600
Flags: W
HStem: -200 100<100 200> -100 21G<0 100> 400 100<100 300>
VStem: 0 100<-100 400> 100 100<-200 -100>
LayerCount: 2
Fore
SplineSet
100 -200 m 25xa8
 100 -100 l 25xb0
 200 -100 l 25
 200 -200 l 25
 100 -200 l 25xa8
100 500 m 1x28
 167 500 233 500 300 500 c 1
 300 400 l 1
 233 400 167 400 100 400 c 1x30
 100 500 l 1x28
0 -100 m 1x70
 0 33 0 267 0 400 c 1
 100 400 l 1
 100 267 100 33 100 -100 c 1xb0
 0 -100 l 1x70
EndSplineSet
Validated: 5
EndChar
StartChar: uni0283
Encoding: 643 643 728
Width: 400
VWidth: 1600
Flags: W
HStem: -200 100<-100 100> -100 21G<100 200> 600 100<200 400>
VStem: 100 100<-100 600>
LayerCount: 2
Fore
SplineSet
200 700 m 1xb0
 267 700 333 700 400 700 c 1
 400 600 l 1
 333 600 267 600 200 600 c 1
 200 367 200 133 200 -100 c 1x70
 100 -100 l 1
 100 133 100 367 100 600 c 1
 200 600 l 1
 200 700 l 1xb0
-100 -200 m 1xb0
 -100 -167 -100 -133 -100 -100 c 1
 100 -100 l 1
 100 -200 l 1
 -100 -200 l 1xb0
EndSplineSet
Validated: 5
EndChar
StartChar: uni0288
Encoding: 648 648 729
Width: 400
VWidth: 1600
Flags: W
HStem: -200 100<100 300> -100 21G<0 100> 400 100<100 300>
VStem: 0 100<-100 400 500 600>
LayerCount: 2
Fore
SplineSet
100 -100 m 1xb0
 0 -100 l 1x70
 0 600 l 1
 100 600 l 1
 100 500 l 1
 167 500 233 500 300 500 c 1
 300 400 l 1
 233 400 167 400 100 400 c 1
 100 -100 l 1xb0
100 -100 m 1xb0
 167 -100 233 -100 300 -100 c 1
 300 -200 l 1
 233 -200 167 -200 100 -200 c 1
 100 -100 l 1xb0
EndSplineSet
Validated: 5
EndChar
StartChar: uni028B
Encoding: 651 651 808
Width: 500
VWidth: 0
Flags: W
HStem: 0 100<100 300> 400 100<200 300>
VStem: 0 100<100 500> 200 100<400 500> 300 100<100 400>
LayerCount: 2
Fore
SplineSet
200 400 m 25xf0
 200 500 l 25
 300 500 l 25
 300 400 l 25
 200 400 l 25xf0
300 100 m 25xe8
 300 400 l 25xf0
 400 400 l 25
 400 100 l 25
 300 100 l 25xe8
100 0 m 25
 100 100 l 25
 300 100 l 25
 300 0 l 25xe8
 100 0 l 25
0 100 m 25
 0 500 l 25
 100 500 l 25
 100 100 l 25
 0 100 l 25
EndSplineSet
Validated: 5
EndChar
StartChar: uni028C
Encoding: 652 652 686
Width: 600
VWidth: 1600
Flags: W
LayerCount: 2
Fore
SplineSet
100 200 m 1
 0 200 l 1
 0 133 0 67 0 0 c 1
 100 0 l 1
 100 67 100 133 100 200 c 1
100 200 m 1
 200 200 l 1
 200 267 200 333 200 400 c 1
 100 400 l 1
 100 333 100 267 100 200 c 1
400 200 m 1
 400 133 400 67 400 0 c 1
 500 0 l 1
 500 67 500 133 500 200 c 1
 400 200 l 1
400 200 m 1
 400 267 400 333 400 400 c 1
 300 400 l 1
 300 333 300 267 300 200 c 1
 400 200 l 1
300 400 m 1
 300 500 l 1
 200 500 l 1
 200 400 l 1
 300 400 l 1
EndSplineSet
Validated: 5
EndChar
StartChar: uni0292
Encoding: 658 658 262
Width: 400
Flags: W
HStem: -200 100<0 200> 100 100<0 100> 400 100<0 200>
VStem: 0 200<-200 -100 100 200> 100 100<200 300> 200 100<-100 100 300 400>
CounterMasks: 1 e0
AnchorPoint: "bottom" 150 -300 basechar 0
AnchorPoint: "top" 150 600 basechar 0
LayerCount: 2
Fore
SplineSet
0 400 m 1xf0
 0 500 l 1xf0
 300 500 l 1
 300 433 300 367 300 300 c 1xe4
 200 300 l 1xe8
 200 400 l 1xe4
 133 400 67 400 0 400 c 1xf0
0 100 m 1
 0 200 l 1xf0
 100 200 l 1
 100 300 l 1
 200 300 l 1xe8
 200 233 200 167 200 100 c 1
 133 100 67 100 0 100 c 1
0 -200 m 1
 0 -100 l 1
 67 -100 133 -100 200 -100 c 1
 200 -33 200 33 200 100 c 1xf0
 300 100 l 1
 300 33 300 -33 300 -100 c 1xe4
 200 -100 l 1
 200 -200 l 1
 133 -200 67 -200 0 -200 c 1
EndSplineSet
Validated: 5
EndChar
StartChar: uni0294
Encoding: 660 660 684
Width: 500
Flags: W
HStem: 300 100<200 300> 600 100<0 300>
VStem: 100 100<0 300> 200 100<300 400> 300 100<400 600>
LayerCount: 2
Fore
SplineSet
0 600 m 1xc8
 0 700 l 1
 300 700 l 1
 300 600 l 1
 0 600 l 1xc8
100 0 m 1xe0
 100 300 l 1
 200 300 l 1xe0
 200 400 l 1
 300 400 l 1xd0
 300 600 l 1
 400 600 l 1
 400 400 l 1xc8
 300 400 l 1
 300 300 l 1xd0
 200 300 l 1
 200 0 l 1
 100 0 l 1xe0
EndSplineSet
Validated: 5
EndChar
StartChar: uni029D
Encoding: 669 669 812
Width: 301
VWidth: 1600
Flags: W
HStem: -200 100<0 100> -100 100<-100 0> 0 100<0 100 200 300> 480 20G<100 200> 600 100<100 200>
VStem: -100 100<-100 0> 0 100<-200 -100> 100 100<-100 0 100 500 600 700>
LayerCount: 2
Fore
SplineSet
100 600 m 1x19
 100 700 l 1
 200 700 l 1
 200 600 l 1
 100 600 l 1x19
-100 -100 m 1x5c
 -100 0 l 1
 0 0 l 1x5c
 0 -100 l 1x9c
 100 -100 l 1
 100 -200 l 1
 0 -200 l 1x9a
 0 -100 l 1x9c
 -100 -100 l 1x5c
100 -100 m 1x9a
 100 0 l 1xb9
 0 0 l 1x5d
 0 100 l 1x3a
 100 100 l 1
 100 500 l 1
 200 500 l 1
 200 100 l 1
 300 100 l 1
 300 0 l 1
 200 0 l 1x39
 200 -100 l 1x59
 100 -100 l 1x9a
EndSplineSet
Validated: 5
EndChar
StartChar: uni02B7
Encoding: 695 695 774
Width: 600
Flags: W
HStem: 400 100<100 200 300 400> 500 200<0 100 200 300 400 500>
VStem: 0 100<500 700> 100 100<400 500> 200 100<500 700> 300 100<400 500> 400 100<500 700>
LayerCount: 2
Fore
SplineSet
400 500 m 25x84
 400 700 l 25
 500 700 l 25
 500 500 l 25x42
 400 500 l 25x84
300 400 m 25x84
 300 500 l 25x88
 400 500 l 25
 400 400 l 25
 300 400 l 25x84
200 500 m 25x90
 200 700 l 25
 300 700 l 25x48
 300 500 l 25x88
 200 500 l 25x90
100 400 m 25x90
 100 500 l 25xa0
 200 500 l 25
 200 400 l 25
 100 400 l 25x90
0 500 m 25x60
 0 700 l 25
 100 700 l 25x60
 100 500 l 25xa0
 0 500 l 25x60
EndSplineSet
Validated: 5
EndChar
StartChar: acutecomb
Encoding: 769 769 129
Width: 0
Flags: W
HStem: 600 100<-300 -200> 700 100<-200 -100>
VStem: -300 100<600 700> -200 100<700 800>
AnchorPoint: "stack" -250 600 mark 0
AnchorPoint: "top" -250 600 mark 0
LayerCount: 2
Fore
SplineSet
-200 700 m 25xa0
 -200 800 l 25
 -100 800 l 25
 -100 700 l 25x50
 -200 700 l 25xa0
-300 600 m 25xa0
 -300 700 l 25
 -200 700 l 25
 -200 600 l 25
 -300 600 l 25xa0
EndSplineSet
Validated: 5
EndChar
StartChar: tildecomb
Encoding: 771 771 131
Width: 0
Flags: W
HStem: 600 100<-600 -500 -300 -200> 700 100<-500 -300 -200 -100>
VStem: -600 100<600 700> -300 100<600 700> -200 100<700 800>
AnchorPoint: "stack" -350 900 basemark 0
AnchorPoint: "top" -350 600 mark 0
LayerCount: 2
Fore
SplineSet
-200 700 m 25xb0
 -200 800 l 25
 -100 800 l 25
 -100 700 l 25x68
 -200 700 l 25xb0
-300 600 m 9xb0
 -300 700 l 25
 -200 700 l 25
 -200 600 l 17
 -233 600 -267 600 -300 600 c 9xb0
-500 700 m 1
 -500 800 l 1
 -300 800 l 25x70
 -300 700 l 25
 -500 700 l 1
-600 600 m 25xa0
 -600 700 l 25
 -500 700 l 25
 -500 600 l 25
 -600 600 l 25xa0
EndSplineSet
Validated: 5
EndChar
StartChar: uni0304
Encoding: 772 772 132
Width: 0
Flags: W
HStem: 700 100<-500 -100>
AnchorPoint: "stack-even" -350 900 basemark 0
AnchorPoint: "stack" -250 900 basemark 0
AnchorPoint: "stack-even" -350 700 mark 0
AnchorPoint: "top-even" -350 700 mark 0
LayerCount: 2
Fore
SplineSet
-500 700 m 25
 -500 800 l 25
 -100 800 l 25
 -100 700 l 25
 -500 700 l 25
EndSplineSet
Validated: 1
EndChar
StartChar: uni0305
Encoding: 773 773 133
Width: 0
Flags: W
HStem: 700 100<-600 0>
AnchorPoint: "top" -350 600 mark 0
LayerCount: 2
Fore
SplineSet
-600 700 m 25
 -600 800 l 25
 0 800 l 25
 0 700 l 25
 -600 700 l 25
EndSplineSet
Validated: 1
EndChar
StartChar: uni0307
Encoding: 775 775 137
Width: 0
Flags: W
HStem: 700 100<-300 -200>
VStem: -300 100<700 800>
AnchorPoint: "stack-even" -350 900 basemark 0
AnchorPoint: "stack" -250 900 basemark 0
AnchorPoint: "top" -250 600 mark 0
LayerCount: 2
Fore
SplineSet
-300 700 m 1
 -300 800 l 1
 -200 800 l 1
 -200 700 l 1
 -300 700 l 1
EndSplineSet
Validated: 1
EndChar
StartChar: hookabovecomb
Encoding: 777 777 518
Width: 0
Flags: W
HStem: 600 100<-300 -200> 700 100<-200 -100> 800 100<-400 -200>
VStem: -300 100<600 700> -200 100<700 800>
AnchorPoint: "stack" -250 700 mark 0
AnchorPoint: "top" -250 600 mark 0
LayerCount: 2
Fore
SplineSet
-300 600 m 1x90
 -300 700 l 1
 -200 700 l 1x90
 -200 800 l 1
 -100 800 l 1
 -100 700 l 1x48
 -200 700 l 1
 -200 600 l 1
 -300 600 l 1x90
-400 800 m 1x28
 -400 900 l 1
 -333 900 -267 900 -200 900 c 1x28
 -200 800 l 1x48
 -267 800 -333 800 -400 800 c 1x28
EndSplineSet
Validated: 5
EndChar
StartChar: uni030C
Encoding: 780 780 140
Width: 0
Flags: W
HStem: 600 100<-300 -200> 700 100<-400 -300 -200 -100>
VStem: -400 100<700 800> -300 100<600 700> -200 100<700 800>
AnchorPoint: "stack" -250 600 mark 0
AnchorPoint: "top" -250 600 mark 0
LayerCount: 2
Fore
SplineSet
-300 800 m 25x60
 -300 700 l 25xa0
 -400 700 l 25
 -400 800 l 25
 -300 800 l 25x60
-200 700 m 25x90
 -200 600 l 25
 -300 600 l 25x90
 -300 700 l 25xa0
 -200 700 l 25x90
-100 800 m 25x48
 -100 700 l 25x48
 -200 700 l 25x90
 -200 800 l 25
 -100 800 l 25x48
EndSplineSet
Validated: 5
EndChar
StartChar: uni030D
Encoding: 781 781 141
Width: 0
Flags: W
HStem: 600 200<-300 -200>
VStem: -300 100<600 800>
AnchorPoint: "top" -250 600 mark 0
LayerCount: 2
Fore
SplineSet
-300 600 m 1
 -300 800 l 17
 -267 800 -233 800 -200 800 c 9
 -200 600 l 1
 -300 600 l 1
EndSplineSet
Validated: 1
EndChar
StartChar: uni030E
Encoding: 782 782 142
Width: 0
Flags: W
HStem: 600 200<-400 -300 -200 -100>
VStem: -400 100<600 800> -200 100<600 800>
AnchorPoint: "top" -250 600 mark 0
LayerCount: 2
Fore
SplineSet
-400 600 m 1
 -400 800 l 17
 -367 800 -333 800 -300 800 c 9
 -300 600 l 1
 -400 600 l 1
-200 600 m 1
 -200 800 l 17
 -167 800 -133 800 -100 800 c 9
 -100 600 l 1
 -200 600 l 1
EndSplineSet
Validated: 1
EndChar
StartChar: uni0312
Encoding: 786 786 145
Width: 0
Flags: W
HStem: 700 100<-200 -100>
VStem: -200 100<700 800>
AnchorPoint: "top" -250 700 mark 0
LayerCount: 2
Fore
SplineSet
-100 800 m 1
 -100 700 l 1
 -200 700 l 1
 -200 800 l 1
 -100 800 l 1
-200 700 m 1
 -300 700 l 1
 -300 500 l 1
 -200 500 l 1
 -200 700 l 1
EndSplineSet
Validated: 5
EndChar
StartChar: uni031B
Encoding: 795 795 148
Width: 0
Flags: W
HStem: 400 100<-100 0> 500 21G<0 100> 680 20G<0 100>
VStem: -100 100<400 500> 0 100<500 700>
LayerCount: 2
Fore
SplineSet
0 500 m 25xb0
 0 700 l 25
 100 700 l 25
 100 500 l 25x68
 0 500 l 25xb0
-100 400 m 25xb0
 -100 500 l 25
 0 500 l 25
 0 400 l 25
 -100 400 l 25xb0
EndSplineSet
Validated: 5
EndChar
StartChar: uni0325
Encoding: 805 805 150
Width: 0
Flags: W
HStem: -300 100<-300 -200> -200 100<-400 -300 -200 -100> -100 100<-300 -200>
VStem: -400 100<-200 -100> -300 100<-300 -200 -100 0> -200 100<-200 -100>
AnchorPoint: "bottom-adjoined" -250 0 mark 0
LayerCount: 2
Fore
SplineSet
-200 -200 m 25x88
 -200 -100 l 25x48
 -100 -100 l 25
 -100 -200 l 25x44
 -200 -200 l 25x88
-300 -300 m 25x88
 -300 -200 l 25x90
 -200 -200 l 25
 -200 -300 l 25
 -300 -300 l 25x88
-300 -100 m 25x50
 -300 0 l 25
 -200 0 l 25x28
 -200 -100 l 25x48
 -300 -100 l 25x50
-400 -200 m 25x50
 -400 -100 l 25
 -300 -100 l 25x50
 -300 -200 l 25x90
 -400 -200 l 25x50
EndSplineSet
Validated: 5
EndChar
StartChar: uni0326
Encoding: 806 806 151
Width: 0
Flags: W
HStem: -200 100<-400 -300> -100 100<-300 -200>
VStem: -400 100<-200 -100> -300 100<-100 0>
AnchorPoint: "bottom-adjoined" -250 0 mark 0
LayerCount: 2
Fore
SplineSet
-300 -100 m 25xa0
 -300 0 l 25
 -200 0 l 25
 -200 -100 l 25x50
 -300 -100 l 25xa0
-400 -200 m 25xa0
 -400 -100 l 25
 -300 -100 l 25
 -300 -200 l 25
 -400 -200 l 25xa0
EndSplineSet
Validated: 5
EndChar
StartChar: uni0329
Encoding: 809 809 153
Width: 0
Flags: W
HStem: -200 200<-300 -200>
VStem: -300 100<-200 0>
AnchorPoint: "bottom-adjoined" -250 0 mark 0
LayerCount: 2
Fore
SplineSet
-300 -200 m 1
 -300 0 l 17
 -267 0 -233 0 -200 0 c 9
 -200 -200 l 1
 -300 -200 l 1
EndSplineSet
Validated: 1
EndChar
StartChar: uni032D
Encoding: 813 813 562
Width: 0
Flags: W
HStem: -200 100<-400 -300 -200 -100> -100 100<-300 -200>
VStem: -400 100<-200 -100> -300 100<-100 0> -200 100<-200 -100>
AnchorPoint: "bottom" -250 0 mark 0
LayerCount: 2
Fore
SplineSet
-200 -200 m 25x88
 -200 -100 l 25x90
 -100 -100 l 25
 -100 -200 l 25
 -200 -200 l 25x88
-300 -100 m 25xa0
 -300 0 l 25
 -200 0 l 25x50
 -200 -100 l 25x90
 -300 -100 l 25xa0
-400 -200 m 25xa0
 -400 -100 l 25
 -300 -100 l 25
 -300 -200 l 25
 -400 -200 l 25xa0
EndSplineSet
Validated: 5
EndChar
StartChar: uni0330
Encoding: 816 816 628
Width: 0
Flags: W
HStem: -200 100<-600 -500 -300 -200> -100 100<-500 -300 -200 -100>
VStem: -600 100<-200 -100> -300 100<-200 -100> -200 100<-100 0>
AnchorPoint: "bottom" -350 0 mark 0
LayerCount: 2
Fore
SplineSet
-200 -100 m 25xb0
 -200 0 l 25
 -100 0 l 25
 -100 -100 l 25x68
 -200 -100 l 25xb0
-300 -200 m 9xb0
 -300 -100 l 25
 -200 -100 l 25
 -200 -200 l 17
 -233 -200 -267 -200 -300 -200 c 9xb0
-500 -100 m 1
 -500 0 l 1
 -300 0 l 25x70
 -300 -100 l 25
 -500 -100 l 1
-600 -200 m 25xa0
 -600 -100 l 25
 -500 -100 l 25
 -500 -200 l 25
 -600 -200 l 25xa0
EndSplineSet
Validated: 5
EndChar
StartChar: uni0437
Encoding: 1079 1079 781
Width: 500
VWidth: 1600
Flags: W
LayerCount: 2
Fore
SplineSet
300 100 m 1
 367 100 333 100 400 100 c 1
 400 200 l 1
 333 200 367 200 300 200 c 1
 300 100 l 1
300 300 m 1
 367 300 333 300 400 300 c 1
 400 400 l 1
 333 400 367 400 300 400 c 1
 300 300 l 1
100 200 m 25
 300 200 l 1
 300 300 l 1
 100 300 l 25
 100 200 l 25
0 400 m 1
 67 400 233 400 300 400 c 1
 300 500 l 1
 233 500 67 500 0 500 c 1
 0 400 l 1
300 100 m 1
 233 100 67 100 0 100 c 1
 0 0 l 1
 67 0 233 0 300 0 c 1
 300 100 l 1
EndSplineSet
Validated: 5
EndChar
StartChar: uni0447
Encoding: 1095 1095 782
Width: 500
VWidth: 1600
Flags: W
HStem: 200 100<100 300> 480 20G<0 100 300 400>
VStem: 0 100<300 500> 300 100<0 200 300 500>
LayerCount: 2
Fore
SplineSet
400 500 m 1
 400 0 l 1
 300 0 l 1
 300 67 300 133 300 200 c 1
 233 200 167 200 100 200 c 1
 100 300 l 1
 167 300 233 300 300 300 c 1
 300 433 300 367 300 500 c 1
 400 500 l 1
100 300 m 1
 0 300 l 1
 0 433 0 367 0 500 c 1
 100 500 l 1
 100 367 100 433 100 300 c 1
EndSplineSet
Validated: 5
EndChar
StartChar: uni1D7D
Encoding: 7549 7549 779
Width: 600
VWidth: 1600
Flags: W
HStem: 400 100<100 400>
LayerCount: 2
Fore
SplineSet
100 400 m 1
 100 500 l 1
 400 500 l 1
 400 400 l 1
 300 400 200 400 100 400 c 1
500 200 m 1
 600 200 l 1
 600 300 l 1
 500 300 l 1
 500 400 l 1
 400 400 l 1
 400 300 l 1
 0 300 l 1
 0 200 l 1
 100 200 l 1
 100 -200 l 1
 200 -200 l 1
 200 0 l 1
 400 0 l 1
 400 100 l 1
 500 100 l 1
 500 200 l 1
400 200 m 1
 400 100 l 1
 200 100 l 1
 200 200 l 1
 400 200 l 1
EndSplineSet
Validated: 5
EndChar
StartChar: uni1E9C
Encoding: 7836 7836 744
Width: 300
VWidth: 1600
Flags: W
HStem: -200 21G<0 100> 100 100<-100 0> 300 100<100 200> 600 100<100 300>
VStem: -100 100<100 200> 0 100<-200 600> 100 100<300 400>
LayerCount: 2
Fore
SplineSet
100 300 m 25xf4
 100 400 l 25xf4
 200 400 l 25
 200 300 l 25xf2
 100 300 l 25xf4
-100 100 m 25xf8
 -100 200 l 25
 0 200 l 25
 0 100 l 25
 -100 100 l 25xf8
EndSplineSet
Refer: 174 383 N 1 0 0 1 0 0 2
Validated: 5
EndChar
StartChar: uni1E9E
Encoding: 7838 7838 745
Width: 800
Flags: W
HStem: -100 100<299 600> 300 100<500 600> 480 20G<400 500> 500 21G<500 600> 600 100<200 500>
VStem: 100 100<-100 600> 400 100<400 500> 500 100<500 600> 600 100<0 300>
LayerCount: 2
Fore
SplineSet
299 -100 m 1xcc80
 299 0 l 1
 600 0 l 1
 600 300 l 1
 700 300 l 1
 700 0 l 1
 600 0 l 1
 600 -100 l 1
 299 -100 l 1xcc80
400 300 m 1xee80
 400 500 l 1
 500 500 l 1
 500 400 l 1
 600 400 l 1
 600 300 l 1
 533 300 467 300 400 300 c 1xee80
100 -100 m 1
 100 600 l 1
 200 600 l 1
 200 700 l 1
 600 700 l 1xec80
 600 500 l 1xdd
 500 500 l 1xee
 500 600 l 1xed
 200 600 l 1
 200 -100 l 1
 100 -100 l 1
EndSplineSet
Validated: 5
EndChar
StartChar: uni1EB0
Encoding: 7856 7856 466
Width: 800
Flags: W
HStem: -100 200<0 100 600 700> 100 200<100 200 500 600> 100 100<200 500> 300 200<200 300 400 500> 700 100<200 300 400 500> 800 100<100 200 500 600> 900 100<300 400> 1000 100<200 300>
VStem: 0 100<-100 100> 100 100<200 300 800 900> 200 100<300 500 1000 1100> 300 100<500 700 900 1000> 400 100<300 500> 500 100<200 300 800 900> 600 100<-100 100>
LayerCount: 2
Fore
SplineSet
400 1000 m 1x0210
 400 900 l 1
 300 900 l 1x0210
 300 1000 l 1x0220
 400 1000 l 1x0210
100 800 m 1x0440
 100 900 l 1
 200 900 l 1x0440
 200 800 l 1x0840
 100 800 l 1x0440
0 -100 m 1x8080
 0 -33 0 33 0 100 c 1
 100 100 l 1
 100 33 100 -33 100 -100 c 1
 0 -100 l 1x8080
300 1000 m 1x0220
 200 1000 l 1
 200 1100 l 1
 300 1100 l 1x0120
 300 1000 l 1x0220
200 800 m 1x1840
 500 800 l 1
 500 700 l 1
 400 700 l 1
 400 633 400 567 400 500 c 1x1854
 500 500 l 1x1808
 500 433 500 367 500 300 c 1x4008
 600 300 l 1x4004
 600 233 600 167 600 100 c 1
 700 100 l 1
 700 33 700 -33 700 -100 c 1
 600 -100 l 1
 600 -33 600 33 600 100 c 1
 100 100 l 1x8082
 100 167 100 233 100 300 c 1
 200 300 l 1x4040
 200 200 l 1
 500 200 l 1x2044
 500 300 l 1x4008
 400 300 l 1x1008
 400 367 400 433 400 500 c 1x1010
 300 500 l 1
 300 433 300 367 300 300 c 1x1020
 200 300 l 1x4040
 200 367 200 433 200 500 c 1
 300 500 l 1x1020
 300 567 300 633 300 700 c 1x1810
 200 700 l 1x1820
 200 800 l 1x1840
500 800 m 1
 500 900 l 1
 600 900 l 1
 600 800 l 1x0404
 500 800 l 1
EndSplineSet
EndChar
StartChar: uni1EB2
Encoding: 7858 7858 519
Width: 800
Flags: HW
HStem: -100 200<0 100 600 700> 100 200<100 200 500 600> 100 100<200 500> 300 200<200 300 400 500> 600 100<200 300 400 500> 700 100<100 200 500 600> 800 100<300 400> 900 100<400 500> 1000 100<200 400>
VStem: 0 100<-100 100> 100 100<200 300 700 800> 200 100<300 500> 300 100<500 600 800 900> 400 100<300 500 900 1000> 500 100<200 300 700 800> 600 100<-100 100>
LayerCount: 2
Fore
SplineSet
200 1000 m 1x0094
 200 1100 l 1
 267 1100 333 1100 400 1100 c 1x0094
 400 1000 l 1x0114
 333 1000 267 1000 200 1000 c 1x0094
300 800 m 1x0208
 300 900 l 1
 400 900 l 1
 400 800 l 1
 300 800 l 1x0208
100 700 m 1x0420
 100 800 l 1
 200 800 l 1x0420
 200 700 l 1x0820
 100 700 l 1x0420
0 -100 m 1x8040
 0 -33 0 33 0 100 c 1
 100 100 l 1
 100 33 100 -33 100 -100 c 1
 0 -100 l 1x8040
400 1000 m 1x0104
 500 1000 l 1
 500 900 l 1x0104
 400 900 l 1x0208
 400 1000 l 1x0104
200 700 m 1x1820
 500 700 l 1
 500 600 l 1
 400 600 l 1
 400 500 l 1x182a
 500 500 l 1x1804
 500 433 500 367 500 300 c 1x4004
 600 300 l 1x4002
 600 233 600 167 600 100 c 1
 700 100 l 1
 700 33 700 -33 700 -100 c 1
 600 -100 l 1
 600 -33 600 33 600 100 c 1
 100 100 l 1x8041
 100 167 100 233 100 300 c 1
 200 300 l 1x4020
 200 200 l 1
 500 200 l 1x2022
 500 300 l 1x4004
 400 300 l 1x1004
 400 367 400 433 400 500 c 1x1008
 300 500 l 1
 300 433 300 367 300 300 c 1x1010
 200 300 l 1x4020
 200 367 200 433 200 500 c 1
 300 500 l 1x1010
 300 600 l 1x1808
 200 600 l 1x1810
 200 700 l 1x1820
500 700 m 1
 500 800 l 1
 600 800 l 1
 600 700 l 1x0402
 500 700 l 1
EndSplineSet
EndChar
StartChar: figuredash
Encoding: 8210 8210 738
Width: 800
Flags: HW
HStem: 200 100<0 700>
LayerCount: 2
Fore
SplineSet
0 200 m 5
 0 300 l 5
 700 300 l 29
 700 200 l 29
 0 200 l 5
EndSplineSet
EndChar
StartChar: endash
Encoding: 8211 8211 208
Width: 600
Flags: HW
HStem: 200 100<0 500>
LayerCount: 2
Fore
SplineSet
0 200 m 29
 0 300 l 29
 500 300 l 29
 500 200 l 29
 0 200 l 29
EndSplineSet
EndChar
StartChar: emdash
Encoding: 8212 8212 734
Width: 1100
Flags: HW
HStem: 200 100<0 1000>
LayerCount: 2
Fore
SplineSet
0 200 m 1
 0 300 l 1
 1000 300 l 25
 1000 200 l 25
 0 200 l 1
EndSplineSet
EndChar
StartChar: quoteleft
Encoding: 8216 8216 216
Width: 300
Flags: W
HStem: 500 21G<0 100> 680 20G<0 100> 700 100<100 200>
VStem: 0 100<500 700> 100 100<700 800>
LayerCount: 2
Fore
SplineSet
100 700 m 25xd0
 100 500 l 25
 0 500 l 25
 0 700 l 25
 100 700 l 25xd0
200 800 m 25xa8
 200 700 l 25xa8
 100 700 l 25xd0
 100 800 l 25
 200 800 l 25xa8
EndSplineSet
Validated: 5
EndChar
StartChar: quoteright
Encoding: 8217 8217 213
Width: 300
Flags: W
HStem: 500 100<0 100>
VStem: 0 100<500 600> 100 100<600 800>
LayerCount: 2
Fore
SplineSet
100 600 m 9xc0
 100 800 l 25
 200 800 l 25
 200 600 l 17xa0
 167 600 133 600 100 600 c 9xc0
0 500 m 25xc0
 0 600 l 25
 100 600 l 25
 100 500 l 25
 0 500 l 25xc0
EndSplineSet
Validated: 5
EndChar
StartChar: quotereversed
Encoding: 8219 8219 733
Width: 300
Flags: W
LayerCount: 2
Fore
SplineSet
100 600 m 25
 100 800 l 25
 0 800 l 25
 0 600 l 25
 100 600 l 25
200 500 m 25
 200 600 l 25
 100 600 l 25
 100 500 l 25
 200 500 l 25
EndSplineSet
Validated: 5
EndChar
StartChar: quotedblleft
Encoding: 8220 8220 199
Width: 500
Flags: W
HStem: 500 200<0 100 200 300> 700 100<100 200 300 400>
VStem: 0 100<500 700> 100 100<700 800> 200 100<500 700> 300 100<700 800>
LayerCount: 2
Fore
SplineSet
100 700 m 25xa0
 100 500 l 25
 0 500 l 25
 0 700 l 25
 100 700 l 25xa0
200 800 m 25x50
 200 700 l 25x90
 100 700 l 25xa0
 100 800 l 25
 200 800 l 25x50
300 700 m 25x88
 300 500 l 25
 200 500 l 25x88
 200 700 l 25x90
 300 700 l 25x88
400 800 m 25x44
 400 700 l 25x44
 300 700 l 25x88
 300 800 l 25
 400 800 l 25x44
EndSplineSet
Validated: 5
EndChar
StartChar: quotedblright
Encoding: 8221 8221 200
Width: 500
Flags: W
HStem: 500 100<0 100 200 300> 600 200<100 200 300 400>
VStem: 0 100<500 600> 100 100<600 800> 200 100<500 600> 300 100<600 800>
LayerCount: 2
Fore
SplineSet
300 600 m 25x88
 300 800 l 25
 400 800 l 25
 400 600 l 25x44
 300 600 l 25x88
200 500 m 25x88
 200 600 l 17x90
 233 600 267 600 300 600 c 9
 300 500 l 25
 200 500 l 25x88
100 600 m 9xa0
 100 800 l 25
 200 800 l 25x50
 200 600 l 17x90
 167 600 133 600 100 600 c 9xa0
0 500 m 25xa0
 0 600 l 25
 100 600 l 25
 100 500 l 25
 0 500 l 25xa0
EndSplineSet
Validated: 5
EndChar
StartChar: quotedblbase
Encoding: 8222 8222 202
Width: 500
Flags: W
HStem: -100 100<0 100 200 300> 0 200<100 200 300 400>
VStem: 0 100<-100 0> 100 100<0 200> 200 100<-100 0> 300 100<0 200>
LayerCount: 2
Fore
SplineSet
300 0 m 25x88
 300 200 l 25
 400 200 l 25
 400 0 l 25x44
 300 0 l 25x88
200 -100 m 25x88
 200 0 l 25x90
 300 0 l 25
 300 -100 l 25
 200 -100 l 25x88
100 0 m 25xa0
 100 200 l 25
 200 200 l 25x50
 200 0 l 25x90
 100 0 l 25xa0
0 -100 m 25xa0
 0 0 l 25
 100 0 l 25
 100 -100 l 25
 0 -100 l 25xa0
EndSplineSet
Validated: 5
EndChar
StartChar: onedotenleader
Encoding: 8228 8228 789
Width: 500
Flags: W
HStem: 0 200<200 300>
VStem: 200 100<0 200>
LayerCount: 2
Fore
SplineSet
200 0 m 25
 200 200 l 25
 300 200 l 25
 300 0 l 25
 200 0 l 25
EndSplineSet
Validated: 1
EndChar
StartChar: twodotenleader
Encoding: 8229 8229 739
Width: 800
Flags: W
HStem: 0 200<200 300 500 600>
VStem: 200 100<0 200> 500 100<0 200>
LayerCount: 2
Fore
SplineSet
500 0 m 25
 500 200 l 25
 600 200 l 25
 600 0 l 25
 500 0 l 25
200 0 m 29
 200 200 l 29
 300 200 l 29
 300 0 l 29
 200 0 l 29
EndSplineSet
Validated: 1
EndChar
StartChar: ellipsis
Encoding: 8230 8230 209
Width: 900
Flags: W
HStem: 0 200<100 200 400 500 700 800>
VStem: 100 100<0 200> 400 100<0 200> 700 100<0 200>
CounterMasks: 1 70
LayerCount: 2
Fore
SplineSet
700 0 m 25
 700 200 l 25
 800 200 l 17
 800 133 800 67 800 0 c 9
 700 0 l 25
400 0 m 25
 400 200 l 25
 500 200 l 25
 500 0 l 25
 400 0 l 25
100 0 m 25
 100 200 l 25
 200 200 l 25
 200 0 l 25
 100 0 l 25
EndSplineSet
Validated: 1
EndChar
StartChar: perthousand
Encoding: 8240 8240 203
Width: 1300
Flags: W
HStem: -100 100<600 700 1000 1100> 0 200<500 600 700 800 900 1000 1100 1200> 100 100<200 300> 200 100<300 400 600 700 1000 1100> 300 100<400 500> 400 100<200 300 500 600> 500 200<100 200 300 400> 500 100<600 700> 700 100<200 300>
VStem: 100 100<500 700> 200 100<100 200 400 500 700 800> 300 100<200 300 500 700> 400 100<300 400> 500 100<0 200 400 500> 600 100<-100 0 200 300 500 600> 700 100<0 200> 900 100<0 200> 1000 100<-100 0 200 300> 1100 100<0 200>
LayerCount: 2
Fore
SplineSet
1200 200 m 1x400020
 1200 0 l 1x400020
 1100 0 l 1
 1100 -100 l 1
 1000 -100 l 1x800040
 1000 0 l 1x800080
 1100 0 l 1x800040
 1100 200 l 1x400040
 1200 200 l 1x400020
1100 200 m 1x400040
 1000 200 l 1x400080
 1000 300 l 1
 1100 300 l 1x100040
 1100 200 l 1x400040
1000 200 m 1
 1000 0 l 1x800080
 900 0 l 1
 900 200 l 1
 1000 200 l 1
100 500 m 1x0240
 100 700 l 1
 200 700 l 1x0240
 200 800 l 1
 300 800 l 1x00a0
 300 700 l 1x0220
 200 700 l 1x0240
 200 500 l 1x0440
 100 500 l 1x0240
200 100 m 1x2020
 200 200 l 1
 300 200 l 1
 300 100 l 1
 200 100 l 1x2020
800 200 m 1x4001
 800 0 l 1x4001
 700 0 l 1
 700 -100 l 1
 600 -100 l 1x8002
 600 0 l 1x8004
 700 0 l 1x8002
 700 200 l 1x4002
 800 200 l 1x4001
700 600 m 1x0102
 700 500 l 1x0102
 600 500 l 1x0404
 600 600 l 1
 700 600 l 1x0102
200 500 m 1x0440
 300 500 l 1
 300 400 l 1
 200 400 l 1x0420
 200 500 l 1x0440
300 500 m 1
 300 700 l 1x0220
 400 700 l 1
 400 500 l 1x0210
 300 500 l 1
300 200 m 1x2020
 300 300 l 1
 400 300 l 1
 400 200 l 1x1010
 300 200 l 1x2020
700 200 m 1x4002
 600 200 l 1x4004
 600 300 l 1
 700 300 l 1x1002
 700 200 l 1x4002
600 200 m 1
 600 0 l 1x8004
 500 0 l 1
 500 200 l 1
 600 200 l 1
600 500 m 1x0404
 600 400 l 1x0404
 500 400 l 1x0808
 500 500 l 1
 600 500 l 1x0404
500 400 m 1x0808
 500 300 l 1x0808
 400 300 l 1x1010
 400 400 l 1
 500 400 l 1x0808
EndSplineSet
Validated: 5
EndChar
StartChar: uni2034
Encoding: 8244 8244 245
Width: 800
Flags: W
HStem: 500 300<100 200 300 400 500 600>
VStem: 100 100<500 800> 300 100<500 800> 500 100<500 800>
CounterMasks: 1 70
LayerCount: 2
Fore
SplineSet
500 500 m 1
 500 800 l 1
 600 800 l 1
 600 500 l 1
 500 500 l 1
100 500 m 1
 100 800 l 1
 200 800 l 1
 200 500 l 1
 100 500 l 1
300 500 m 1
 300 800 l 1
 400 800 l 1
 400 500 l 1
 300 500 l 1
EndSplineSet
Validated: 1
EndChar
StartChar: guilsinglright
Encoding: 8250 8250 198
Width: 500
Flags: W
LayerCount: 2
Fore
SplineSet
200 400 m 1
 200 300 l 1
 300 300 l 1
 300 200 l 1
 200 200 l 1
 200 100 l 1
 100 100 l 1
 100 0 l 1
 200 0 l 1
 200 100 l 1
 300 100 l 1
 300 200 l 1
 400 200 l 1
 400 300 l 1
 300 300 l 1
 300 400 l 1
 200 400 l 1
200 400 m 1
 200 500 l 1
 100 500 l 1
 100 400 l 1
 200 400 l 1
EndSplineSet
Validated: 5
EndChar
StartChar: uni203B
Encoding: 8251 8251 740
Width: 900
VWidth: 1600
Flags: W
HStem: -100 100<400 500> 0 100<200 300 600 700> 100 100<300 400 500 600> 200 100<100 200 400 500 700 800> 300 100<300 400 500 600> 400 100<200 300 600 700> 500 100<400 500>
VStem: 100 100<200 300> 200 100<0 100 400 500> 300 100<100 200 300 400> 400 100<-100 0 200 300 500 600> 500 100<100 200 300 400> 600 100<0 100 400 500> 700 100<200 300>
LayerCount: 2
Fore
SplineSet
100 300 m 1x11
 200 300 l 1
 200 200 l 1
 100 200 l 1
 100 300 l 1x11
400 0 m 1x8020
 500 0 l 1
 500 -100 l 1
 400 -100 l 1
 400 0 l 1x8020
700 300 m 1x1004
 800 300 l 1
 800 200 l 1
 700 200 l 1
 700 300 l 1x1004
400 600 m 1x0220
 500 600 l 1
 500 500 l 1
 400 500 l 1
 400 600 l 1x0220
200 0 m 1x4080
 200 100 l 1
 300 100 l 1x4080
 300 200 l 1
 400 200 l 1x2040
 400 300 l 1x1040
 300 300 l 1x0840
 300 400 l 1x0880
 200 400 l 1
 200 500 l 1
 300 500 l 1x0480
 300 400 l 1x0880
 400 400 l 1x0840
 400 300 l 1x1040
 500 300 l 1x1020
 500 400 l 1
 600 400 l 1x0810
 600 500 l 1
 700 500 l 1
 700 400 l 1x0408
 600 400 l 1
 600 300 l 1x0810
 500 300 l 1x1020
 500 200 l 1x2020
 400 200 l 1
 400 100 l 1x2040
 300 100 l 1
 300 0 l 1
 200 0 l 1x4080
500 200 m 1x2020
 600 200 l 1x2010
 600 100 l 1x4010
 500 100 l 1x2010
 500 200 l 1x2020
600 100 m 1x4010
 700 100 l 1
 700 0 l 1
 600 0 l 1x4008
 600 100 l 1x4010
EndSplineSet
Validated: 5
EndChar
StartChar: uni207F
Encoding: 8319 8319 827
Width: 400
VWidth: 1600
Flags: W
HStem: 600 100<100 200>
VStem: 0 100<400 600> 200 100<400 600>
LayerCount: 2
Fore
SplineSet
0 400 m 1
 0 700 l 1
 200 700 l 1
 200 600 l 1
 100 600 l 1
 100 400 l 1
 0 400 l 1
200 600 m 1
 300 600 l 1
 300 400 l 1
 200 400 l 1
 200 600 l 1
EndSplineSet
Validated: 5
EndChar
StartChar: uni20A2
Encoding: 8354 8354 791
Width: 800
VWidth: 1600
Flags: W
HStem: 0 100<300 400 500 600> 100 100<200 300> 400 100<500 700> 600 100<200 300> 700 100<300 600>
VStem: 100 100<200 600> 200 100<100 200 600 700> 300 300<0 100 700 800> 400 100<100 400>
LayerCount: 2
Fore
SplineSet
500 500 m 1xa280
 567 500 633 500 700 500 c 1
 700 400 l 1
 633 400 567 400 500 400 c 1
 500 100 l 1xa280
 600 100 l 1
 600 0 l 1
 300 0 l 1xa1
 300 100 l 1
 400 100 l 1
 400 400 l 1
 500 400 l 1
 500 500 l 1xa280
200 100 m 1x62
 200 200 l 1x64
 300 200 l 1x62
 300 100 l 1xa2
 200 100 l 1x62
100 600 m 1x74
 200 600 l 1
 200 467 200 333 200 200 c 1
 100 200 l 1
 100 333 100 467 100 600 c 1x74
200 700 m 1x32
 300 700 l 1
 300 600 l 1x32
 200 600 l 1x34
 200 700 l 1x32
300 700 m 1
 300 800 l 1
 600 800 l 1
 600 700 l 1x29
 300 700 l 1
EndSplineSet
Validated: 5
EndChar
StartChar: uni20A6
Encoding: 8358 8358 792
Width: 1000
VWidth: 1600
Flags: W
HStem: 500 21G<300 400 500 700>
LayerCount: 2
Fore
SplineSet
500 500 m 17
 500 600 l 1
 400 600 l 1
 400 700 l 1
 300 700 l 1
 300 800 l 1
 200 800 l 1
 200 500 l 1
 100 500 l 1
 100 433 100 367 100 300 c 1
 200 300 l 1
 200 0 l 1
 300 0 l 1
 300 300 l 1
 500 300 l 1
 500 200 l 1
 600 200 l 1
 600 300 l 1
 700 300 l 1
 700 200 l 1
 600 200 l 1
 600 100 l 1
 700 100 l 1
 700 0 l 1
 800 0 l 1
 800 300 l 1
 900 300 l 1
 900 367 900 433 900 500 c 1
 800 500 l 1
 800 800 l 1
 700 800 l 1
 700 500 l 1
 500 500 l 17
400 600 m 1
 400 500 l 1
 300 500 l 1
 300 600 l 1
 400 600 l 1
EndSplineSet
Validated: 5
EndChar
StartChar: uni20A9
Encoding: 8361 8361 794
Width: 1100
VWidth: 1600
Flags: W
HStem: 0 200<300 400 700 800> 200 200<400 500 600 700> 300 100<100 200 300 400 500 600 700 800 900 1000> 500 300<100 200 900 1000> 500 100<300 500 600 800>
VStem: 100 100<600 800> 200 100<200 300 400 500> 300 100<0 200> 400 100<200 300> 600 100<200 300> 700 100<0 200> 800 100<200 300 400 500> 900 100<600 800>
LayerCount: 2
Fore
SplineSet
100 300 m 1x24
 100 400 l 1x24
 200 400 l 1
 200 500 l 1x32
 100 500 l 1
 100 600 100 700 100 800 c 1
 200 800 l 1x34
 200 600 l 1x0c
 500 600 l 1
 500 500 l 1
 300 500 l 1
 300 400 l 1x2a80
 400 400 500 400 600 400 c 1
 600 467 600 533 600 600 c 1
 900 600 l 1x4ac8
 900 800 l 1
 1000 800 l 1
 1000 700 1000 600 1000 500 c 1x12c8
 900 500 l 1
 900 400 l 1x3010
 1000 400 l 1
 1000 300 l 1x3008
 900 300 l 1x3010
 900 200 l 1x4010
 800 200 l 1x8020
 800 300 l 1
 700 300 l 1
 700 200 l 1xa050
 800 200 l 1
 800 133 800 67 800 0 c 1
 700 0 l 1xa020
 700 67 700 133 700 200 c 1xa040
 600 200 l 1x4040
 600 300 l 1
 500 300 l 1x20c0
 500 200 l 1x40c0
 400 200 l 1x81
 400 300 l 1
 300 300 l 1
 300 200 l 1xa280
 400 200 l 1
 400 133 400 67 400 0 c 1
 300 0 l 1xa1
 300 67 300 133 300 200 c 1xa2
 200 200 l 1x42
 200 300 l 1x22
 100 300 l 1x24
600 500 m 1x28d0
 600 567 600 633 600 700 c 1
 500 700 l 1
 500 400 l 1x48d0
 600 400 700 400 800 400 c 1
 800 500 l 1
 600 500 l 1x28d0
EndSplineSet
Validated: 5
EndChar
StartChar: dong
Encoding: 8363 8363 795
Width: 700
VWidth: 1600
Flags: W
HStem: -100 100<100 500> 100 100<200 400> 400 100<200 400> 600 100<200 400 500 600>
VStem: 100 100<200 400> 200 300<100 200 400 500> 400 100<200 400 500 600 700 800>
LayerCount: 2
Fore
SplineSet
100 -100 m 25xfa
 100 0 l 25
 500 0 l 25
 500 -100 l 25
 100 -100 l 25xfa
200 600 m 1xf4
 200 700 l 1xf4
 400 700 l 1
 400 800 l 1
 500 800 l 1
 500 700 l 1
 600 700 l 1
 600 600 l 1
 500 600 l 1xf2
 500 100 l 1
 400 100 300 100 200 100 c 1xf4
 200 200 l 1
 100 200 l 1
 100 400 l 1
 200 400 l 1xf8
 200 500 l 1xf4
 400 500 l 1
 400 600 l 1xf2
 200 600 l 1xf4
200 400 m 1xfa
 200 200 l 1
 400 200 l 1
 400 400 l 1
 200 400 l 1xfa
EndSplineSet
Validated: 5
EndChar
StartChar: Euro
Encoding: 8364 8364 177
Width: 800
VWidth: 1600
Flags: W
HStem: 0 100<400 700> 100 100<300 400> 300 200<100 200 300 600> 600 100<300 400> 700 100<400 700>
VStem: 200 100<200 300 500 600> 300 100<100 200 600 700> 400 300<0 100 700 800>
LayerCount: 2
Fore
SplineSet
400 800 m 1x29
 700 800 l 1
 700 700 l 1x29
 400 700 l 1
 400 600 l 1x32
 300 600 l 1
 300 500 l 1
 600 500 l 1
 600 300 l 1
 300 300 l 1
 300 200 l 1x74
 400 200 l 1x72
 400 100 l 1xa2
 700 100 l 1
 700 0 l 1
 400 0 l 1xa1
 400 100 l 1xa2
 300 100 l 1x62
 300 200 l 1
 200 200 l 1
 200 300 l 1
 100 300 l 1
 100 367 100 433 100 500 c 1
 200 500 l 1
 200 600 l 1
 300 600 l 1x74
 300 700 l 1
 400 700 l 1x72
 400 800 l 1x29
EndSplineSet
Validated: 5
EndChar
StartChar: uni20AE
Encoding: 8366 8366 797
Width: 900
VWidth: 1600
Flags: W
HStem: 700 100<100 400 500 800>
VStem: 400 100<0 100 200 300 400 700>
LayerCount: 2
Fore
SplineSet
700 500 m 1
 700 600 l 1
 600 600 l 1
 600 500 l 1
 700 500 l 1
700 300 m 1
 700 400 l 1
 600 400 l 1
 600 500 l 1
 500 500 l 1
 500 400 l 1
 600 400 l 1
 600 300 l 1
 700 300 l 1
600 300 m 1
 500 300 l 1
 500 200 l 1
 600 200 l 1
 600 300 l 1
500 500 m 1
 500 400 l 1
 500 300 l 1
 500 200 l 1
 500 0 l 1
 400 0 l 1
 400 100 l 1
 400 200 l 1
 300 200 l 1
 300 300 l 1
 200 300 l 1
 200 200 l 1
 300 200 l 1
 300 100 l 1
 200 100 l 1
 200 0 l 1
 300 0 l 1
 300 100 l 1
 400 100 l 1
 400 200 l 1
 400 300 l 1
 400 400 l 1
 300 400 l 1
 300 300 l 1
 400 300 l 1
 400 400 l 1
 400 700 l 1
 100 700 l 1
 100 800 l 1
 800 800 l 1
 800 700 l 1
 500 700 l 1
 500 500 l 1
EndSplineSet
Validated: 5
EndChar
StartChar: uni20B2
Encoding: 8370 8370 803
Width: 800
VWidth: 1600
Flags: W
HStem: -100 21G<400 500> 0 100<300 400 500 600> 100 100<200 300> 500 100<200 300> 600 100<300 400 500 600>
VStem: 100 100<200 500> 200 100<100 200 500 600> 300 300<0 100 600 700> 400 100<-100 0 100 600 700 800> 600 100<100 400>
LayerCount: 2
Fore
SplineSet
600 100 m 1xc1
 600 400 l 1
 700 400 l 1
 700 100 l 1xa040
 600 100 l 1xc1
600 100 m 1xc9
 600 0 l 1xc9
 500 0 l 1
 500 -100 l 1
 400 -100 l 1
 400 -0 l 1xc880
 300 0 l 1xc9
 300 100 l 1
 400 100 l 1
 400 600 l 1xca80
 300 600 l 1
 300 500 l 1x9280
 200 500 l 1
 200 367 200 333 200 200 c 1xb4
 300 200 l 1xb2
 300 100 l 1xc2
 200 100 l 1xa2
 200 200 l 1
 100 200 l 1
 100 333 100 367 100 500 c 1
 200 500 l 1xb4
 200 600 l 1
 300 600 l 1xb2
 300 700 l 1x89
 400 700 l 1
 400 800 l 1
 500 800 l 1
 500 700 l 1x8880
 600 700 l 1
 600 600 l 1x89
 500 600 l 1
 500 100 l 1xc880
 600 100 l 1xc9
EndSplineSet
Validated: 5
EndChar
StartChar: uni20B4
Encoding: 8372 8372 799
Width: 800
VWidth: 1600
Flags: W
LayerCount: 2
Fore
SplineSet
500 800 m 1
 200 800 l 1
 200 700 l 1
 500 700 l 1
 500 633 500 567 500 500 c 1
 367 500 233 500 100 500 c 1
 100 300 l 1
 200 300 l 1
 200 233 200 167 200 100 c 1
 300 100 l 1
 300 0 l 1
 600 0 l 1
 600 100 l 1
 300 100 l 1
 300 167 300 233 300 300 c 1
 433 300 567 300 700 300 c 1
 700 500 l 1
 600 500 l 1
 600 567 600 633 600 700 c 1
 500 700 l 1
 500 800 l 1
EndSplineSet
Validated: 5
EndChar
StartChar: uni20B5
Encoding: 8373 8373 802
Width: 800
VWidth: 1600
Flags: W
HStem: -100 21G<400 500> 0 100<300 400 500 700> 100 100<200 300> 500 100<200 300> 600 100<300 400 500 700>
VStem: 100 100<200 500> 200 100<100 200 500 600> 400 100<-100 0 100 600 700 800>
LayerCount: 2
Fore
SplineSet
200 500 m 1x95
 200 367 200 333 200 200 c 1xb5
 300 200 l 1xb3
 300 100 l 1
 400 100 l 1
 400 600 l 1xcb
 300 600 l 1
 300 500 l 1x93
 200 500 l 1x95
200 500 m 1
 200 600 l 1
 300 600 l 1xb3
 300 700 l 1
 400 700 l 1
 400 800 l 1
 500 800 l 1
 500 700 l 1
 700 700 l 1
 700 600 l 1
 500 600 l 1
 500 100 l 1
 700 100 l 1
 700 0 l 1
 500 0 l 1
 500 -100 l 1
 400 -100 l 1
 400 -0 l 1
 300 0 l 1
 300 100 l 1xcb
 200 100 l 1xa3
 200 200 l 1
 100 200 l 1
 100 500 l 1
 200 500 l 1
EndSplineSet
Validated: 5
EndChar
StartChar: uni2117
Encoding: 8471 8471 785
Width: 900
VWidth: 1600
Flags: W
HStem: -100 100<300 600> -0 100<200 300 600 700> 100 400<100 200 300 400 700 800> 200 100<400 500> 300 100<500 600> 400 100<400 500> 500 100<200 300 600 700> 600 100<300 600>
VStem: 100 100<100 500> 200 100<0 100 500 600> 300 200<200 300 400 500> 300 100<100 200 300 400> 500 100<300 400> 600 100<0 100 500 600> 700 100<100 500>
LayerCount: 2
Fore
SplineSet
600 -0 m 1x8044
 600 -100 l 1
 300 -100 l 1x8014
 300 -0 l 1
 600 -0 l 1x8044
600 -0 m 1
 600 100 l 1
 700 100 l 1
 700 -0 l 1x4004
 600 -0 l 1
300 -0 m 1x8040
 200 -0 l 1x4040
 200 100 l 1x4080
 300 100 l 1x4040
 300 -0 l 1x8040
700 100 m 1x4004
 700 233 700 367 700 500 c 1x2004
 800 500 l 1
 800 367 800 233 800 100 c 1x2002
 700 100 l 1x4004
200 100 m 1x4080
 100 100 l 1
 100 233 100 367 100 500 c 1
 200 500 l 1x2080
 200 367 200 233 200 100 c 1x4080
700 500 m 1x2004
 600 500 l 1
 600 600 l 1
 700 600 l 1x0204
 700 500 l 1x2004
200 500 m 1x2080
 200 600 l 1
 300 600 l 1x0240
 300 500 l 1x2040
 200 500 l 1x2080
600 600 m 1x0214
 300 600 l 1x0244
 300 700 l 1
 600 700 l 1x0114
 600 600 l 1x0214
300 500 m 1x2040
 500 500 l 1x0420
 500 400 l 1x0820
 467 400 433 400 400 400 c 1
 400 300 l 1x1410
 433 300 467 300 500 300 c 1x1420
 500 400 l 1x0820
 600 400 l 1
 600 300 l 1x0808
 500 300 l 1
 500 200 l 1x1020
 467 200 433 200 400 200 c 1x1010
 400 100 l 1x2010
 300 100 l 1x4040
 300 500 l 1x2040
EndSplineSet
Validated: 5
EndChar
StartChar: minus
Encoding: 8722 8722 829
Width: 500
VWidth: 0
Flags: HW
LayerCount: 2
Fore
SplineSet
0 300 m 1
 0 400 l 1
 400 400 l 1
 400 300 l 1
 0 300 l 1
EndSplineSet
EndChar
StartChar: uni2C61
Encoding: 11361 11361 747
Width: 400
VWidth: 1600
Flags: W
HStem: 200 100<0 300> 400 100<0 300> 680 20G<100 200>
VStem: -0 300<200 300 400 500> 100 100<0 700>
LayerCount: 2
Fore
SplineSet
-0 200 m 25xf0
 -0 300 l 25
 300 300 l 25
 300 200 l 25
 -0 200 l 25xf0
-0 400 m 25
 -0 500 l 25
 300 500 l 25
 300 400 l 25
 -0 400 l 25
EndSplineSet
Refer: 69 108 N 1 0 0 1 100 0 2
Validated: 5
EndChar
StartChar: uni2C63
Encoding: 11363 11363 749
Width: 700
VWidth: 1600
Flags: W
HStem: -100 21G<100 200> 200 100<200 500> 400 100<0 400> 600 100<200 500>
VStem: 100 100<-100 200 300 600> 500 100<300 600>
LayerCount: 2
Fore
SplineSet
0 400 m 25
 0 500 l 25
 400 500 l 25
 400 400 l 25
 0 400 l 25
EndSplineSet
Refer: 44 80 N 1 0 0 1 0 0 2
Validated: 5
EndChar
StartChar: uni2C64
Encoding: 11364 11364 750
Width: 700
VWidth: 1600
Flags: W
HStem: -200 100<200 400> -100 21G<100 200> 0 100<400 600> 200 100<200 300> 600 100<200 400>
VStem: 100 100<-100 200 300 600> 300 100<100 200> 400 100<300 600>
LayerCount: 2
Fore
SplineSet
600 0 m 1x7e
 400 0 l 1x7d
 400 100 l 1
 300 100 l 9
 300 200 l 25
 200 200 l 1
 200 -100 l 1xbe
 100 -100 l 1
 100 700 l 1
 400 700 l 1
 400 600 l 1
 500 600 l 1
 500 300 l 1
 400 300 l 1x7d
 400 100 l 1
 600 100 l 1
 600 0 l 1x7e
400 300 m 1
 400 600 l 1
 200 600 l 1
 200 300 l 1
 400 300 l 1
200 -200 m 1xbd
 200 -100 l 1
 400 -100 l 25
 400 -200 l 25
 200 -200 l 1xbd
EndSplineSet
Validated: 5
EndChar
StartChar: uni2C68
Encoding: 11368 11368 752
Width: 500
VWidth: 1600
Flags: W
HStem: -200 21G<400 500> 400 100<100 300> 680 20G<0 100>
VStem: 0 100<0 400 500 700> 300 100<0 400> 400 100<-200 0>
LayerCount: 2
Fore
SplineSet
400 -200 m 25xf4
 400 0 l 25xf8
 500 0 l 25
 500 -200 l 25
 400 -200 l 25xf4
EndSplineSet
Refer: 65 104 N 1 0 0 1 0 0 2
Validated: 5
EndChar
StartChar: uni2C6A
Encoding: 11370 11370 754
Width: 500
VWidth: 1600
Flags: W
HStem: -200 21G<400 500> 0 100<300 400> 100 100<200 300> 200 100<100 200> 300 100<200 300> 400 100<300 400> 680 20G<0 100>
VStem: 0 100<0 200 300 700> 200 100<100 200 300 400> 300 100<0 100 400 500> 400 100<-200 0>
LayerCount: 2
Fore
SplineSet
400 -200 m 25xc320
 400 0 l 25xc340
 500 0 l 25
 500 -200 l 25
 400 -200 l 25xc320
EndSplineSet
Refer: 68 107 N 1 0 0 1 0 0 2
Validated: 5
EndChar
StartChar: uni2C6B
Encoding: 11371 11371 755
Width: 800
VWidth: 1600
Flags: W
HStem: -200 21G<600 700> -100 100<200 700> 100 100<200 300> 200 100<300 400> 300 100<400 500> 400 100<500 600> 600 100<100 600>
VStem: 100 100<0 100> 200 100<100 200> 300 100<200 300> 400 100<300 400> 500 100<400 500> 600 100<-200 0 500 600>
LayerCount: 2
Fore
SplineSet
600 -200 m 25xc208
 600 0 l 25
 700 0 l 25
 700 -200 l 25
 600 -200 l 25xc208
EndSplineSet
Refer: 54 90 N 1 0 0 1 0 0 2
Validated: 5
EndChar
StartChar: uni2C6C
Encoding: 11372 11372 756
Width: 500
VWidth: 1600
Flags: W
HStem: -200 21G<400 500> 0 100<100 400> 200 100<100 200> 400 100<0 200 300 400>
VStem: 0 100<100 200> 100 100<200 300> 200 100<300 400> 400 100<-200 0>
LayerCount: 2
Fore
SplineSet
400 -200 m 25xf1
 400 0 l 25
 500 0 l 25
 500 -200 l 25
 400 -200 l 25xf1
EndSplineSet
Refer: 83 122 N 1 0 0 1 0 0 2
Validated: 5
EndChar
StartChar: uniA78A
Encoding: 42890 42890 773
Width: 400
Flags: W
HStem: 200 100<0 300> 400 100<0 300>
VStem: 0 300<200 300 400 500>
LayerCount: 2
Fore
SplineSet
0 200 m 1
 0 300 l 1
 300 300 l 1
 300 200 l 1
 0 200 l 1
0 400 m 1
 0 500 l 1
 300 500 l 1
 300 400 l 1
 0 400 l 1
EndSplineSet
Validated: 1
EndChar
StartChar: uniA78B
Encoding: 42891 42891 770
Width: 200
Flags: W
HStem: 680 20G<0 100>
VStem: 0 100<300 700>
LayerCount: 2
Fore
SplineSet
0 300 m 1
 0 700 l 1
 100 700 l 1
 100 300 l 1
 0 300 l 1
EndSplineSet
Validated: 1
EndChar
StartChar: uniA78C
Encoding: 42892 42892 771
Width: 200
Flags: W
VStem: 0 100<400 900>
LayerCount: 2
Fore
SplineSet
0 400 m 1
 0 900 l 1
 100 900 l 1
 100 400 l 1
 0 400 l 1
EndSplineSet
Validated: 1
EndChar
StartChar: uniA78D
Encoding: 42893 42893 767
Width: 700
VWidth: 1600
Flags: W
HStem: -100 21G<500 600> 200 100<200 500> 680 20G<100 200 500 600>
VStem: 100 100<300 700> 500 100<-100 200 300 700>
LayerCount: 2
Fore
SplineSet
500 -100 m 25
 500 200 l 25
 200 200 l 1
 200 300 l 25
 100 300 l 25
 100 700 l 25
 200 700 l 25
 200 300 l 1
 500 300 l 25
 500 700 l 25
 600 700 l 25
 600 -100 l 25
 500 -100 l 25
EndSplineSet
Validated: 5
EndChar
StartChar: uniA791
Encoding: 42897 42897 777
Width: 500
VWidth: 1600
Flags: W
HStem: -200 21G<400 500> 400 100<100 300>
VStem: 0 100<0 400> 300 100<0 400> 400 100<-200 0>
LayerCount: 2
Fore
SplineSet
400 -200 m 25xe8
 400 0 l 25xf0
 500 0 l 25
 500 -200 l 25
 400 -200 l 25xe8
EndSplineSet
Refer: 71 110 N 1 0 0 1 0 0 2
Validated: 5
EndChar
StartChar: uniA7B5
Encoding: 42933 42933 814
Width: 500
Flags: W
HStem: 480 20G<200 300>
VStem: 200 100<300 500> 300 100<100 300>
LayerCount: 2
Fore
SplineSet
200 500 m 1xc0
 300 500 l 1
 300 300 l 1
 200 300 l 1
 200 500 l 1xc0
100 600 m 1
 300 600 l 1xa0
 300 500 l 1xc0
 400 500 l 1
 400 600 l 1
 300 600 l 1
 300 700 l 1
 100 700 l 1
 100 600 l 1
 0 600 l 1
 0 -200 l 1
 100 -200 l 1
 100 0 l 1
 300 0 l 1
 300 100 l 1xa0
 100 100 l 1
 100 600 l 1
300 300 m 1xc0
 400 300 l 1
 400 100 l 1
 300 100 l 1xa0
 300 300 l 1xc0
EndSplineSet
Validated: 5
EndChar
StartChar: uniA7B6
Encoding: 42934 42934 815
Width: 1100
VWidth: 1600
Flags: W
HStem: 0 100<200 300> 500 100<200 300> 600 100<700 800>
VStem: 100 100<100 500> 200 100<0 100 500 600> 700 100<600 700>
LayerCount: 2
Fore
SplineSet
800 0 m 1xcc
 600 0 l 1
 600 400 l 1
 500 400 l 1
 500 0 l 1
 300 0 l 1
 300 -100 l 1
 500 -100 l 17
 500 0 l 1
 600 0 l 1
 600 -100 l 1
 800 -100 l 17
 800 0 l 1
 900 0 l 1
 900 100 l 1
 1000 100 l 1
 1000 500 l 1
 900 500 l 1xcc
 900 600 l 1
 700 600 l 1
 700 700 l 1
 800 700 l 1xac
 800 500 l 1
 900 500 l 1
 900 100 l 1
 800 100 l 1
 800 0 l 1xcc
400 600 m 1xac
 400 700 l 1
 300 700 l 1xac
 300 600 l 1xcc
 400 600 l 1xac
300 600 m 1xcc
 300 500 l 1xcc
 200 500 l 1xd4
 200 600 l 1
 300 600 l 1xcc
200 500 m 1xd4
 200 100 l 1
 100 100 l 1
 100 500 l 1
 200 500 l 1xd4
200 100 m 1
 300 100 l 1
 300 0 l 1
 200 0 l 1x8c
 200 100 l 1
EndSplineSet
Validated: 5
EndChar
StartChar: uniA7B7
Encoding: 42935 42935 816
Width: 800
VWidth: 1600
Flags: W
HStem: 0 100<100 300 400 600> 100 300<0 100 600 700> 400 100<100 200 500 600>
VStem: 0 100<100 400> 100 100<400 500> 300 100<100 300> 500 100<400 500> 600 100<100 400>
LayerCount: 2
Fore
SplineSet
500 400 m 25x26
 500 500 l 25
 600 500 l 25x26
 600 400 l 25x46
 500 400 l 25x26
100 400 m 25x54
 100 500 l 25
 200 500 l 25
 200 400 l 25x2c
 100 400 l 25x54
100 0 m 1x8c
 100 100 l 1x94
 300 100 l 1
 300 0 l 1
 100 0 l 1x8c
100 100 m 1
 0 100 l 1
 0 400 l 1
 100 400 l 1x54
 100 100 l 1
700 400 m 1x45
 700 100 l 1x45
 600 100 l 1
 600 0 l 1
 400 0 l 1
 400 100 l 1
 600 100 l 1x85
 600 400 l 1x46
 700 400 l 1x45
400 100 m 1x84
 300 100 l 1
 300 300 l 1
 400 300 l 1
 400 100 l 1x84
EndSplineSet
Validated: 5
EndChar
StartChar: ringacute
Encoding: 65546 -1 264
Width: 0
Flags: W
HStem: 600 100<-300 -200> 800 100<-300 -200> 900 100<-100 0>
VStem: -400 100<700 800> -200 100<700 800>
AnchorPoint: "top" -250 600 mark 0
LayerCount: 2
Fore
SplineSet
-400 600 m 1xb8
 -400 900 l 1xb8
 -200 900 l 1xd8
 -200 1000 l 1
 0 1000 l 1
 0 900 l 1
 -100 900 l 1
 -100 600 l 1
 -400 600 l 1xb8
-300 700 m 1
 -200 700 l 1
 -200 800 l 1
 -300 800 l 1xd8
 -300 700 l 1
EndSplineSet
Validated: 1
EndChar
StartChar: tildecomb.four
Encoding: 65537 -1 249
Width: 0
Flags: W
HStem: 600 100<-500 -400 -300 -200> 700 100<-400 -300 -200 -100>
VStem: -500 100<600 700> -400 100<700 800> -300 100<600 700> -200 100<700 800>
AnchorPoint: "stack" -250 900 basemark 0
AnchorPoint: "stack-even" -350 900 basemark 0
AnchorPoint: "top-even" -350 600 mark 0
LayerCount: 2
Fore
SplineSet
-200 700 m 25x88
 -200 800 l 25
 -100 800 l 25
 -100 700 l 25x44
 -200 700 l 25x88
-300 600 m 9x88
 -300 700 l 25x90
 -200 700 l 25
 -200 600 l 17
 -233 600 -267 600 -300 600 c 9x88
-400 700 m 1xa0
 -400 800 l 1
 -300 800 l 1x50
 -300 700 l 1x90
 -400 700 l 1xa0
-500 600 m 25xa0
 -500 700 l 25
 -400 700 l 25
 -400 600 l 25
 -500 600 l 25xa0
EndSplineSet
Validated: 5
EndChar
StartChar: uni0302.four
Encoding: 65536 -1 248
Width: 0
Flags: W
HStem: 600 100<-500 -400 -200 -100> 700 100<-400 -200>
VStem: -500 100<600 700> -200 100<600 700>
AnchorPoint: "stack" -250 900 basemark 0
AnchorPoint: "stack-even" -350 900 basemark 0
AnchorPoint: "top-even" -350 600 mark 0
LayerCount: 2
Fore
SplineSet
-200 600 m 25xb0
 -200 700 l 25
 -100 700 l 25
 -100 600 l 25
 -200 600 l 25xb0
-400 700 m 25
 -400 800 l 25
 -200 800 l 1x70
 -200 700 l 1
 -400 700 l 25
-500 600 m 25xb0
 -500 700 l 25
 -400 700 l 25
 -400 600 l 25
 -500 600 l 25xb0
EndSplineSet
Validated: 5
EndChar
StartChar: uni0306.four
Encoding: 65548 -1 619
Width: 0
Flags: W
HStem: 600 100<-500 -300> 700 100<-600 -500>
VStem: -600 100<700 800> -300 100<700 800>
AnchorPoint: "stack" -350 900 basemark 0
AnchorPoint: "stack-even" -450 900 basemark 0
AnchorPoint: "top-even" -450 600 mark 0
LayerCount: 2
Fore
SplineSet
-600 700 m 1x70
 -600 800 l 1
 -500 800 l 1x70
 -500 700 l 1xb0
 -600 700 l 1x70
-500 700 m 1xb0
 -300 700 l 1xb0
 -300 800 l 1
 -200 800 l 1x70
 -200 733 -200 667 -200 600 c 1
 -500 600 l 1
 -500 700 l 1xb0
EndSplineSet
Validated: 5
EndChar
StartChar: uni0308.four
Encoding: 65540 -1 252
Width: 0
Flags: W
HStem: 700 100<-500 -400 -200 -100>
VStem: -500 100<700 800> -200 100<700 800>
AnchorPoint: "stack-even" -350 700 mark 0
AnchorPoint: "stack" -250 900 basemark 0
AnchorPoint: "stack-even" -350 900 basemark 0
AnchorPoint: "top-even" -350 700 mark 0
LayerCount: 2
Fore
SplineSet
-500 700 m 1
 -500 800 l 1
 -400 800 l 1
 -400 700 l 1
 -500 700 l 1
-200 700 m 1
 -200 800 l 1
 -100 800 l 1
 -100 700 l 1
 -200 700 l 1
EndSplineSet
Validated: 1
EndChar
StartChar: uni030C.alt
Encoding: 65545 -1 257
Width: 0
Flags: W
HStem: 600 200<-100 0>
VStem: -100 100<600 800>
AnchorPoint: "caron-alt" -50 600 mark 0
LayerCount: 2
Fore
SplineSet
-100 600 m 1
 -100 667 -100 733 -100 800 c 1
 -0 800 l 1
 0 733 0 667 0 600 c 1
 -100 600 l 1
EndSplineSet
Validated: 1
EndChar
StartChar: uni030E.four
Encoding: 65543 -1 255
Width: 0
Flags: W
HStem: 600 200<-500 -400 -200 -100>
VStem: -500 100<600 800> -200 100<600 800>
AnchorPoint: "top-even" -350 600 mark 0
LayerCount: 2
Fore
SplineSet
-500 600 m 1
 -500 800 l 17
 -467 800 -433 800 -400 800 c 9
 -400 600 l 1
 -500 600 l 1
-200 600 m 1
 -200 800 l 17
 -167 800 -133 800 -100 800 c 9
 -100 600 l 1
 -200 600 l 1
EndSplineSet
Validated: 1
EndChar
StartChar: uni030F.odd
Encoding: 65544 -1 256
Width: 0
Flags: W
HStem: 600 100<-500 -400 -200 -100> 700 100<-600 -500 -300 -200>
VStem: -600 100<700 800> -500 100<600 700> -300 100<700 800> -200 100<600 700>
AnchorPoint: "top" -250 600 mark 0
LayerCount: 2
Fore
SplineSet
-200 800 m 25x48
 -200 700 l 25x88
 -300 700 l 25
 -300 800 l 25
 -200 800 l 25x48
-100 700 m 25x84
 -100 600 l 25
 -200 600 l 25x84
 -200 700 l 25x88
 -100 700 l 25x84
-500 800 m 25x60
 -500 700 l 25xa0
 -600 700 l 25
 -600 800 l 25
 -500 800 l 25x60
-400 700 m 25x90
 -400 600 l 25
 -500 600 l 25x90
 -500 700 l 25xa0
 -400 700 l 25x90
EndSplineSet
Validated: 5
EndChar
StartChar: uni0311.four
Encoding: 65550 -1 621
Width: 700
Flags: W
HStem: 600 200
AnchorPoint: "top-even" 350 600 mark 0
LayerCount: 2
Fore
SplineSet
200 700 m 1
 200 600 l 1
 300 600 l 1
 300 700 l 1
 200 700 l 1
300 700 m 1
 500 700 l 1
 500 600 l 1
 600 600 l 1
 600 667 600 733 600 800 c 1
 300 800 l 1
 300 700 l 1
EndSplineSet
Validated: 5
EndChar
StartChar: uni0311.six
Encoding: 65551 -1 622
Width: 700
Flags: W
HStem: 600 100<100 200 600 700> 700 100<200 600>
VStem: 100 100<600 700> 600 100<600 700>
AnchorPoint: "top-even" 350 600 mark 0
LayerCount: 2
Fore
SplineSet
200 700 m 25xb0
 200 600 l 25
 100 600 l 25
 100 700 l 25
 200 700 l 25xb0
600 800 m 25x70
 600 700 l 25
 200 700 l 1xb0
 200 800 l 1
 600 800 l 25x70
700 700 m 25
 700 600 l 25
 600 600 l 25
 600 700 l 25
 700 700 l 25
EndSplineSet
Validated: 5
EndChar
StartChar: uni0324.four
Encoding: 65555 -1 632
Width: 0
Flags: W
HStem: -200 100<-500 -400 -200 -100>
VStem: -500 100<-200 -100> -200 100<-200 -100>
AnchorPoint: "bottom" -250 -100 mark 0
LayerCount: 2
Fore
SplineSet
-500 -200 m 1
 -500 -100 l 1
 -400 -100 l 1
 -400 -200 l 1
 -500 -200 l 1
-200 -200 m 1
 -200 -100 l 1
 -100 -100 l 1
 -100 -200 l 1
 -200 -200 l 1
EndSplineSet
Validated: 1
EndChar
StartChar: uni0331.five
Encoding: 65556 -1 636
Width: 0
Flags: W
HStem: -200 100<-600 -100>
AnchorPoint: "bottom" -350 -100 mark 0
LayerCount: 2
Fore
SplineSet
-600 -200 m 25
 -600 -100 l 25
 -100 -100 l 1
 -100 -200 l 1
 -600 -200 l 25
EndSplineSet
Validated: 1
EndChar
